<?xml version="1.0" encoding="UTF-8"?>
<svg width="1214px" height="941px" viewBox="0 0 1214 941" version="1.1" xmlns="http://www.w3.org/2000/svg" xmlns:xlink="http://www.w3.org/1999/xlink">
    <!-- Generator: Sketch 46.2 (44496) - http://www.bohemiancoding.com/sketch -->
    <title>Color Palette Copy</title>
    <desc>Created with Sketch.</desc>
    <defs>
        <polygon id="path-1" points="0 285.771739 430.718913 285.771739 430.718913 0 0 0"></polygon>
    </defs>
    <g id="Page-1" stroke="none" stroke-width="1" fill="none" fill-rule="evenodd">
        <g id="Color-Palette-Copy">
            <text id="Full-Color-Palette" font-family="Oxygen-Light, Oxygen" font-size="24" font-weight="300" fill="#FFFFFF">
                <tspan x="515" y="113">Full Color Palette</tspan>
            </text>
            <polygon id="Page-1" points="0 941 1214 941 1214 0 0 0"></polygon>
            <g id="Group" transform="translate(123.000000, 348.000000)">
                <g id="Page-1" transform="translate(537.000000, 0.000000)">
                    <path d="M73.927275,271.717391 C73.927275,276.889391 69.7297098,281.086957 64.5577098,281.086957 C59.381025,281.086957 55.1881446,276.889391 55.1881446,271.717391 C55.1881446,266.545391 59.381025,262.347826 64.5577098,262.347826 C69.7297098,262.347826 73.927275,266.545391 73.927275,271.717391 Z" id="Fill-1" fill="#61DAC3"></path>
                    <path d="M111.405536,262.347826 C106.228851,262.347826 102.035971,266.545391 102.035971,271.717391 C102.035971,276.889391 106.228851,281.086957 111.405536,281.086957 C116.577536,281.086957 120.775101,276.889391 120.775101,271.717391 C120.775101,266.545391 116.577536,262.347826 111.405536,262.347826 Z" id="Fill-3" fill="#61DAC3"></path>
                    <path d="M156.986128,262.347826 C151.814128,262.347826 147.616563,266.545391 147.616563,271.717391 C147.616563,276.889391 151.814128,281.086957 156.986128,281.086957 C162.162813,281.086957 166.355693,276.889391 166.355693,271.717391 C166.355693,266.545391 162.162813,262.347826 156.986128,262.347826 Z" id="Fill-5" fill="#61DAC3"></path>
                    <mask id="mask-2" fill="white">
                        <use xlink:href="#path-1"></use>
                    </mask>
                    <g id="Clip-8"></g>
                    <polygon id="Fill-7" fill="#97D0E9" mask="url(#mask-2)" points="31.7628261 281.086957 34.1052174 281.086957 34.1052174 192.076087 31.7628261 192.076087"></polygon>
                    <polygon id="Fill-9" fill="#97D0E9" mask="url(#mask-2)" points="184.018261 281.086957 186.360652 281.086957 186.360652 192.076087 184.018261 192.076087"></polygon>
                    <polygon id="Fill-10" fill="#97D0E9" mask="url(#mask-2)" points="282.398696 281.086957 284.741087 281.086957 284.741087 192.076087 282.398696 192.076087"></polygon>
                    <polygon id="Fill-11" fill="#DCEFF8" mask="url(#mask-2)" points="179.334884 187.391304 191.04684 187.391304 277.715318 187.391304 289.427275 187.391304 304.512275 187.391304 284.227166 168.652174 32.2795576 168.652174 11.9944489 187.391304 27.0794489 187.391304 38.7914054 187.391304"></polygon>
                    <polygon id="Fill-12" fill="#204056" mask="url(#mask-2)" points="90.3226087 117.119565 109.061739 117.119565 109.061739 98.3804348 90.3226087 98.3804348"></polygon>
                    <polygon id="Fill-13" fill="#204056" mask="url(#mask-2)" points="90.3226087 140.543478 109.061739 140.543478 109.061739 121.804348 90.3226087 121.804348"></polygon>
                    <path d="M333.931304,262.347826 L357.355217,262.347826 L357.355217,257.663043 L333.931304,257.663043 L333.931304,262.347826 Z M312.849783,281.086957 L378.436739,281.086957 L378.436739,215.5 L312.849783,215.5 L312.849783,281.086957 Z" id="Fill-14" fill="#DCEFF8" mask="url(#mask-2)"></path>
                    <polygon id="Fill-15" fill="#97D0E9" mask="url(#mask-2)" points="289.427275 281.086957 308.166405 281.086957 308.166405 210.815217 383.122927 210.815217 383.122927 281.086957 385.465318 281.086957 401.862058 281.086957 401.862058 192.076087 316.500634 192.076087 307.131068 192.076087 289.427275 192.076087"></polygon>
                    <path d="M38.7914054,281.086957 L54.1481228,281.086957 C51.904112,278.599337 50.503362,275.329359 50.503362,271.717391 C50.503362,265.210228 54.9445359,259.789935 60.9457424,258.187739 L60.9457424,210.815217 L84.3696554,210.815217 L89.054438,210.815217 L131.217482,210.815217 L135.902264,210.815217 L159.326177,210.815217 L159.326177,257.901967 C165.969199,259.02163 171.038134,264.760489 171.038134,271.717391 C171.038134,275.329359 169.637384,278.599337 167.393373,281.086957 L179.334884,281.086957 L179.334884,192.076087 L38.7914054,192.076087 L38.7914054,281.086957 Z" id="Fill-16" fill="#97D0E9" mask="url(#mask-2)"></path>
                    <polygon id="Fill-17" fill="#204056" mask="url(#mask-2)" points="89.0577174 257.663043 107.796848 257.663043 107.796848 238.923913 89.0577174 238.923913"></polygon>
                    <polygon id="Fill-18" fill="#97D0E9" mask="url(#mask-2)" points="191.04684 281.086957 210.858786 281.086957 210.858786 210.815217 262.391395 210.815217 262.391395 281.086957 263.660971 281.086957 277.715318 281.086957 277.715318 192.076087 191.04684 192.076087"></polygon>
                    <polygon id="Fill-19" fill="#204056" mask="url(#mask-2)" points="112.48163 257.663043 131.220761 257.663043 131.220761 238.923913 112.48163 238.923913"></polygon>
                    <polygon id="Fill-20" fill="#97D0E9" mask="url(#mask-2)" points="424.535468 187.391304 405.796338 121.804348 289.426338 121.804348 289.426338 166.309783 288.587762 166.309783 311.426077 187.391304"></polygon>
                    <polygon id="Fill-21" fill="#DCEFF8" mask="url(#mask-2)" points="215.546848 281.086957 257.709891 281.086957 257.709891 215.5 215.546848 215.5"></polygon>
                    <path d="M84.3719978,262.347826 L74.9649543,262.347826 C77.2089652,264.835446 78.6144,268.105424 78.6144,271.717391 C78.6144,275.329359 77.2089652,278.599337 74.9649543,281.086957 L100.998291,281.086957 C98.7542804,278.599337 97.3535304,275.329359 97.3535304,271.717391 C97.3535304,268.105424 98.7542804,264.835446 100.998291,262.347826 L89.0567804,262.347826 L84.3719978,262.347826 Z" id="Fill-22" fill="#97D0E9" mask="url(#mask-2)"></path>
                    <path d="M131.219824,262.347826 L121.81278,262.347826 C124.056791,264.835446 125.462226,268.105424 125.462226,271.717391 C125.462226,275.329359 124.056791,278.599337 121.81278,281.086957 L146.581226,281.086957 C144.337215,278.599337 142.93178,275.329359 142.93178,271.717391 C142.93178,268.105424 144.337215,264.835446 146.581226,262.347826 L135.904607,262.347826 L131.219824,262.347826 Z" id="Fill-23" fill="#97D0E9" mask="url(#mask-2)"></path>
                    <polygon id="Fill-24" fill="#204056" mask="url(#mask-2)" points="113.746522 140.543478 132.485652 140.543478 132.485652 121.804348 113.746522 121.804348"></polygon>
                    <polygon id="Fill-25" fill="#204056" mask="url(#mask-2)" points="112.48163 234.23913 131.220761 234.23913 131.220761 215.5 112.48163 215.5"></polygon>
                    <polygon id="Fill-26" fill="#204056" mask="url(#mask-2)" points="89.0577174 234.23913 107.796848 234.23913 107.796848 215.5 89.0577174 215.5"></polygon>
                    <polygon id="Fill-27" fill="#DCEFF8" mask="url(#mask-2)" points="65.6338043 257.663043 84.3729348 257.663043 84.3729348 215.5 65.6338043 215.5"></polygon>
                    <polygon id="Fill-28" fill="#DCEFF8" mask="url(#mask-2)" points="135.905543 257.663043 154.644674 257.663043 154.644674 215.5 135.905543 215.5"></polygon>
                    <polygon id="Fill-29" fill="#DCEFF8" mask="url(#mask-2)" points="249.605217 140.543478 268.344348 140.543478 268.344348 98.3804348 249.605217 98.3804348"></polygon>
                    <polygon id="Fill-30" fill="#204056" mask="url(#mask-2)" points="226.181304 140.543478 244.920435 140.543478 244.920435 121.804348 226.181304 121.804348"></polygon>
                    <polygon id="Fill-31" fill="#DCEFF8" mask="url(#mask-2)" points="66.8986957 140.543478 85.6378261 140.543478 85.6378261 98.3804348 66.8986957 98.3804348"></polygon>
                    <polygon id="Fill-32" fill="#204056" mask="url(#mask-2)" points="226.181304 117.119565 244.920435 117.119565 244.920435 98.3804348 226.181304 98.3804348"></polygon>
                    <polygon id="Fill-33" fill="#DCEFF8" mask="url(#mask-2)" points="202.757391 140.543478 221.496522 140.543478 221.496522 98.3804348 202.757391 98.3804348"></polygon>
                    <polygon id="Fill-34" fill="#DCEFF8" mask="url(#mask-2)" points="137.170435 140.543478 155.909565 140.543478 155.909565 98.3804348 137.170435 98.3804348"></polygon>
                    <polygon id="Fill-35" fill="#204056" mask="url(#mask-2)" points="113.746522 117.119565 132.485652 117.119565 132.485652 98.3804348 113.746522 98.3804348"></polygon>
                    <polygon id="Fill-36" fill="#DCEFF8" mask="url(#mask-2)" points="33.0267804 4.68478261 9.32178043 70.2717391 30.6375413 70.2717391 107.514824 17.0526087 184.345259 70.2717391 307.184943 70.2717391 283.475259 4.68478261"></polygon>
                    <path d="M273.030536,145.228261 L249.606623,145.228261 L244.92184,145.228261 L226.18271,145.228261 L221.497927,145.228261 L198.074014,145.228261 L198.074014,93.6956522 L221.497927,93.6956522 L226.18271,93.6956522 L244.92184,93.6956522 L249.606623,93.6956522 L273.030536,93.6956522 L273.030536,145.228261 Z M185.926373,74.9565217 L186.427645,163.967391 L284.742492,163.967391 L284.742492,119.461957 L284.742492,117.119565 L284.742492,74.9565217 L185.926373,74.9565217 Z" id="Fill-37" fill="#97D0E9" mask="url(#mask-2)"></path>
                    <path d="M137.17184,145.228261 L132.487058,145.228261 L90.3240141,145.228261 L85.6392315,145.228261 L62.2153185,145.228261 L62.2153185,93.6956522 L85.6392315,93.6956522 L90.3240141,93.6956522 L132.487058,93.6956522 L137.17184,93.6956522 L160.595753,93.6956522 L160.595753,145.228261 L137.17184,145.228261 Z M107.517166,22.7680435 L32.0921663,74.9565217 L31.7642315,74.9565217 L31.7642315,163.967391 L181.742862,163.967391 L181.236905,73.9680326 L107.517166,22.7680435 Z" id="Fill-38" fill="#97D0E9" mask="url(#mask-2)"></path>
                    <polygon id="Fill-39" fill="#0D222D" mask="url(#mask-2)" points="312.851188 215.5 378.438145 215.5 378.438145 281.086957 383.122927 281.086957 383.122927 210.815217 308.166405 210.815217 308.166405 281.086957 312.851188 281.086957"></polygon>
                    <polygon id="Fill-40" fill="#0D222D" mask="url(#mask-2)" points="38.79 192.076087 179.333478 192.076087 179.333478 187.391304 38.79 187.391304"></polygon>
                    <polygon id="Fill-41" fill="#0D222D" mask="url(#mask-2)" points="27.0794489 187.391304 11.9944489 187.391304 32.2795576 168.652174 284.227166 168.652174 304.512275 187.391304 289.427275 187.391304 289.427275 192.076087 307.131068 192.076087 307.131068 187.391304 311.427014 187.391304 288.588699 166.309783 284.742492 166.309783 284.742492 163.967391 186.427645 163.967391 186.437014 166.295728 181.752232 166.319152 181.742862 163.967391 31.7642315 163.967391 31.7642315 166.309783 27.9133402 166.309783 0.00140543478 192.076087 27.0794489 192.076087"></polygon>
                    <polygon id="Fill-42" fill="#0D222D" mask="url(#mask-2)" points="191.045435 192.076087 277.713913 192.076087 277.713913 187.391304 191.045435 187.391304"></polygon>
                    <path d="M184.346664,70.2717391 L107.516229,17.0526087 L30.6389467,70.2717391 L9.32318587,70.2717391 L33.0281859,4.68478261 L283.476664,4.68478261 L307.181664,70.2717391 L184.346664,70.2717391 Z M27.078512,74.9565217 L27.078512,72.6141304 L31.7632946,72.6141304 L31.7632946,74.9565217 L32.0912293,74.9565217 L107.516229,22.7680435 L181.235968,73.9680326 L181.226599,72.6235 L185.911382,72.6000761 L185.925436,74.9565217 L284.741555,74.9565217 L284.741555,72.6141304 L289.426338,72.6141304 L289.426338,74.9565217 L313.834055,74.9565217 L286.756012,0 L29.748838,0 L2.67079457,74.9565217 L27.078512,74.9565217 Z" id="Fill-43" fill="#0D222D" mask="url(#mask-2)"></path>
                    <polygon id="Fill-44" fill="#0D222D" mask="url(#mask-2)" points="109.063145 98.3804348 109.063145 96.0380435 113.747927 96.0380435 113.747927 98.3804348 132.487058 98.3804348 132.487058 93.6956522 90.3240141 93.6956522 90.3240141 98.3804348"></polygon>
                    <polygon id="Fill-45" fill="#0D222D" mask="url(#mask-2)" points="113.747927 140.543478 113.747927 142.88587 109.063145 142.88587 109.063145 140.543478 90.3240141 140.543478 90.3240141 145.228261 132.487058 145.228261 132.487058 140.543478"></polygon>
                    <path d="M66.8986957,140.543478 L85.6378261,140.543478 L85.6378261,98.3804348 L66.8986957,98.3804348 L66.8986957,140.543478 Z M90.3226087,121.804348 L87.9802174,121.804348 L87.9802174,117.119565 L90.3226087,117.119565 L90.3226087,98.3804348 L90.3226087,93.6956522 L85.6378261,93.6956522 L62.213913,93.6956522 L62.213913,145.228261 L85.6378261,145.228261 L90.3226087,145.228261 L90.3226087,140.543478 L90.3226087,121.804348 Z" id="Fill-46" fill="#0D222D" mask="url(#mask-2)"></path>
                    <path d="M137.170435,140.543478 L155.909565,140.543478 L155.909565,98.3804348 L137.170435,98.3804348 L137.170435,140.543478 Z M137.170435,93.6956522 L132.485652,93.6956522 L132.485652,98.3804348 L132.485652,117.119565 L134.828043,117.119565 L134.828043,121.804348 L132.485652,121.804348 L132.485652,140.543478 L132.485652,145.228261 L137.170435,145.228261 L160.594348,145.228261 L160.594348,93.6956522 L137.170435,93.6956522 Z" id="Fill-47" fill="#000000" mask="url(#mask-2)"></path>
                    <path d="M89.0567804,257.663043 L89.0567804,262.347826 L100.998291,262.347826 C102.792563,260.356793 105.13027,258.899826 107.795911,258.187739 L107.795911,257.663043 L89.0567804,257.663043 Z" id="Fill-48" fill="#0D222D" mask="url(#mask-2)"></path>
                    <polygon id="Fill-49" fill="#0D222D" mask="url(#mask-2)" points="107.795911 215.5 107.795911 213.157609 112.480693 213.157609 112.480693 215.5 131.219824 215.5 131.219824 210.815217 89.0567804 210.815217 89.0567804 215.5"></polygon>
                    <path d="M131.219824,257.663043 L112.480693,257.663043 L112.480693,257.770793 C116.186357,258.056565 119.465704,259.743087 121.81278,262.347826 L131.219824,262.347826 L131.219824,257.663043 Z" id="Fill-50" fill="#0D222D" mask="url(#mask-2)"></path>
                    <path d="M65.6338043,257.663043 L84.3729348,257.663043 L84.3729348,215.5 L65.6338043,215.5 L65.6338043,257.663043 Z M89.0577174,262.347826 L89.0577174,257.663043 L89.0577174,238.923913 L86.7153261,238.923913 L86.7153261,234.23913 L89.0577174,234.23913 L89.0577174,215.5 L89.0577174,210.815217 L84.3729348,210.815217 L60.9490217,210.815217 L60.9490217,258.187739 C62.106163,257.883228 63.3007826,257.663043 64.5563043,257.663043 C68.702337,257.663043 72.3892609,259.494793 74.9612065,262.347826 L84.3729348,262.347826 L89.0577174,262.347826 Z" id="Fill-51" fill="#0D222D" mask="url(#mask-2)"></path>
                    <path d="M135.905543,257.663043 L154.644674,257.663043 L154.644674,215.5 L135.905543,215.5 L135.905543,257.663043 Z M135.905543,210.815217 L131.220761,210.815217 L131.220761,215.5 L131.220761,234.23913 L133.563152,234.23913 L133.563152,238.923913 L131.220761,238.923913 L131.220761,257.663043 L131.220761,262.347826 L135.905543,262.347826 L146.582163,262.347826 C149.154109,259.494793 152.841033,257.663043 156.987065,257.663043 C157.788163,257.663043 158.565837,257.766109 159.329457,257.901967 L159.329457,210.815217 L135.905543,210.815217 Z" id="Fill-52" fill="#0D222D" mask="url(#mask-2)"></path>
                    <polygon id="Fill-53" fill="#0D222D" mask="url(#mask-2)" points="210.861128 210.815217 210.861128 281.086957 215.545911 281.086957 215.545911 215.5 257.708954 215.5 257.708954 281.086957 262.393737 281.086957 262.393737 210.815217"></polygon>
                    <polygon id="Fill-54" fill="#0D222D" mask="url(#mask-2)" points="249.606623 98.3804348 268.345753 98.3804348 268.345753 140.543478 249.606623 140.543478 249.606623 145.228261 273.030536 145.228261 273.030536 93.6956522 249.606623 93.6956522"></polygon>
                    <polygon id="Fill-55" fill="#0D222D" mask="url(#mask-2)" points="249.606623 98.3804348 249.606623 93.6956522 244.92184 93.6956522 226.18271 93.6956522 226.18271 98.3804348 244.92184 98.3804348 244.92184 117.119565 247.165851 117.119565 247.165851 121.804348 244.92184 121.804348 244.92184 140.543478 226.18271 140.543478 226.18271 145.228261 244.92184 145.228261 249.606623 145.228261 249.606623 140.543478"></polygon>
                    <path d="M202.757391,140.543478 L221.496522,140.543478 L221.496522,98.3804348 L202.757391,98.3804348 L202.757391,140.543478 Z M226.181304,121.804348 L223.745217,121.804348 L223.745217,117.119565 L226.181304,117.119565 L226.181304,98.3804348 L226.181304,93.6956522 L221.496522,93.6956522 L198.072609,93.6956522 L198.072609,145.228261 L221.496522,145.228261 L226.181304,145.228261 L226.181304,140.543478 L226.181304,121.804348 Z" id="Fill-56" fill="#0D222D" mask="url(#mask-2)"></path>
                    <polygon id="Fill-57" fill="#0D222D" mask="url(#mask-2)" points="333.931304 262.347826 357.355217 262.347826 357.355217 257.663043 333.931304 257.663043"></polygon>
                    <polygon id="Fill-58" fill="#0D222D" mask="url(#mask-2)" points="109.063145 121.804348 109.063145 140.543478 109.063145 142.88587 113.747927 142.88587 113.747927 140.543478 113.747927 121.804348"></polygon>
                    <polygon id="Fill-59" fill="#0D222D" mask="url(#mask-2)" points="113.747927 117.119565 113.747927 98.3804348 113.747927 96.0380435 109.063145 96.0380435 109.063145 98.3804348 109.063145 117.119565"></polygon>
                    <polygon id="Fill-60" fill="#0D222D" mask="url(#mask-2)" points="109.063145 117.119565 90.3240141 117.119565 87.9816228 117.119565 87.9816228 121.804348 90.3240141 121.804348 109.063145 121.804348 113.747927 121.804348 132.487058 121.804348 134.829449 121.804348 134.829449 117.119565 132.487058 117.119565 113.747927 117.119565"></polygon>
                    <polygon id="Fill-61" fill="#0D222D" mask="url(#mask-2)" points="112.480693 234.23913 112.480693 215.5 112.480693 213.157609 107.795911 213.157609 107.795911 215.5 107.795911 234.23913"></polygon>
                    <path d="M112.480693,238.923913 L107.795911,238.923913 L107.795911,257.663043 L107.795911,258.187739 C108.957737,257.883228 110.147672,257.663043 111.407878,257.663043 C111.773291,257.663043 112.119965,257.74737 112.480693,257.770793 L112.480693,257.663043 L112.480693,238.923913 Z" id="Fill-62" fill="#0D222D" mask="url(#mask-2)"></path>
                    <polygon id="Fill-63" fill="#0D222D" mask="url(#mask-2)" points="107.795911 234.23913 89.0567804 234.23913 86.7143891 234.23913 86.7143891 238.923913 89.0567804 238.923913 107.795911 238.923913 112.480693 238.923913 131.219824 238.923913 133.562215 238.923913 133.562215 234.23913 131.219824 234.23913 112.480693 234.23913"></polygon>
                    <polygon id="Fill-64" fill="#0D222D" mask="url(#mask-2)" points="223.74428 117.119565 223.74428 121.804348 226.185052 121.804348 244.924183 121.804348 247.168193 121.804348 247.168193 117.119565 244.924183 117.119565 226.185052 117.119565"></polygon>
                    <polygon id="Fill-65" fill="#0D222D" mask="url(#mask-2)" points="263.659565 285.771739 277.713913 285.771739 277.713913 281.086957 263.659565 281.086957"></polygon>
                    <polygon id="Fill-66" fill="#0D222D" mask="url(#mask-2)" points="401.860652 281.086957 406.545435 281.086957 406.545435 192.076087 401.860652 192.076087"></polygon>
                    <polygon id="Fill-67" fill="#0D222D" mask="url(#mask-2)" points="383.122927 281.086957 378.438145 281.086957 312.851188 281.086957 308.166405 281.086957 289.427275 281.086957 289.427275 285.771739 308.166405 285.771739 383.122927 285.771739 385.465318 285.771739 385.465318 281.086957"></polygon>
                    <polygon id="Fill-68" fill="#0D222D" mask="url(#mask-2)" points="31.7642315 72.6141304 27.0794489 72.6141304 27.0794489 74.9565217 27.0794489 166.309783 27.9133402 166.309783 31.7642315 166.309783 31.7642315 163.967391 31.7642315 74.9565217"></polygon>
                    <polygon id="Fill-69" fill="#0D222D" mask="url(#mask-2)" points="284.742492 72.6141304 284.742492 74.9565217 284.742492 117.119565 289.427275 117.119565 289.427275 74.9565217 289.427275 72.6141304"></polygon>
                    <polygon id="Fill-70" fill="#0D222D" mask="url(#mask-2)" points="262.393737 281.086957 257.708954 281.086957 215.545911 281.086957 210.861128 281.086957 191.049183 281.086957 191.049183 285.771739 210.861128 285.771739 262.393737 285.771739 263.663313 285.771739 263.663313 281.086957"></polygon>
                    <path d="M146.580289,281.086957 L121.811843,281.086957 C119.239898,283.939989 115.548289,285.771739 111.406941,285.771739 L156.985191,285.771739 C152.839159,285.771739 149.152235,283.939989 146.580289,281.086957" id="Fill-71" fill="#0D222D" mask="url(#mask-2)"></path>
                    <path d="M167.393841,281.086957 C164.821896,283.939989 161.134972,285.771739 156.984254,285.771739 L179.335352,285.771739 L179.335352,281.086957 L167.393841,281.086957 Z" id="Fill-72" fill="#0D222D" mask="url(#mask-2)"></path>
                    <polygon id="Fill-73" fill="#0D222D" mask="url(#mask-2)" points="5.99652174 285.771739 27.0780435 285.771739 27.0780435 281.086957 5.99652174 281.086957"></polygon>
                    <path d="M100.997354,281.086957 L74.9640174,281.086957 C72.3920717,283.939989 68.700463,285.771739 64.5591152,285.771739 L111.406941,285.771739 C107.256224,285.771739 103.5693,283.939989 100.997354,281.086957" id="Fill-74" fill="#0D222D" mask="url(#mask-2)"></path>
                    <path d="M38.7928109,281.086957 L38.7928109,285.771739 L64.5591152,285.771739 C60.4083978,285.771739 56.7214739,283.939989 54.1495283,281.086957 L38.7928109,281.086957 Z" id="Fill-75" fill="#000000" mask="url(#mask-2)"></path>
                    <polygon id="Fill-76" fill="#0D222D" mask="url(#mask-2)" points="385.465318 281.086957 385.465318 285.771739 406.54684 285.771739 427.628362 285.771739 427.628362 281.086957 406.54684 281.086957 401.862058 281.086957"></polygon>
                    <path d="M31.7628261,281.086957 L34.1052174,281.086957 L34.1052174,192.076087 L31.7628261,192.076087 L31.7628261,281.086957 Z M38.79,192.076087 L38.79,187.391304 L27.0780435,187.391304 L27.0780435,192.076087 L27.0780435,281.086957 L27.0780435,285.771739 L38.79,285.771739 L38.79,281.086957 L38.79,192.076087 Z" id="Fill-77" fill="#0D222D" mask="url(#mask-2)"></path>
                    <path d="M282.398696,281.086957 L284.741087,281.086957 L284.741087,192.076087 L282.398696,192.076087 L282.398696,281.086957 Z M289.42587,192.076087 L289.42587,187.391304 L277.713913,187.391304 L277.713913,192.076087 L277.713913,281.086957 L277.713913,285.771739 L289.42587,285.771739 L289.42587,281.086957 L289.42587,192.076087 Z" id="Fill-78" fill="#0D222D" mask="url(#mask-2)"></path>
                    <path d="M55.1881446,271.717391 C55.1881446,266.545391 59.381025,262.347826 64.5577098,262.347826 C69.7297098,262.347826 73.927275,266.545391 73.927275,271.717391 C73.927275,276.889391 69.7297098,281.086957 64.5577098,281.086957 C59.381025,281.086957 55.1881446,276.889391 55.1881446,271.717391 M74.962612,281.086957 C77.2066228,278.599337 78.6120576,275.329359 78.6120576,271.717391 C78.6120576,268.105424 77.2066228,264.835446 74.962612,262.347826 C72.3906663,259.494793 68.7037424,257.663043 64.5577098,257.663043 C63.302188,257.663043 62.1075685,257.883228 60.9457424,258.187739 C54.9445359,259.789935 50.503362,265.210228 50.503362,271.717391 C50.503362,275.329359 51.904112,278.599337 54.1481228,281.086957 C56.7247533,283.939989 60.4116772,285.771739 64.5577098,285.771739 C68.7037424,285.771739 72.3906663,283.939989 74.962612,281.086957" id="Fill-79" fill="#0D222D" mask="url(#mask-2)"></path>
                    <path d="M102.035971,271.717391 C102.035971,266.545391 106.228851,262.347826 111.405536,262.347826 C116.577536,262.347826 120.775101,266.545391 120.775101,271.717391 C120.775101,276.889391 116.577536,281.086957 111.405536,281.086957 C106.228851,281.086957 102.035971,276.889391 102.035971,271.717391 M121.810438,281.086957 C124.054449,278.599337 125.459884,275.329359 125.459884,271.717391 C125.459884,268.105424 124.054449,264.835446 121.810438,262.347826 C119.468047,259.743087 116.188699,258.056565 112.478351,257.770793 C112.117623,257.74737 111.775634,257.663043 111.405536,257.663043 C110.150014,257.663043 108.955395,257.883228 107.793568,258.187739 C105.132612,258.899826 102.790221,260.356793 100.995949,262.347826 C98.751938,264.835446 97.351188,268.105424 97.351188,271.717391 C97.351188,275.329359 98.751938,278.599337 100.995949,281.086957 C103.572579,283.939989 107.259503,285.771739 111.405536,285.771739 C115.551568,285.771739 119.238492,283.939989 121.810438,281.086957" id="Fill-80" fill="#0D222D" mask="url(#mask-2)"></path>
                    <path d="M184.018261,281.086957 L186.360652,281.086957 L186.360652,192.076087 L184.018261,192.076087 L184.018261,281.086957 Z M191.045435,192.076087 L191.045435,187.391304 L179.333478,187.391304 L179.333478,192.076087 L179.333478,281.086957 L179.333478,285.771739 L191.045435,285.771739 L191.045435,281.086957 L191.045435,192.076087 Z" id="Fill-81" fill="#0D222D" mask="url(#mask-2)"></path>
                    <path d="M147.616563,271.717391 C147.616563,266.545391 151.814128,262.347826 156.986128,262.347826 C162.162813,262.347826 166.355693,266.545391 166.355693,271.717391 C166.355693,276.889391 162.162813,281.086957 156.986128,281.086957 C151.814128,281.086957 147.616563,276.889391 147.616563,271.717391 M167.395715,281.086957 C169.639726,278.599337 171.040476,275.329359 171.040476,271.717391 C171.040476,264.760489 165.971541,259.02163 159.32852,257.901967 C158.5649,257.766109 157.787226,257.663043 156.986128,257.663043 C152.840096,257.663043 149.153172,259.494793 146.581226,262.347826 C144.337215,264.835446 142.93178,268.105424 142.93178,271.717391 C142.93178,275.329359 144.337215,278.599337 146.581226,281.086957 C149.153172,283.939989 152.840096,285.771739 156.986128,285.771739 C161.132161,285.771739 164.819085,283.939989 167.395715,281.086957" id="Fill-82" fill="#0D222D" mask="url(#mask-2)"></path>
                    <polygon id="Fill-83" fill="#0D222D" mask="url(#mask-2)" points="289.427275 117.119565 284.742492 117.119565 284.742492 119.461957 284.742492 163.967391 284.742492 166.309783 288.588699 166.309783 289.427275 166.309783 289.427275 121.804348 405.797275 121.804348 424.536405 187.391304 311.427014 187.391304 307.131068 187.391304 307.131068 192.076087 316.500634 192.076087 401.862058 192.076087 406.54684 192.076087 430.720318 192.076087 409.310862 117.119565"></polygon>
                    <polygon id="Fill-84" fill="#0D222D" mask="url(#mask-2)" points="185.913724 72.5982022 181.228941 72.6263109 181.238311 73.9661587 181.739583 163.965517 181.753637 166.317278 186.43842 166.293854 186.424365 163.965517 185.927778 74.9546478"></polygon>
                </g>
                <g id="noun_502148_cc" fill-rule="nonzero" fill="#A7BBC6">
                    <path d="M382.722403,285.300733 L307.857143,285.300733 L307.857143,210.479218 L382.722403,210.479218 L382.722403,285.300733 Z M312.536222,280.624389 L378.043324,280.624389 L378.043324,215.155562 L312.536222,215.155562 L312.536222,280.624389 Z" id="Shape"></path>
                    <path d="M316.253247,191.599022 L0,191.599022 L30.4269702,163.628362 L285.826277,163.628362 L316.253247,191.599022 Z M11.9835452,186.937245 L304.269702,186.937245 L284.000658,168.290139 L32.2525884,168.290139 L11.9835452,186.937245 Z" id="Shape"></path>
                    <path d="M314.154221,74.8215159 L182.899259,74.8215159 L107.708917,22.7270355 L32.2373141,74.8215159 L2.7987013,74.8215159 L29.8934755,0 L287.059447,0 L314.154221,74.8215159 Z M184.586823,70.1451711 L307.497719,70.1451711 L283.778073,4.67634474 L33.1748495,4.67634474 L9.45520292,70.1451711 L30.7841342,70.1451711 L107.708917,17.0218949 L184.586823,70.1451711 Z" id="Shape"></path>
                    <path d="M137.136364,145.447433 L85.3603896,145.447433 L85.3603896,93.7017115 L137.136364,93.7017115 L137.136364,145.447433 Z M90.0672963,140.743276 L132.429457,140.743276 L132.429457,98.405868 L90.0672963,98.405868 L90.0672963,140.743276 Z" id="Shape"></path>
                    <path d="M90.2581169,145.447433 L62.2711039,145.447433 L62.2711039,93.7017115 L90.2581169,93.7017115 L90.2581169,145.447433 Z M66.9356061,140.743276 L85.5936147,140.743276 L85.5936147,98.405868 L66.9356061,98.405868 L66.9356061,140.743276 Z" id="Shape"></path>
                    <path d="M160.225649,145.447433 L132.238636,145.447433 L132.238636,93.7017115 L160.225649,93.7017115 L160.225649,145.447433 Z M136.903139,140.743276 L155.561147,140.743276 L155.561147,98.405868 L136.903139,98.405868 L136.903139,140.743276 Z" id="Shape"></path>
                    <path d="M136.436688,262.224939 L84.6607143,262.224939 L84.6607143,210.479218 L136.436688,210.479218 L136.436688,262.224939 Z M89.367621,257.520782 L131.729782,257.520782 L131.729782,215.183374 L89.367621,215.183374 L89.367621,257.520782 Z" id="Shape"></path>
                    <path d="M88.8587662,262.224939 L60.8717532,262.224939 L60.8717532,210.479218 L88.8587662,210.479218 L88.8587662,262.224939 Z M65.5362554,257.520782 L84.1942641,257.520782 L84.1942641,215.183374 L65.5362554,215.183374 L65.5362554,257.520782 Z" id="Shape"></path>
                    <path d="M159.525974,262.224939 L131.538961,262.224939 L131.538961,210.479218 L159.525974,210.479218 L159.525974,262.224939 Z M136.203463,257.520782 L154.861472,257.520782 L154.861472,215.183374 L136.203463,215.183374 L136.203463,257.520782 Z" id="Shape"></path>
                    <path d="M262.378247,285.300733 L210.602273,285.300733 L210.602273,210.479218 L262.378247,210.479218 L262.378247,285.300733 Z M215.309179,280.624389 L257.67134,280.624389 L257.67134,215.155562 L215.309179,215.155562 L215.309179,280.624389 Z" id="Shape"></path>
                    <path d="M272.873377,145.447433 L244.886364,145.447433 L244.886364,93.7017115 L272.873377,93.7017115 L272.873377,145.447433 Z M249.550866,140.743276 L268.208874,140.743276 L268.208874,98.405868 L249.550866,98.405868 L249.550866,140.743276 Z" id="Shape"></path>
                    <path d="M249.784091,145.447433 L221.797078,145.447433 L221.797078,93.7017115 L249.784091,93.7017115 L249.784091,145.447433 Z M226.46158,140.743276 L245.119589,140.743276 L245.119589,98.405868 L226.46158,98.405868 L226.46158,140.743276 Z" id="Shape"></path>
                    <path d="M225.99513,145.447433 L198.008117,145.447433 L198.008117,93.7017115 L225.99513,93.7017115 L225.99513,145.447433 Z M202.672619,140.743276 L221.330628,140.743276 L221.330628,98.405868 L202.672619,98.405868 L202.672619,140.743276 Z" id="Shape"></path>
                    <rect id="Rectangle-path" x="333.74513" y="257.330073" width="23.0892857" height="4.89486553"></rect>
                    <rect id="Rectangle-path" x="109.149351" y="95.799511" width="4.89772727" height="46.8508557"></rect>
                    <rect id="Rectangle-path" x="88.1590909" y="116.777506" width="46.8782468" height="4.89486553"></rect>
                    <rect id="Rectangle-path" x="107.75" y="213.276284" width="4.89772727" height="46.8508557"></rect>
                    <rect id="Rectangle-path" x="86.7597403" y="234.254279" width="46.8782468" height="4.89486553"></rect>
                    <rect id="Rectangle-path" x="223.896104" y="116.777506" width="23.0892857" height="4.89486553"></rect>
                    <polygon id="Shape" points="406.511364 285.300733 263.777597 285.300733 263.777597 280.627587 401.831568 280.627587 401.831568 189.501222 406.511364 189.501222"></polygon>
                    <rect id="Rectangle-path" x="27.2873377" y="72.7237164" width="4.89772727" height="93.7017115"></rect>
                    <rect id="Rectangle-path" x="284.767857" y="72.7237164" width="4.89772727" height="46.8508557"></rect>
                    <rect id="Rectangle-path" x="6.29707792" y="281.105134" width="257.480519" height="4.89486553"></rect>
                    <rect id="Rectangle-path" x="385.521104" y="281.105134" width="41.9805195" height="4.89486553"></rect>
                    <path d="M39.1818182,286 L27.2873377,286 L27.2873377,187.403423 L39.1818182,187.403423 L39.1818182,286 Z M31.9023961,281.304925 L34.424026,281.304925 L34.424026,192.098498 L32.0451299,192.098498 L32.0451299,281.304925 L31.9023961,281.304925 Z" id="Shape"></path>
                    <path d="M289.665584,286 L277.771104,286 L277.771104,187.403423 L289.665584,187.403423 L289.665584,286 Z M282.528896,281.304925 L284.907792,281.304925 L284.907792,192.098498 L282.528896,192.098498 L282.528896,281.304925 Z" id="Shape"></path>
                    <path d="M64.3701299,285.300733 C56.6417296,285.300733 50.3766234,279.039288 50.3766234,271.315403 C50.3766234,263.591519 56.6417296,257.330073 64.3701299,257.330073 C72.0985301,257.330073 78.3636364,263.591519 78.3636364,271.315403 C78.3636364,279.039288 72.0985301,285.300733 64.3701299,285.300733 Z M64.3701299,261.99185 C59.217863,261.99185 55.0411255,266.166147 55.0411255,271.315403 C55.0411255,276.46466 59.217863,280.638957 64.3701299,280.638957 C69.5223967,280.638957 73.6991342,276.46466 73.6991342,271.315403 C73.6991342,266.166147 69.5223967,261.99185 64.3701299,261.99185 Z" id="Shape"></path>
                    <path d="M111.248377,285.300733 C103.519976,285.300733 97.2548701,279.039288 97.2548701,271.315403 C97.2548701,263.591519 103.519976,257.330073 111.248377,257.330073 C118.976777,257.330073 125.241883,263.591519 125.241883,271.315403 C125.241883,279.039288 118.976777,285.300733 111.248377,285.300733 Z M111.248377,261.99185 C106.09611,261.99185 101.919372,266.166147 101.919372,271.315403 C101.919372,276.46466 106.09611,280.638957 111.248377,280.638957 C116.400643,280.638957 120.577381,276.46466 120.577381,271.315403 C120.577381,266.166147 116.400643,261.99185 111.248377,261.99185 Z" id="Shape"></path>
                    <path d="M191.011364,286 L179.116883,286 L179.116883,187.403423 L191.011364,187.403423 L191.011364,286 Z M183.874675,281.304925 L186.253571,281.304925 L186.253571,192.098498 L183.874675,192.098498 L183.874675,281.304925 Z" id="Shape"></path>
                    <path d="M156.727273,285.300733 C148.998872,285.300733 142.733766,279.039288 142.733766,271.315403 C142.733766,263.591519 148.998872,257.330073 156.727273,257.330073 C164.455673,257.330073 170.720779,263.591519 170.720779,271.315403 C170.720779,279.039288 164.455673,285.300733 156.727273,285.300733 Z M156.727273,261.99185 C151.575006,261.99185 147.398268,266.166147 147.398268,271.315403 C147.398268,276.46466 151.575006,280.638957 156.727273,280.638957 C161.87954,280.638957 166.056277,276.46466 166.056277,271.315403 C166.056277,266.166147 161.87954,261.99185 156.727273,261.99185 Z" id="Shape"></path>
                    <polygon id="Shape" points="431 191.599022 307.200131 191.599022 307.200131 186.922677 424.805314 186.922677 406.033537 121.453851 289.460801 121.453851 289.460801 165.879126 284.767857 165.879126 284.767857 116.777506 409.553245 116.777506"></polygon>
                    <rect id="Rectangle-path" transform="translate(183.664773, 119.574572) rotate(-0.320000) translate(-183.664773, -119.574572) " x="181.215909" y="72.7237164" width="4.89772727" height="93.7017115"></rect>
                </g>
            </g>
            <path d="M308.851562,315 L308.851562,297.832031 L312.027344,297.832031 L312.027344,304.851562 L319.785156,304.851562 L319.785156,297.832031 L322.960938,297.832031 L322.960938,315 L319.785156,315 L319.785156,307.359375 L312.027344,307.359375 L312.027344,315 L308.851562,315 Z M329.980469,315 L329.980469,300.375 L324.976562,300.375 L324.976562,297.832031 L338.148438,297.832031 L338.148438,300.375 L333.167969,300.375 L333.167969,315 L329.980469,315 Z M340,315 L340,297.832031 L343.75,297.832031 L348.941406,310.230469 L354.167969,297.832031 L357.871094,297.832031 L357.871094,315 L354.941406,315 L354.941406,306.515625 L355.035156,301.652344 L354.601562,302.941406 L350.207031,313.828125 L347.488281,313.828125 L343.1875,302.882812 L342.753906,301.59375 L342.859375,306.5625 L342.859375,315 L340,315 Z M361.574219,315 L361.574219,297.832031 L364.75,297.832031 L364.75,312.46875 L371.933594,312.46875 L371.839844,315 L361.574219,315 Z" id="HTML" fill="#FFFFFF"></path>
            <path d="M295.425781,669.617188 C296.929695,670.359379 298.541007,670.730469 300.259766,670.730469 C302.375662,670.730469 303.433594,669.766937 303.433594,667.839844 C303.433594,667.214841 303.265952,666.708661 302.930664,666.321289 C302.595376,665.933917 301.98503,665.629558 301.099609,665.408203 L298.228516,664.685547 C296.034494,664.132159 294.9375,662.960295 294.9375,661.169922 C294.9375,659.796217 295.4095,658.775719 296.353516,658.108398 C297.297531,657.441077 298.602856,657.107422 300.269531,657.107422 C301.141931,657.107422 301.958981,657.201822 302.720703,657.390625 C303.482426,657.579428 304.12044,657.833332 304.634766,658.152344 L304.146484,659.529297 C303.710284,659.28841 303.132491,659.073569 302.413086,658.884766 C301.693681,658.695963 300.96615,658.601562 300.230469,658.601562 C297.873686,658.601562 296.695312,659.418612 296.695312,661.052734 C296.695312,661.606123 296.875975,662.050454 297.237305,662.385742 C297.598635,662.72103 298.140621,662.976562 298.863281,663.152344 L301.607422,663.816406 C302.779303,664.096356 303.667966,664.543942 304.273438,665.15918 C304.878909,665.774417 305.181641,666.648432 305.181641,667.78125 C305.181641,669.252612 304.730799,670.360999 303.829102,671.106445 C302.927404,671.851892 301.701831,672.224609 300.152344,672.224609 C298.993484,672.224609 297.963221,672.105795 297.061523,671.868164 C296.159826,671.630533 295.445315,671.34896 294.917969,671.023438 L295.425781,669.617188 Z M311.596875,672.195312 C310.542182,672.195312 309.793492,671.938154 309.350781,671.423828 C308.908071,670.909503 308.673698,670.079433 308.647656,668.933594 L308.647656,662.498047 L307.055859,662.498047 L307.124219,661.423828 L308.637891,661.287109 L309.194531,658.835938 L310.26875,658.796875 L310.26875,661.287109 L313.247266,661.287109 L313.247266,662.498047 L310.26875,662.498047 L310.26875,668.640625 C310.26875,669.454431 310.392447,670.027342 310.639844,670.359375 C310.887241,670.691408 311.310414,670.857422 311.909375,670.857422 C312.12422,670.857422 312.58971,670.805339 313.305859,670.701172 L313.374219,671.990234 C312.599475,672.126954 312.007033,672.195312 311.596875,672.195312 Z M320.717188,661.189453 C321.010158,661.189453 321.277082,661.208984 321.517969,661.248047 L321.459375,662.751953 C321.159894,662.69987 320.89948,662.673828 320.678125,662.673828 C319.766662,662.673828 319.02611,662.991208 318.456445,663.625977 C317.886781,664.260745 317.601953,665.04687 317.601953,665.984375 L317.601953,672 L315.971094,672 C315.964583,665.424446 315.961328,661.853518 315.961328,661.287109 L317.31875,661.287109 L317.475,663.210938 C317.846096,662.605466 318.318096,662.117189 318.891016,661.746094 C319.463935,661.374998 320.072653,661.189453 320.717188,661.189453 Z M323.626563,668.425781 L323.626563,661.287109 L325.267188,661.287109 L325.267188,668.445312 C325.267188,668.914065 325.333919,669.311196 325.467383,669.636719 C325.600847,669.962241 325.792902,670.214517 326.043555,670.393555 C326.294207,670.572592 326.577407,670.701171 326.893164,670.779297 C327.208921,670.857422 327.571873,670.896484 327.982031,670.896484 C328.82839,670.896484 329.487563,670.710939 329.95957,670.339844 C330.431578,669.968748 330.667578,669.337244 330.667578,668.445312 L330.667578,661.287109 L332.308203,661.287109 L332.308203,668.425781 C332.308203,668.972659 332.230079,669.464191 332.073828,669.900391 C331.917577,670.336591 331.707619,670.699543 331.443945,670.989258 C331.180272,671.278973 330.862893,671.518228 330.491797,671.707031 C330.120701,671.895834 329.728453,672.032552 329.315039,672.117188 C328.901626,672.201823 328.457294,672.244141 327.982031,672.244141 C327.513279,672.244141 327.070575,672.201823 326.653906,672.117188 C326.237238,672.032552 325.841734,671.894207 325.467383,671.702148 C325.093032,671.51009 324.77077,671.269207 324.500586,670.979492 C324.230402,670.689777 324.017188,670.326825 323.860938,669.890625 C323.704687,669.454425 323.626563,668.966149 323.626563,668.425781 Z M340.071094,672.224609 C338.495565,672.224609 337.263481,671.713547 336.374805,670.691406 C335.486128,669.669266 335.041797,668.331388 335.041797,666.677734 C335.048307,665.011059 335.502404,663.658534 336.404102,662.620117 C337.305799,661.581701 338.541138,661.0625 340.110156,661.0625 C340.663544,661.0625 341.199021,661.130859 341.716602,661.267578 C342.234182,661.404298 342.642707,661.583332 342.942188,661.804688 L342.492969,663.074219 C341.731246,662.66406 340.927218,662.458984 340.080859,662.458984 C339.045698,662.458984 338.227021,662.836585 337.624805,663.591797 C337.022588,664.347009 336.721484,665.3789 336.721484,666.6875 C336.721484,667.963548 337.019333,668.97428 337.615039,669.719727 C338.210745,670.465173 339.035932,670.837891 340.090625,670.837891 C340.930473,670.837891 341.789839,670.610028 342.66875,670.154297 L342.873828,671.453125 C342.164189,671.96745 341.229954,672.224609 340.071094,672.224609 Z M349.210938,672.195312 C348.156245,672.195312 347.407554,671.938154 346.964844,671.423828 C346.522133,670.909503 346.287761,670.079433 346.261719,668.933594 L346.261719,662.498047 L344.669922,662.498047 L344.738281,661.423828 L346.251953,661.287109 L346.808594,658.835938 L347.882813,658.796875 L347.882813,661.287109 L350.861328,661.287109 L350.861328,662.498047 L347.882813,662.498047 L347.882813,668.640625 C347.882813,669.454431 348.006509,670.027342 348.253906,670.359375 C348.501303,670.691408 348.924476,670.857422 349.523438,670.857422 C349.738282,670.857422 350.203773,670.805339 350.919922,670.701172 L350.988281,671.990234 C350.213538,672.126954 349.621096,672.195312 349.210938,672.195312 Z M353.155469,668.425781 L353.155469,661.287109 L354.796094,661.287109 L354.796094,668.445312 C354.796094,668.914065 354.862825,669.311196 354.996289,669.636719 C355.129753,669.962241 355.321809,670.214517 355.572461,670.393555 C355.823113,670.572592 356.106314,670.701171 356.42207,670.779297 C356.737827,670.857422 357.100779,670.896484 357.510938,670.896484 C358.357296,670.896484 359.016469,670.710939 359.488477,670.339844 C359.960484,669.968748 360.196484,669.337244 360.196484,668.445312 L360.196484,661.287109 L361.837109,661.287109 L361.837109,668.425781 C361.837109,668.972659 361.758985,669.464191 361.602734,669.900391 C361.446484,670.336591 361.236525,670.699543 360.972852,670.989258 C360.709178,671.278973 360.391799,671.518228 360.020703,671.707031 C359.649608,671.895834 359.257359,672.032552 358.843945,672.117188 C358.430532,672.201823 357.9862,672.244141 357.510938,672.244141 C357.042185,672.244141 356.599481,672.201823 356.182813,672.117188 C355.766144,672.032552 355.37064,671.894207 354.996289,671.702148 C354.621938,671.51009 354.299676,671.269207 354.029492,670.979492 C353.759309,670.689777 353.546095,670.326825 353.389844,669.890625 C353.233593,669.454425 353.155469,668.966149 353.155469,668.425781 Z M369.873438,661.189453 C370.166408,661.189453 370.433332,661.208984 370.674219,661.248047 L370.615625,662.751953 C370.316144,662.69987 370.05573,662.673828 369.834375,662.673828 C368.922912,662.673828 368.18236,662.991208 367.612695,663.625977 C367.043031,664.260745 366.758203,665.04687 366.758203,665.984375 L366.758203,672 L365.127344,672 C365.120833,665.424446 365.117578,661.853518 365.117578,661.287109 L366.475,661.287109 L366.63125,663.210938 C367.002346,662.605466 367.474346,662.117189 368.047266,661.746094 C368.620185,661.374998 369.228903,661.189453 369.873438,661.189453 Z M379.130469,663.269531 C378.655206,662.696612 378.000916,662.410156 377.167578,662.410156 C376.334241,662.410156 375.653909,662.70475 375.126563,663.293945 C374.599216,663.883141 374.289975,664.688797 374.198828,665.710938 L379.853125,665.710938 C379.853125,664.649734 379.612242,663.83594 379.130469,663.269531 Z M377.489844,672.224609 C375.933846,672.224609 374.708273,671.729823 373.813086,670.740234 C372.917899,669.750646 372.470313,668.396493 372.470313,666.677734 C372.470313,665.01757 372.903251,663.671555 373.769141,662.639648 C374.63503,661.607742 375.774342,661.082031 377.187109,661.0625 C378.515241,661.0625 379.56829,661.516597 380.346289,662.424805 C381.124288,663.333012 381.513281,664.545565 381.513281,666.0625 C381.513281,666.140625 381.511654,666.283853 381.508399,666.492188 C381.505143,666.700522 381.503516,666.85026 381.503516,666.941406 L374.15,666.941406 C374.169531,668.15886 374.483656,669.107744 375.092383,669.788086 C375.70111,670.468428 376.519787,670.808594 377.548438,670.808594 C378.681256,670.808594 379.817312,670.509118 380.956641,669.910156 L381.210547,671.228516 C380.123302,671.892581 378.88308,672.224609 377.489844,672.224609 Z" id="Structure" fill="#FFFFFF"></path>
            <path d="M863.339844,315.246094 C860.832019,315.246094 858.843757,314.457039 857.375,312.878906 C855.906243,311.300773 855.171875,309.121108 855.171875,306.339844 C855.171875,303.699206 855.939445,301.580086 857.474609,299.982422 C859.009773,298.384758 861.019519,297.585938 863.503906,297.585938 C865.511729,297.585938 867.210931,298.050777 868.601562,298.980469 L867.605469,301.382812 C866.269525,300.562496 864.925788,300.152344 863.574219,300.152344 C861.996086,300.152344 860.748051,300.720697 859.830078,301.857422 C858.912105,302.994146 858.453125,304.519522 858.453125,306.433594 C858.453125,308.417979 858.89648,309.95312 859.783203,311.039062 C860.669926,312.125005 861.933586,312.667969 863.574219,312.667969 C865.011726,312.667969 866.437493,312.308597 867.851562,311.589844 L868.273438,314.074219 C866.960931,314.855473 865.316416,315.246094 863.339844,315.246094 Z M875.914062,315.234375 C873.84374,315.234375 871.988289,314.757817 870.347656,313.804688 L871.121094,311.285156 C871.855472,311.691408 872.654293,312.01953 873.517578,312.269531 C874.380864,312.519533 875.222652,312.644531 876.042969,312.644531 C877.050786,312.644531 877.812497,312.427737 878.328125,311.994141 C878.843753,311.560545 879.101562,310.937504 879.101562,310.125 C879.101562,309.04687 878.38282,308.300783 876.945312,307.886719 C876.843749,307.855469 876.558596,307.771485 876.089844,307.634766 C875.621091,307.498046 875.181643,307.365235 874.771484,307.236328 C874.361326,307.107421 874.066407,307.007813 873.886719,306.9375 C871.58202,306.124996 870.429688,304.609386 870.429688,302.390625 C870.429688,300.83593 870.982416,299.636723 872.087891,298.792969 C873.193365,297.949215 874.660147,297.527344 876.488281,297.527344 C878.558604,297.527344 880.343742,297.953121 881.84375,298.804688 L880.882812,301.125 C879.351555,300.437497 877.929694,300.09375 876.617188,300.09375 C875.67187,300.09375 874.958987,300.259764 874.478516,300.591797 C873.998044,300.92383 873.742188,301.476559 873.710938,302.25 C873.710938,303.20313 874.183589,303.824217 875.128906,304.113281 C875.316407,304.183594 875.77734,304.335936 876.511719,304.570312 C877.246097,304.804689 877.722655,304.957031 877.941406,305.027344 C879.511727,305.542971 880.634762,306.18359 881.310547,306.949219 C881.986332,307.714848 882.324219,308.781243 882.324219,310.148438 C882.324219,311.781258 881.7461,313.037105 880.589844,313.916016 C879.433588,314.794926 877.87501,315.234375 875.914062,315.234375 Z M889.847656,315.234375 C887.777333,315.234375 885.921883,314.757817 884.28125,313.804688 L885.054688,311.285156 C885.789066,311.691408 886.587886,312.01953 887.451172,312.269531 C888.314457,312.519533 889.156246,312.644531 889.976562,312.644531 C890.98438,312.644531 891.746091,312.427737 892.261719,311.994141 C892.777346,311.560545 893.035156,310.937504 893.035156,310.125 C893.035156,309.04687 892.316413,308.300783 890.878906,307.886719 C890.777343,307.855469 890.49219,307.771485 890.023438,307.634766 C889.554685,307.498046 889.115236,307.365235 888.705078,307.236328 C888.29492,307.107421 888.000001,307.007813 887.820312,306.9375 C885.515613,306.124996 884.363281,304.609386 884.363281,302.390625 C884.363281,300.83593 884.91601,299.636723 886.021484,298.792969 C887.126959,297.949215 888.593741,297.527344 890.421875,297.527344 C892.492198,297.527344 894.277336,297.953121 895.777344,298.804688 L894.816406,301.125 C893.285149,300.437497 891.863288,300.09375 890.550781,300.09375 C889.605464,300.09375 888.892581,300.259764 888.412109,300.591797 C887.931638,300.92383 887.675781,301.476559 887.644531,302.25 C887.644531,303.20313 888.117183,303.824217 889.0625,304.113281 C889.250001,304.183594 889.710934,304.335936 890.445312,304.570312 C891.179691,304.804689 891.656249,304.957031 891.875,305.027344 C893.44532,305.542971 894.568356,306.18359 895.244141,306.949219 C895.919925,307.714848 896.257812,308.781243 896.257812,310.148438 C896.257812,311.781258 895.679693,313.037105 894.523438,313.916016 C893.367182,314.794926 891.808604,315.234375 889.847656,315.234375 Z" id="CSS" fill="#FFFFFF"></path>
            <path d="M822.154297,672 L820.425781,672 L820.425781,657.390625 L825.132812,657.390625 C825.848962,657.390625 826.496742,657.465494 827.076172,657.615234 C827.655602,657.764975 828.16992,657.992837 828.619141,658.298828 C829.068362,658.604819 829.416665,659.014971 829.664062,659.529297 C829.91146,660.043622 830.035156,660.642575 830.035156,661.326172 C830.035156,661.892581 829.983073,662.398761 829.878906,662.844727 C829.774739,663.290692 829.595704,663.708982 829.341797,664.099609 C829.087889,664.490236 828.755861,664.814126 828.345703,665.071289 C827.935545,665.328452 827.409834,665.530273 826.768555,665.676758 C826.127275,665.823243 825.383468,665.896484 824.537109,665.896484 C823.866533,665.896484 823.07227,665.854167 822.154297,665.769531 L822.154297,672 Z M824.703125,664.402344 C825.341149,664.402344 825.888019,664.340495 826.34375,664.216797 C826.799481,664.093098 827.149413,663.940105 827.393555,663.757812 C827.637697,663.57552 827.829752,663.337892 827.969727,663.044922 C828.109701,662.751952 828.195963,662.4834 828.228516,662.239258 C828.261068,661.995116 828.277344,661.700523 828.277344,661.355469 C828.277344,660.528642 827.999026,659.919924 827.442383,659.529297 C826.885739,659.13867 826.128911,658.943359 825.171875,658.943359 L822.154297,658.943359 L822.154297,664.382812 C823.410814,664.395833 824.260414,664.402344 824.703125,664.402344 Z M836.519531,661.189453 C836.812501,661.189453 837.079426,661.208984 837.320312,661.248047 L837.261719,662.751953 C836.962238,662.69987 836.701824,662.673828 836.480469,662.673828 C835.569006,662.673828 834.828453,662.991208 834.258789,663.625977 C833.689125,664.260745 833.404297,665.04687 833.404297,665.984375 L833.404297,672 L831.773438,672 C831.766927,665.424446 831.763672,661.853518 831.763672,661.287109 L833.121094,661.287109 L833.277344,663.210938 C833.648439,662.605466 834.12044,662.117189 834.693359,661.746094 C835.266279,661.374998 835.874997,661.189453 836.519531,661.189453 Z M844.976562,663.269531 C844.5013,662.696612 843.847009,662.410156 843.013672,662.410156 C842.180334,662.410156 841.500003,662.70475 840.972656,663.293945 C840.44531,663.883141 840.136068,664.688797 840.044922,665.710938 L845.699219,665.710938 C845.699219,664.649734 845.458336,663.83594 844.976562,663.269531 Z M843.335938,672.224609 C841.77994,672.224609 840.554366,671.729823 839.65918,670.740234 C838.763993,669.750646 838.316406,668.396493 838.316406,666.677734 C838.316406,665.01757 838.749345,663.671555 839.615234,662.639648 C840.481124,661.607742 841.620436,661.082031 843.033203,661.0625 C844.361335,661.0625 845.414384,661.516597 846.192383,662.424805 C846.970381,663.333012 847.359375,664.545565 847.359375,666.0625 C847.359375,666.140625 847.357747,666.283853 847.354492,666.492188 C847.351237,666.700522 847.349609,666.85026 847.349609,666.941406 L839.996094,666.941406 C840.015625,668.15886 840.32975,669.107744 840.938477,669.788086 C841.547204,670.468428 842.36588,670.808594 843.394531,670.808594 C844.527349,670.808594 845.663406,670.509118 846.802734,669.910156 L847.056641,671.228516 C845.969396,671.892581 844.729174,672.224609 843.335938,672.224609 Z M852.818359,672.224609 C852.089189,672.224609 851.416995,672.146485 850.801758,671.990234 C850.18652,671.833984 849.686851,671.632163 849.302734,671.384766 L849.507812,670.007812 C850.595058,670.587242 851.662755,670.876953 852.710938,670.876953 C854.299487,670.876953 855.116536,670.317063 855.162109,669.197266 C855.162109,668.722003 854.99284,668.347658 854.654297,668.074219 C854.315754,667.80078 853.651698,667.494793 852.662109,667.15625 L851.851562,666.873047 C850.914058,666.560545 850.245119,666.173179 849.844727,665.710938 C849.444334,665.248696 849.240885,664.672529 849.234375,663.982422 C849.234375,663.142574 849.571286,662.445966 850.245117,661.892578 C850.918949,661.33919 851.841791,661.0625 853.013672,661.0625 C854.224615,661.0625 855.32812,661.296873 856.324219,661.765625 L855.845703,663.015625 C854.836583,662.598956 853.892583,662.390625 853.013672,662.390625 C852.330075,662.390625 851.794598,662.525715 851.407227,662.795898 C851.019855,663.066082 850.826172,663.44531 850.826172,663.933594 C850.826172,664.350262 850.966144,664.66927 851.246094,664.890625 C851.526043,665.11198 852.085933,665.365884 852.925781,665.652344 C853.140626,665.730469 853.410806,665.821614 853.736328,665.925781 C854.817063,666.277346 855.582029,666.69238 856.03125,667.170898 C856.480471,667.649416 856.705078,668.295569 856.705078,669.109375 C856.692057,670.098963 856.337243,670.865557 855.640625,671.40918 C854.944007,671.952802 854.003261,672.224609 852.818359,672.224609 Z M865.103516,663.269531 C864.628253,662.696612 863.973962,662.410156 863.140625,662.410156 C862.307288,662.410156 861.626956,662.70475 861.099609,663.293945 C860.572263,663.883141 860.263021,664.688797 860.171875,665.710938 L865.826172,665.710938 C865.826172,664.649734 865.585289,663.83594 865.103516,663.269531 Z M863.462891,672.224609 C861.906893,672.224609 860.68132,671.729823 859.786133,670.740234 C858.890946,669.750646 858.443359,668.396493 858.443359,666.677734 C858.443359,665.01757 858.876298,663.671555 859.742188,662.639648 C860.608077,661.607742 861.747389,661.082031 863.160156,661.0625 C864.488288,661.0625 865.541337,661.516597 866.319336,662.424805 C867.097335,663.333012 867.486328,664.545565 867.486328,666.0625 C867.486328,666.140625 867.484701,666.283853 867.481445,666.492188 C867.47819,666.700522 867.476562,666.85026 867.476562,666.941406 L860.123047,666.941406 C860.142578,668.15886 860.456703,669.107744 861.06543,669.788086 C861.674157,670.468428 862.492833,670.808594 863.521484,670.808594 C864.654303,670.808594 865.790359,670.509118 866.929688,669.910156 L867.183594,671.228516 C866.096349,671.892581 864.856127,672.224609 863.462891,672.224609 Z M869.751953,672 L869.751953,661.287109 L871.119141,661.287109 L871.324219,662.820312 C871.747398,662.292966 872.276364,661.868166 872.911133,661.545898 C873.545902,661.223631 874.231116,661.0625 874.966797,661.0625 C876.203782,661.0625 877.118487,661.409176 877.710938,662.102539 C878.303388,662.795902 878.599609,663.861972 878.599609,665.300781 L878.599609,672 L876.96875,672 C876.96875,667.703104 876.965495,665.401694 876.958984,665.095703 C876.932943,664.18424 876.749025,663.516929 876.407227,663.09375 C876.065428,662.670571 875.494145,662.458984 874.693359,662.458984 C873.853511,662.458984 873.153649,662.660805 872.59375,663.064453 C872.033851,663.468101 871.669272,663.992184 871.5,664.636719 C871.434896,665.072919 871.402344,665.574216 871.402344,666.140625 L871.402344,672 L869.751953,672 Z M884.732422,672.195312 C883.677729,672.195312 882.929039,671.938154 882.486328,671.423828 C882.043618,670.909503 881.809245,670.079433 881.783203,668.933594 L881.783203,662.498047 L880.191406,662.498047 L880.259766,661.423828 L881.773438,661.287109 L882.330078,658.835938 L883.404297,658.796875 L883.404297,661.287109 L886.382812,661.287109 L886.382812,662.498047 L883.404297,662.498047 L883.404297,668.640625 C883.404297,669.454431 883.527994,670.027342 883.775391,670.359375 C884.022788,670.691408 884.445961,670.857422 885.044922,670.857422 C885.259767,670.857422 885.725257,670.805339 886.441406,670.701172 L886.509766,671.990234 C885.735022,672.126954 885.14258,672.195312 884.732422,672.195312 Z M891.314453,670.90625 C892.089197,670.90625 892.771156,670.693036 893.360352,670.266602 C893.949547,669.840167 894.328775,669.265629 894.498047,668.542969 L894.498047,666.736328 C894.465495,666.736328 894.268556,666.752604 893.907227,666.785156 C893.545897,666.817708 893.309896,666.83724 893.199219,666.84375 C891.786451,666.967449 890.801761,667.198566 890.245117,667.537109 C889.688474,667.875653 889.410156,668.419267 889.410156,669.167969 C889.410156,669.740888 889.579425,670.173827 889.917969,670.466797 C890.256512,670.759767 890.722002,670.90625 891.314453,670.90625 Z M894.859375,672 C894.761718,671.583331 894.667318,671.134117 894.576172,670.652344 C893.983721,671.244795 893.427086,671.654947 892.90625,671.882812 C892.385414,672.110678 891.773441,672.224609 891.070312,672.224609 C890.067703,672.224609 889.262047,671.962568 888.65332,671.438477 C888.044593,670.914385 887.740234,670.160812 887.740234,669.177734 C887.740234,668.083979 888.155269,667.27344 888.985352,666.746094 C889.815434,666.218747 891.011711,665.889975 892.574219,665.759766 C892.789064,665.740234 893.112954,665.712565 893.545898,665.676758 C893.978843,665.64095 894.302733,665.613281 894.517578,665.59375 L894.517578,664.646484 C894.517578,663.891272 894.341799,663.331382 893.990234,662.966797 C893.63867,662.602212 893.08529,662.419922 892.330078,662.419922 C891.275385,662.419922 890.210943,662.680336 889.136719,663.201172 C889.104167,663.123046 889.019532,662.896812 888.882812,662.522461 C888.746093,662.14811 888.674479,661.954427 888.667969,661.941406 C889.143232,661.674478 889.708005,661.461264 890.362305,661.301758 C891.016605,661.142252 891.682288,661.0625 892.359375,661.0625 C893.694017,661.0625 894.655922,661.353838 895.245117,661.936523 C895.834313,662.519209 896.128906,663.51041 896.128906,664.910156 L896.128906,672 L894.859375,672 Z M902.359375,672.195312 C901.304682,672.195312 900.555992,671.938154 900.113281,671.423828 C899.670571,670.909503 899.436198,670.079433 899.410156,668.933594 L899.410156,662.498047 L897.818359,662.498047 L897.886719,661.423828 L899.400391,661.287109 L899.957031,658.835938 L901.03125,658.796875 L901.03125,661.287109 L904.009766,661.287109 L904.009766,662.498047 L901.03125,662.498047 L901.03125,668.640625 C901.03125,669.454431 901.154947,670.027342 901.402344,670.359375 C901.649741,670.691408 902.072914,670.857422 902.671875,670.857422 C902.88672,670.857422 903.35221,670.805339 904.068359,670.701172 L904.136719,671.990234 C903.361975,672.126954 902.769533,672.195312 902.359375,672.195312 Z M907.798828,661.287109 L907.798828,672 L906.158203,672 L906.158203,661.287109 L907.798828,661.287109 Z M907.798828,657.390625 L907.798828,659.324219 L906.158203,659.324219 L906.158203,657.390625 L907.798828,657.390625 Z M912.056641,666.667969 C912.056641,667.937506 912.338213,668.954749 912.901367,669.719727 C913.464521,670.484704 914.286453,670.867188 915.367188,670.867188 C916.434901,670.867188 917.240557,670.486332 917.78418,669.724609 C918.327802,668.962887 918.599609,667.937506 918.599609,666.648438 C918.599609,665.339837 918.331057,664.309574 917.793945,663.557617 C917.256833,662.80566 916.438157,662.429688 915.337891,662.429688 C914.270177,662.429688 913.456383,662.813798 912.896484,663.582031 C912.336586,664.350264 912.056641,665.3789 912.056641,666.667969 Z M920.289062,666.638672 C920.289062,668.298836 919.846359,669.644852 918.960938,670.676758 C918.075516,671.708664 916.85157,672.224609 915.289062,672.224609 C913.785149,672.224609 912.588872,671.703781 911.700195,670.662109 C910.811519,669.620437 910.367188,668.28256 910.367188,666.648438 C910.367188,664.981762 910.813147,663.63412 911.705078,662.605469 C912.59701,661.576818 913.820956,661.0625 915.376953,661.0625 C916.906909,661.0625 918.108069,661.578445 918.980469,662.610352 C919.852869,663.642258 920.289062,664.985018 920.289062,666.638672 Z M922.59375,672 L922.59375,661.287109 L923.960938,661.287109 L924.166016,662.820312 C924.589195,662.292966 925.118161,661.868166 925.75293,661.545898 C926.387698,661.223631 927.072913,661.0625 927.808594,661.0625 C929.045579,661.0625 929.960283,661.409176 930.552734,662.102539 C931.145185,662.795902 931.441406,663.861972 931.441406,665.300781 L931.441406,672 L929.810547,672 C929.810547,667.703104 929.807292,665.401694 929.800781,665.095703 C929.774739,664.18424 929.590822,663.516929 929.249023,663.09375 C928.907225,662.670571 928.335942,662.458984 927.535156,662.458984 C926.695308,662.458984 925.995446,662.660805 925.435547,663.064453 C924.875648,663.468101 924.511069,663.992184 924.341797,664.636719 C924.276692,665.072919 924.244141,665.574216 924.244141,666.140625 L924.244141,672 L922.59375,672 Z" id="Presentation" fill="#FFFFFF"></path>
        </g>
    </g>
</svg>