<?xml version="1.0" encoding="utf-8"?>
<!-- Generator: Adobe Illustrator 23.0.3, SVG Export Plug-In . SVG Version: 6.00 Build 0)  -->
<svg version="1.1" id="Layer_1" xmlns="http://www.w3.org/2000/svg" xmlns:xlink="http://www.w3.org/1999/xlink" x="0px" y="0px"
	 viewBox="0 0 1214 941" style="enable-background:new 0 0 1214 941;" xml:space="preserve">
<style type="text/css">
	.st0{fill-rule:evenodd;clip-rule:evenodd;fill:#0F1931;fill-opacity:0.3;}
	.st1{fill-rule:evenodd;clip-rule:evenodd;}
	.st2{fill:#4C7EF3;stroke:#4C7EF3;stroke-width:3;}
	.st3{fill-rule:evenodd;clip-rule:evenodd;fill:#4C7EF3;fill-opacity:0.3;stroke:#000000;stroke-width:3;stroke-linejoin:round;}
	.st4{fill-rule:evenodd;clip-rule:evenodd;fill:#4C7EF3;stroke:#000000;stroke-width:3;stroke-linejoin:round;}
	.st5{fill-rule:evenodd;clip-rule:evenodd;fill:#4C7EF3;fill-opacity:0.3;stroke:#4C7EF3;stroke-miterlimit:10;}
	.st6{fill-rule:evenodd;clip-rule:evenodd;fill:#4C7EF3;stroke:#4C7EF3;stroke-width:3;}
	.st7{fill-rule:evenodd;clip-rule:evenodd;fill:#4C7EF3;fill-opacity:0.3;stroke:#4C7EF3;stroke-width:3;}
	.st8{fill:none;stroke:#0D1933;stroke-width:3;}
	.st9{fill-rule:evenodd;clip-rule:evenodd;fill:#4C7EF3;stroke:#FFFFFF;stroke-width:3;}
	.st10{fill:none;stroke:#FFFFFF;stroke-width:3;}
	.st11{fill-rule:evenodd;clip-rule:evenodd;fill:#FFC107;}
	.st12{fill-rule:evenodd;clip-rule:evenodd;fill:#FFFFFF;}
</style>
<g>
	<g id="Group" transform="translate(103.000000, 174.000000)">
		<g id="Group-28">
			<g id="Fill-1">
				<g>
					<path id="path-1" class="st0" d="M921.3,198c-1.1,0-1.7,1.1-2.6,2.1c-1.3,1.4-2.8,2-4.5,2.8c-1.7,0.7-2.9,1.7-4.7,1.9
						c-1.6,0.2-2.7,0-4.2,0.7c-2.7,1.1-5.8,3-7.3,5.5c-1.2,1.9-3.7,5.7-1.5,5.7c0.5,0,1.1-0.2,2.1-0.5l-1.2,0.8c0.1,0,0.2,0,0.3,0
						c2.9,0,5.4-3.1,7.6-4.6c2.2-1.4,4.6-1.8,7-2.7c2.6-0.9,5.2-1.5,5.7-4.4c0.3-1.5,0.4-2,1.3-3.2c0.9-1.2,2.8-2.3,3-3.8
						C921.9,198.1,921.5,198,921.3,198 M923.2,202L923.2,202L923.2,202"/>
				</g>
				<g>
					<path class="st1" d="M921.3,198c-1.1,0-1.7,1.1-2.6,2.1c-1.3,1.4-2.8,2-4.5,2.8c-1.7,0.7-2.9,1.7-4.7,1.9
						c-1.6,0.2-2.7,0-4.2,0.7c-2.7,1.1-5.8,3-7.3,5.5c-1.2,1.9-3.7,5.7-1.5,5.7c0.5,0,1.1-0.2,2.1-0.5l-1.2,0.8c0.1,0,0.2,0,0.3,0
						c2.9,0,5.4-3.1,7.6-4.6c2.2-1.4,4.6-1.8,7-2.7c2.6-0.9,5.2-1.5,5.7-4.4c0.3-1.5,0.4-2,1.3-3.2c0.9-1.2,2.8-2.3,3-3.8
						C921.9,198.1,921.5,198,921.3,198 M923.2,202L923.2,202L923.2,202"/>
				</g>
				<g>
					<path class="st2" d="M921.3,198c-1.1,0-1.7,1.1-2.6,2.1c-1.3,1.4-2.8,2-4.5,2.8c-1.7,0.7-2.9,1.7-4.7,1.9
						c-1.6,0.2-2.7,0-4.2,0.7c-2.7,1.1-5.8,3-7.3,5.5c-1.2,1.9-3.7,5.7-1.5,5.7c0.5,0,1.1-0.2,2.1-0.5l-1.2,0.8c0.1,0,0.2,0,0.3,0
						c2.9,0,5.4-3.1,7.6-4.6c2.2-1.4,4.6-1.8,7-2.7c2.6-0.9,5.2-1.5,5.7-4.4c0.3-1.5,0.4-2,1.3-3.2c0.9-1.2,2.8-2.3,3-3.8
						C921.9,198.1,921.5,198,921.3,198 M923.2,202L923.2,202L923.2,202"/>
				</g>
			</g>
			<g id="Fill-3">
				<g>
					<path id="path-3" class="st0" d="M873.3,339.8c0.1,0,0.1,0,0.2,0c-0.6-1-1-2.1-1.2-3.1c-0.7,0.4-1.4,0.7-2.3,1c0,0-0.1,0-0.1,0
						c0.3,0.1,0.7,0.2,1,0.3C871.8,338.5,872.6,339.1,873.3,339.8"/>
				</g>
				<g>
					<path class="st1" d="M873.3,339.8c0.1,0,0.1,0,0.2,0c-0.6-1-1-2.1-1.2-3.1c-0.7,0.4-1.4,0.7-2.3,1c0,0-0.1,0-0.1,0
						c0.3,0.1,0.7,0.2,1,0.3C871.8,338.5,872.6,339.1,873.3,339.8"/>
				</g>
				<g>
					<path class="st2" d="M873.3,339.8c0.1,0,0.1,0,0.2,0c-0.6-1-1-2.1-1.2-3.1c-0.7,0.4-1.4,0.7-2.3,1c0,0-0.1,0-0.1,0
						c0.3,0.1,0.7,0.2,1,0.3C871.8,338.5,872.6,339.1,873.3,339.8"/>
				</g>
			</g>
			<g id="Fill-5">
				<g>
					<path id="path-5" class="st3" d="M869.5,252.9C869.5,252.9,869.5,252.9,869.5,252.9C869.4,252.9,869.4,252.9,869.5,252.9
						c-0.6,1.1-1.4,1.9-2.2,2.4c0.1,0.3,0.1,0.6,0.1,0.9c0,0.4,0.1,0.8,0.2,1.2c0.2,0.9,0.3,1.8,0.3,2.6c0,0.4-0.1,0.9-0.1,1.2
						c0.1,0.3,0.2,0.6,0.3,1c0.1,0.3,0.1,0.6,0.2,0.9c0,0,0.1,0,0.1,0.1c1.2,0.7,3.5,2.1,4.2,5.2c0.2,0.6,0.2,1.2,0.1,1.8
						c1.1,0.6,1.9,1.5,2.4,2.6c0.6,1.4,0.6,2.7,0.4,3.8c0.2,0.2,0.3,0.4,0.5,0.6c0.7,1,1,2,1.1,3c0,0,0,0,0,0
						c0.1-0.1,0.1-0.2,0.2-0.4c0.5-1,0.7-1.4,0.7-2c-0.1-1.3-0.3-2.7,0.2-4.1c0.4-1.4,1.2-2.3,1.7-2.8c0.1-0.6,0.3-1.1,0.5-1.6
						c-2.2-1.6-2.4-3.8-2.4-5.1c-1.3-0.7-2.5-1.7-3.4-2.9c-0.9-0.4-1.7-1-2.2-1.8l-0.6-0.9c-0.8-1.2-1.7-2.5-2.3-5
						C869.6,253.5,869.5,253.2,869.5,252.9"/>
				</g>
				<g>
					<path class="st4" d="M869.5,252.9C869.5,252.9,869.5,252.9,869.5,252.9C869.4,252.9,869.4,252.9,869.5,252.9
						c-0.6,1.1-1.4,1.9-2.2,2.4c0.1,0.3,0.1,0.6,0.1,0.9c0,0.4,0.1,0.8,0.2,1.2c0.2,0.9,0.3,1.8,0.3,2.6c0,0.4-0.1,0.9-0.1,1.2
						c0.1,0.3,0.2,0.6,0.3,1c0.1,0.3,0.1,0.6,0.2,0.9c0,0,0.1,0,0.1,0.1c1.2,0.7,3.5,2.1,4.2,5.2c0.2,0.6,0.2,1.2,0.1,1.8
						c1.1,0.6,1.9,1.5,2.4,2.6c0.6,1.4,0.6,2.7,0.4,3.8c0.2,0.2,0.3,0.4,0.5,0.6c0.7,1,1,2,1.1,3c0,0,0,0,0,0
						c0.1-0.1,0.1-0.2,0.2-0.4c0.5-1,0.7-1.4,0.7-2c-0.1-1.3-0.3-2.7,0.2-4.1c0.4-1.4,1.2-2.3,1.7-2.8c0.1-0.6,0.3-1.1,0.5-1.6
						c-2.2-1.6-2.4-3.8-2.4-5.1c-1.3-0.7-2.5-1.7-3.4-2.9c-0.9-0.4-1.7-1-2.2-1.8l-0.6-0.9c-0.8-1.2-1.7-2.5-2.3-5
						C869.6,253.5,869.5,253.2,869.5,252.9"/>
				</g>
				<g>
					<path class="st2" d="M869.5,252.9C869.5,252.9,869.5,252.9,869.5,252.9C869.4,252.9,869.4,252.9,869.5,252.9
						c-0.6,1.1-1.4,1.9-2.2,2.4c0.1,0.3,0.1,0.6,0.1,0.9c0,0.4,0.1,0.8,0.2,1.2c0.2,0.9,0.3,1.8,0.3,2.6c0,0.4-0.1,0.9-0.1,1.2
						c0.1,0.3,0.2,0.6,0.3,1c0.1,0.3,0.1,0.6,0.2,0.9c0,0,0.1,0,0.1,0.1c1.2,0.7,3.5,2.1,4.2,5.2c0.2,0.6,0.2,1.2,0.1,1.8
						c1.1,0.6,1.9,1.5,2.4,2.6c0.6,1.4,0.6,2.7,0.4,3.8c0.2,0.2,0.3,0.4,0.5,0.6c0.7,1,1,2,1.1,3c0,0,0,0,0,0
						c0.1-0.1,0.1-0.2,0.2-0.4c0.5-1,0.7-1.4,0.7-2c-0.1-1.3-0.3-2.7,0.2-4.1c0.4-1.4,1.2-2.3,1.7-2.8c0.1-0.6,0.3-1.1,0.5-1.6
						c-2.2-1.6-2.4-3.8-2.4-5.1c-1.3-0.7-2.5-1.7-3.4-2.9c-0.9-0.4-1.7-1-2.2-1.8l-0.6-0.9c-0.8-1.2-1.7-2.5-2.3-5
						C869.6,253.5,869.5,253.2,869.5,252.9"/>
				</g>
			</g>
			<g id="Fill-7">
				<g>
					<path id="path-7" class="st5" d="M553.4,70.6c-3.7,0-5.4-1.1-7.1-3c-0.1-0.2-0.3-0.3-0.5-0.5c-0.2,0-0.4-0.1-0.6-0.1
						c-0.7,0.3-1.4,0.5-2.1,0.5c0,0-0.1,0-0.1,0c-0.3,0-0.5,0-0.8,0.1c-0.7,0.1-1.3,0.2-2,0.2c-0.1,0-0.8,0-0.9,0
						c-1.8-0.2-3.1-0.8-3.9-1.2c-0.2-0.1-0.4-0.2-0.7-0.3c-0.3-0.1-0.6-0.1-0.9-0.2c-0.9-0.1-1.9-0.3-3.1-0.7
						c-0.9-0.3-1.6-0.7-2.2-1.1c-0.2-0.1-0.3-0.2-0.5-0.3c-0.9,0.2-1.4,0.2-2,0.2c-2.2,0-4-0.9-5.4-2.7c-0.4-0.6-0.7-1.1-0.9-1.7
						c-0.1-0.1-0.3-0.2-0.4-0.3c-0.2-0.1-0.3-0.3-0.4-0.4c-0.9,0.6-2.1,1.1-3.6,1.1c-1.3,0-2.6-0.5-3.5-1.5
						c-0.5-0.5-0.9-1.2-1.1-1.8c-5.3,0.2-10.2,0.2-15.2,0.2l-5,0l-5.2,0c-189.5-7-289.1-30.1-377-50.5C100,4.5,91.8,2.6,83.7,0.7
						c0.3,1.7,0,3-0.6,4.5c-0.1,0.3-0.3,0.7-0.4,1.2c-0.1,0.5-0.1,0.8,0.1,2c0.1,0.7,0.2,1.3,0.3,2c0.1,1.4,0.1,2.4,0.1,3.5
						c0,0.4,0,0.8,0,1.3c0.7,1.3,1.6,3.3,0.8,5.6c-0.5,1.4-1.5,3.1-3.8,3.8c-0.1,0.3-0.1,0.8-0.2,1.6L80,27
						c-0.3,2.7-0.6,4.7-2.2,7.6c-1.9,3.5-3.8,4.3-6.2,5.2L70.8,40l-0.6,0.3c-1.5,0.7-3.7,1.6-5.9,1.6c-2.9,0-5.2-1.6-6-4.3
						c-0.5-1.6-0.3-2.9,0.2-4.1c0,0-0.1-0.1-0.1-0.1c-0.8-0.9-1.8-2.6-1.6-5.1c0.1-1.5,0.9-3.6,3.4-4.9c0,0,0,0,0,0
						c0.3-0.7,0.6-1.7,1.3-2.8c1.1-1.7,2.4-2.8,3.6-3.5c-1.7-1-4-1.6-6.3-2.3c-0.8-0.2-1.7-0.5-2.5-0.7c-3.6-1.1-6-1.9-9.4-5.1
						c-0.5-0.5-1.1-1.1-1.6-1.7c-0.2,0.8-0.4,1.4-0.4,1.9c0,0,0,0,0,0c0,0,0.3,0.6,0.5,1c0.5,1.1,1.2,2.5,1.4,4.1
						c0.3,2-0.1,3.6-0.4,4.8c-0.1,0.4-0.2,0.8-0.2,1.2c-0.1,1,0.2,1.7,0.9,3.1c0.4,0.9,0.8,1.8,1.2,2.9c0.5,1.5,0.5,3.1,0.4,4.6
						c0,0.3,0,0.8,0,1.2c0.6,0.5,1.1,1.1,1.4,1.8c0.7,1.6,0.5,3.5-0.6,4.9c-0.3,0.4-0.7,0.8-1.1,1.1c1.1,3.3,0.5,5.9-0.7,7.9
						c3.3,1.8,6,3.9,8.9,7.4c1.1,1.3,1.4,3.1,0.8,4.8c-0.6,1.6-2.1,2.7-3.8,3c-0.2,0-0.7,0.1-0.9,0.1c-2.7,0-4.8-1.4-6.4-2.5
						c-0.4-0.3-1.1-0.7-1.4-0.9c0,0.8,0,1.7-0.3,2.7c-0.4,1.5-1.1,2.5-1.6,3.3c-0.1,0.2-0.3,0.4-0.4,0.7L40.5,71l-1,2.6l-0.2,0.8
						c-0.1,3.9-1.9,7.3-3.4,10.1c-0.4,0.8-0.8,1.5-1.2,2.2c-1.7,3.6-3.2,7.5-4.8,11.8c-0.5,1.3-0.9,2.6-1.3,3.8
						c-0.9,2.6-1.7,5.3-3.1,8.2c-1.2,2.4-2.6,4.5-4,6.5c-1,1.5-2,3-2.9,4.6c-0.6,1-1.1,1.9-1.6,2.8c-1.7,2.9-2.5,4.2-2.5,7.4
						c0,0.3,0,0.6-0.1,0.9l-0.2,1.2c-0.1,2.5-0.8,4.6-1.4,6.5c-0.6,1.8-1.1,3.3-0.9,4.4c0.1,0.6,0.3,1.1,0.4,1.5
						c0.4,1.2,1,2.9,0.8,5.3c-0.1,0.6-0.1,1.1-0.2,1.7c-0.2,1.1-0.3,2-0.2,3.1c0.2,4.4-1,7.6-2.1,10.4c-0.5,1.3-1,2.6-1.4,4.1
						c-0.1,0.6-0.2,1.1-0.3,1.6c-0.4,1.8-0.8,3.9-2.3,6.2c-1.1,1.6-2.4,2.8-3.5,3.8c-0.8,0.7-1.4,1.3-1.9,1.9
						c-1.1,1.6-0.2,6,2.1,10.4c0.1,0.2,0.2,0.5,0.3,0.7l0.1,0.2c4.2,5.5,2.1,11.4,0.9,14.6c-0.4,1.1-0.3,1.9-0.1,3.6
						c0.2,1.3,0.4,3,0.3,5c-0.1,1.3-0.5,2.4-0.8,3.1c0,0.1-0.1,0.1-0.1,0.2c0.3,0.5,1,1.3,1.4,1.8c0.5,0.6,0.9,1.1,1.3,1.7
						c1.6,2.2,2.4,4.6,3.2,6.6c0.6,1.7,1.2,3.3,2.1,4.5c0.1,0.1,0.2,0.3,0.3,0.5c1.1,1.1,2.2,2.5,2.8,4.4c0.5-0.1,1-0.2,1.4-0.2
						c1.4,0,2.4,0.5,3.1,0.8c0.7-0.3,1.5-0.5,2.5-0.5c0.4,0,1.2,0.1,1.6,0.2c1.9,0.5,3,1.6,3.6,2.3c0.2,0,0.5,0,0.8,0
						c5.5,0.4,8.3,2.6,8.5,6.6c0.1,2.5-1.8,4.6-4.2,4.9c-1.3,0.1-2.5,0.2-3.7,0.2c-1.8,0-3.6-0.2-5.3-0.5c0.2,1.7,0.5,3.5,0.8,4.8
						c0.3,1.7-0.3,3.5-1.7,4.6c-0.9,0.7-1.9,1-2.9,1c-0.6,0-1.3-0.1-1.9-0.4c-0.2-0.1-0.4-0.2-0.6-0.3c-0.1,0.2-0.2,0.4-0.2,0.6
						c-0.2,0.5-0.5,1.2-0.5,1.5c0,0.3,0,0.6,0,0.7c0,0,0.1,0,0.1,0c0.2,0,0.5,0.1,0.7,0.2c1.9,0.6,5,1.6,6.8,5.3l0.6,1.2
						c0.2,0.4,0.3,0.8,0.4,1.3c0.8,4.4-1.3,7.4-2.7,9.3c-0.7,1-1.1,1.6-1.1,2c0,0.5,0,0.5,0.6,1.2c0.6,0.8,1.2,1.6,1.7,2.8
						c0.9,1.8,1.1,3.5,1.3,4.8c0.1,0.6,0.1,1.1,0.3,1.7c1.1,3.6,2.5,7.6,4.8,10.4c2,2.4,2.5,3.6,3.3,5.7l0.3,0.8
						c0.1,0.3,0.4,0.6,0.6,0.9c1,1.4,2.7,3.9,2.3,7c0,0.3-0.1,0.5-0.2,0.8l0,0.1c0.1,2.6-0.4,4.7-0.9,6.4c-0.3,1.2-0.6,2.1-0.6,3.2
						c2.5,0.9,3.6,1.6,5.4,3c0.5,0.4,0.7,0.5,0.9,0.6c0,0,0.1,0,0.3,0c0.1,0,0.2,0,0.4,0l1.1,0.1c3.2,0.2,4.5,0.8,6.3,2.3
						c0.3,0.2,0.6,0.5,1.1,0.8c0.5,0.3,1,0.6,1.5,0.9c1.2,0.7,2.6,1.5,4,2.8c1.3,1.2,2,2.5,2.6,3.6c0.3,0.5,0.5,0.9,0.8,1.3
						c0.8,1,2.8,2.2,3.6,2.5c0.4,0.1,0.8,0.2,1.2,0.3c2,0.4,6.8,1.3,7.7,7.5c0,0.3,0,0.5,0,0.8c1.2,0.5,2.6,1.2,4,2.2
						c8.6,3.1,16.6,18.5,14.3,27.6l-0.2,1c-0.1,0.5-0.3,1.1-0.4,1.6c0.2,0,0.4,0.1,0.7,0.1c2.1,0.3,4.2,0.8,6.3,1.2
						c1.8,0.4,3.5,0.8,5.3,1.1c1.9,0.3,3.8,0.3,5.7,0.4c3,0.1,6,0.2,9.2,0.9c2.9,0.1,15.1,0.8,18.5,6.3c0.3,0.5,0.6,1,0.7,1.6
						l67.8,38.5l48.4,6.6l0.7-5.9c0.2-1.3,0.8-2.4,1.8-3.2c0.8-0.6,1.8-1,2.9-1c0.2,0,0.5,0,0.7,0.1l32.1,4.7
						c7.9,0.2,9.1,5.3,9.6,7.5c0.3,1.2,0.5,1.9,1,2.5c1.2,1.4,2.7,2.7,4.2,4c2.6,2.3,5.4,4.8,7.4,7.9c0.6,1,1,1.8,1.4,2.6
						c0.1,0.3,0.3,0.7,0.4,0.8c0,0,0.2,0.2,0.8,0.5c3.3,1.7,4.8,2.5,7,6c1.4,2.2,2,4.1,2.5,5.8c0.2,0.6,0.4,1.1,0.6,1.7
						c0.1,0.1,0.6,0.6,0.9,0.9c1.1,1,2.8,2.5,3.4,5c0.5,1.9,0.3,3.7,0.2,5.2c-0.1,0.8-0.2,1.8-0.1,2.1c0.5,1.3,1.7,2.8,3.4,4.1
						c0.7,0.3,1.2,0.7,1.7,1.1c1.2,1.3,1.9,2.6,2.5,3.8c0.3,0.6,0.6,1.2,1,1.7c0.2,0.3,0.2,0.3,1.1,0.6c0.8,0.3,1.8,0.7,3,1.4
						c2,1.2,3,2.8,3.8,3.9c0.3,0.4,0.6,0.9,0.8,1.1c0.2,0.1,0.7,0.2,1.1,0.2c0.9,0.1,1.8,0.3,2.7,0.6c0.2,0.1,0.4,0.1,0.6,0.2
						c0.5-0.8,1.2-1.7,2.2-2.4c0.6-0.4,1.3-0.7,1.9-0.9c0-0.1,0-0.2,0.1-0.3c0.2-1.3,0.5-2.5,0.9-3.5c0.1-0.3,0.3-0.8,0.4-1.2
						c0.5-1.7,1.2-3.7,2.6-5.3c1.7-1.9,5.5-3.8,7.6-4.8c1.4-0.6,2.7-0.9,3.9-0.9c2.2,0,3.7,1,4.4,1.6c0.4,0.3,0.4,0.3,0.6,0.3l0.7,0
						c0.9,0,9.1,0.1,13.9,2.6c2.8,1.4,3.9,3.6,4.6,5.1c0.3,0.7,0.6,1.1,0.8,1.3c0.6,0.5,1.3,0.9,2,1.3c1.2,0.7,2.5,1.5,3.8,2.7
						c4,3.7,5.9,8.8,7.5,13l0.5,1.5c0.7,1.8,1.6,3.6,2.4,5.3c0.6,1.3,1,2.4,1.4,3.7c0.3,0.9,0.8,2.4,1.1,2.8
						c0.4,0.3,0.5,0.5,0.7,0.9c3.4,2.7,7,5.9,8.6,11.2c0.3,1.1,0.4,2,0.5,2.9c0,0.2,0,0.4,0.1,0.6c0,0,0.1,0,0.1,0
						c0.2,0,0.5,0.1,0.8,0.2c1.8,0.7,4.7,1.8,5.9,5c0.8,2.2,0.2,4.3-0.2,5.7c-0.1,0.3-0.2,0.6-0.3,0.9c0.1,0.7,0.7,2.8,1.2,4.2
						c0.2,0.7,0.7,1.5,1.3,2.3c0.8,1.2,1.7,2.6,2.2,4.3c0.3,0.8,0.4,1.5,0.6,2.3c0.2,1.1,0.3,1.5,0.6,1.9l0.6,0.8
						c0.6,0.5,1.2,0.7,2,1.1c0.8,0.4,1.7,0.8,2.6,1.4c1.2,0.7,2,1.5,2.8,2.2c0.8,0.7,0.9,0.8,1.3,0.9l1.6,0.5
						c3.4,1,6.7,1.9,10.2,2.7c2.5,0.5,4.6,2,6.5,3.2c0.5,0.3,1.2,0.8,1.9,1.2c-0.4-0.9-0.9-1.8-1.1-2.3l-0.5-0.9l-0.5-1
						c-1.3-2.5-2.1-4.2-2.2-7.8c0-0.8-0.2-1.7-0.3-2.5c-0.3-1.5-0.5-3.3-0.4-5.2c-0.2-1.5,0-2.7,0.4-3.8c-1.2-0.7-2.3-1.6-2.7-3.2
						c-0.5-1.8-0.2-3.6,0.8-5.1c1.8-2.5,4.7-2.6,6.5-2.6c0.1-0.2,0.2-0.6,0.3-0.8c0,0-0.1-0.1-0.2-0.1c-0.6-0.6-1.3-1.3-2-2.3
						c-1.3-1.9-1.1-4.3,0.5-6c0.9-0.9,2.3-2,4.4-2.3c-0.3-1.9,0.6-3.8,2.4-4.8c1.9-1,3.5-1.3,4.6-1.5c0.1,0,0.2,0,0.3-0.1
						c-0.1-1.7,0.3-4.8,4.7-5.9c-0.2-0.7-0.4-1.4-0.3-2.3c0.1-1.8,1-3.5,2.6-4.7c1.3-1,2.8-1.1,3.7-1.1c1.6,0,3.8,0.4,6.5,0.8
						c0.8,0.1,1.4,0.3,1.7,0.3c1.2,0.1,2.4,0.2,3.5,0.2c3.5,0,6.1-0.7,8.8-2.6c0.3-0.5,0.8-1,1.3-1.4c1.4-0.9,2.5-2.3,3.8-4
						c0.3-0.6,0.7-1.6,1.7-2.5c0.3-0.3,0.5-0.5,0.8-0.7c-0.2-0.3-0.3-0.6-0.4-0.8c-0.3-0.6-0.5-1-0.7-1.3c-0.5-0.9-1.5-2.7-0.7-4.9
						c0.8-2.2,2.6-2.9,3.4-3.2c0.3-0.1,0.6-0.2,1.1-0.5l0.6-0.3c1.5-0.8,3.3-1.8,5.4-1.8c1.9,0,3.5,0.8,4.6,2.3c0.7,1,1.1,2,1.3,3
						c1.9-0.5,4.1-1.6,5.3-2.5c0.5-1.4,0.7-2.4,1.3-3.6c1.9-4,4.4-4.8,6.2-4.8c1.1,0,2.2,0.4,3.2,1c1.6-2.8,3.7-3.4,5.3-3.4
						c1.9,0,3.7,1,4.7,2.7c0.8,1.3,1.2,2.9,1.2,4.6l0.5,0c3.5,0,6.7,1,9.5,1.9c1.6,0.5,3.1,1,4.4,1.2c0.1-0.7,0.3-1.4,0.7-2.1
						c1.4-2.2,3.6-2.5,5.2-2.7l1.3-0.2c0.6-0.1,1-0.2,1.4-0.3c0.6-0.1,1.4-0.3,2.3-0.3c1.5,0,2.8,0.5,3.6,0.9
						c0.6,0.3,1.1,0.7,1.5,1.2c0.1,0,0.2,0,0.3,0c0.7,0,1.9,0.3,2.6,0.6c1.1,0.6,1.9,1.4,2.4,2.2c0.5,0,1.2,0.2,1.9,0.4
						c2,0.7,7.8,4.3,8.2,9.1c0,0,0,0,0.1,0c0.7-0.4,1.6-0.6,2.7-0.6c0,0,0.1,0,0.1,0c1-1.9,2.8-4,6.5-4c0.6,0,1.3,0.1,2,0.2
						c0.7,0.1,1.3,0.4,1.9,0.8c0.6-2.1,1.7-3.4,3.6-4.4c0.8-1,2-1.8,3.3-2c0.1,0,0.1,0,0.2,0c0.1-0.2,0.1-0.3,0.2-0.5
						c-0.5-0.6-0.9-1.3-1.1-2.2c0-0.2-0.1-0.5-0.1-0.7c-1,0.4-2.5,1-4.4,1c-0.2,0-0.8,0-1,0c-1.5-0.1-2.7-0.6-3.5-1
						c-0.1,0-0.1-0.1-0.2-0.1c-0.1,0-0.2,0-0.2,0c-1.2,0-2.4-0.4-3.2-1.3c-0.2,0-0.4-0.1-0.5-0.1c-1.3-0.3-3.5-0.8-4.9-2.9
						c-2.1-3.3-0.2-7.3,1.8-9c0.6-0.6,2.1-1.9,4.2-1.9c0.6,0,1.2,0.1,1.8,0.4c0.8-0.9,2-1.7,3.7-2c0.2,0,0.4,0,0.6,0
						c2,0,3.7,1.1,5.5,2.3c0.5,0.3,0.9,0.6,1.3,0.8c0.5,0.1,1.1,0.4,1.7,0.6c1.2,0.4,2.2,0.8,2.8,0.8c0.1,0,0.5,0,1.5-0.6
						c0.3-0.2,0.8-0.5,1.2-0.8c2.4-1.7,5.8-4.1,9.4-4.1c1.6,0,3.1,0.5,4.4,1.3c0.7,0,1.4,0,2,0.1c1.2,0,2.3,0.1,3.5,0.1
						c0.5,0,1-0.2,1.7-0.3c0.5-0.1,1-0.2,1.5-0.3c0.2-1.7,0.5-3.7,1.8-5.4c0.7-1,2.6-3.6,5.7-3.6c5.1,0,5.7,5.6,5.9,7.8
						c0,0.1,0,0.3,0,0.4c0.4,0.2,0.8,0.5,1.3,0.8c0.9-1.4,2.3-2.8,4.4-3.4c0.4-0.1,0.9-0.2,1.3-0.2c0.8,0,1.5,0.2,2.2,0.6
						c0.2-0.2,0.4-0.4,0.6-0.6c0.8-0.8,1.4-1.4,2.1-1.9c0.8-0.5,1.7-0.7,2.6-0.7c0.8,0,1.6,0.2,2.3,0.6c0.9,0.5,1.5,1.2,2,2l0.3,0h0
						c0.2,0,0.6,0,0.8,0c0.2,0,0.4,0,0.6,0c0.8-1.8,2.3-3,4.5-3.8c0.9-0.3,1.8-0.4,2.8-0.4c3.9,0,8,2.5,8.4,6.2
						c0.2,0,0.3,0.1,0.5,0.1c1.3-0.8,3-1.3,5.3-1.3c0.6,0,1.3,0,1.9,0.1l0.7,0c2,0.1,3.8,1.5,4.3,3.5c0.2,0.8,0.4,2.1,0.1,3.4
						c0.7,0.6,1.3,1.3,1.8,2.1c0.9,1.5,1.2,2.6,1.4,3.4c0.4,0.2,0.9,0.4,1.7,0.4c1.6,0,3-0.6,3.5-1l0.1-0.1c0.1-0.2,0.2-0.4,0.4-0.6
						c2.1-3,4.9-3.4,6.3-3.7l-0.1,0.6c0.8-2.7,2.3-4.3,5.3-5.3c2.1-0.7,3.9-1.1,5.7-1.1c4.8,0,8,2.4,11.5,5.3c0.4,0.3,0.8,0.7,1.3,1
						l1.1,0.8l1.2,0.8c1.6,1.1,1.7,1.2,2.1,1.7c1.2,1.4,1.8,2.9,2.2,4c0.4,1,0.5,1.3,0.8,1.5c1.2,1,3.5,2.6,4.9,3.3
						c0.5,0.3,0.9,0.4,1.3,0.5c1.4,0.4,3.5,1,5.6,3.6c4,4.9,5.8,13.7,5.5,19.5l0,0.7c0,0.9-0.3,1.8-0.7,2.5c0.5,0.1,1,0.2,1.6,0.4
						c4.8,1.4,7.3,6.1,6,10.8c-0.7,2.4-2.3,3.9-3.5,4.9c0.1,0.1,0.2,0.2,0.2,0.3c0.8,0.8,1.5,1.7,1.9,2.4c0.8,1.2,1.4,2.6,2,4
						c1-0.8,2.2-1,3.2-1c1.4,0,2.9,0.6,4.2,1.7c2.8,2.3,2.4,6.1,2.1,9.1c0,0.4-0.1,0.9-0.1,1.2c1.6,0.6,3.9,1.7,5.1,4.7
						c0.6,0.9,0.9,2,0.8,3c0,0.2,0.4,0.8,0.7,1.2c0.3,0.4,0.6,0.9,0.9,1.4c0.4,0.8,0.8,1.7,1.2,2.6c3.5,0,9.5,1.8,11.4,5.5
						c0.4,0.8,0.6,1.6,0.5,2.5c2.8,2.1,5.4,4.1,6.6,6.3c2.5-0.9,4.5-2.1,4.9-2.8c0-0.1-0.1-0.9-0.2-1.5c-0.3-1.7-0.6-4,0.3-6.5
						c0.3-0.9,0.6-1.6,0.9-2.2c0.6-1.3,0.8-1.7,0.8-3.3c0-2.1,0.2-4.2,0.4-6.3c0.3-2.5,0.5-4.9,0.3-7.2c-0.2-2.3-1.4-4.4-2.7-6.9
						c-1-1.9-2.2-4.1-2.9-6.5c-0.6-0.4-1-1-1.3-1.6c-1.3-2.4-2.5-4.9-3.7-7.3c-2.8-5.6-5.4-10.8-8.8-16l-0.6-0.9
						c-1.1-1.6-2.5-3.6-3.1-6c-0.4-1.4-0.4-2.7-0.5-3.8c0-0.5,0-1.2-0.1-1.4c-0.6-1.9-3-5.5-6.3-9.7l-0.3-0.3
						c-0.8-0.8-1.3-1.8-1.4-2.9c-0.2-2.6-1.9-5.5-3.6-8.5c-1.9-3.3-4.1-7.1-4.8-11.4c-0.4-2.2-0.9-4.3-1.5-6.5
						c-1.1-4.3-2.3-8.8-2.1-13.7c0-0.6,0.1-1.2,0.4-1.7c-0.1-0.3-0.2-0.5-0.3-0.8c-0.4-1.9,0.3-3.9,2-5c0.3-0.2,0.7-0.4,1.2-0.7
						c0-0.1,0-0.2,0-0.3c0-0.2,0-0.5,0.1-0.7c0,0,0-0.1,0-0.1c-0.9-1.1-1.3-2.6-0.9-4.1c0.3-1.4,1.3-2.6,2.6-3.2
						c0.1-1.6,0.9-2.9,2.2-3.7c0.3-0.4,1-1.6,2.2-4.4c0.2-0.6,0.2-1-0.1-2.5c-0.3-1.3-0.6-2.8-0.5-4.7c0.1-1.4,0.8-2.6,2-3.4
						c0.8-0.6,1.8-0.9,2.7-0.9c0.1,0,0.3,0,0.4,0c0.7-0.7,1.5-1.2,2.5-1.4c0.3-0.1,1.2-0.2,1.5-0.2c0.9,0,1.7,0.2,2.3,0.3
						c0.3-0.2,0.7-0.5,1.2-0.8c0.7-0.4,1.4-0.7,2-1c1-0.5,1.8-0.9,2.5-1.4c1-3.3,3.8-6,5.9-8l0.5-0.5c0.5-0.5,0.9-1,1.3-1.4
						c1-1.1,1.9-2,3.1-2.7c-0.4-1.1-0.4-2.4,0.1-3.6c0.4-0.9,1-1.6,1.7-2.1c0-0.1,0-0.2,0-0.3c0.2-1.3,0.4-2.8,1.3-4.3
						c1.2-2,3.1-3.8,4.8-5.3c0.5-0.5,1-0.9,1.4-1.3c3.8-3.8,7.8-4.3,10.9-4.7c0.6-0.1,1.3-0.2,1.8-0.3c0.6-3.3,1.8-5.8,3.2-8.6
						c1-1.9,2.1-3.1,3-4.1c0.4-0.4,0.8-0.8,1-1.2c0-0.6,0-1.2,0.1-1.5c-0.1-0.7-0.2-2.4,0.9-4.2c0.9-1.5,2.4-2.3,4.1-2.3
						c0.6,0,1.1,0.1,1.7,0.3c0.4,0.2,0.8,0.4,1.2,0.6c0.3-0.3,0.6-0.5,0.9-0.8c-1.3-0.8-2.2-1.8-2.8-2.6c-0.7-1.1-0.9-2.5-0.5-3.8
						c0.4-1.3,1.3-2.4,2.5-3c0.5-0.2,1.1-0.4,1.6-0.6c-1.5-0.8-2.7-1.9-3.7-3.3c-0.9-1.5-1-3.3-0.1-4.9c0.8-1.5,2.4-2.4,4.1-2.4
						c0,0,0.1,0,0.1,0c1.1,0,2.1,0.2,3.2,0.3c0.4-0.7,1-1.3,1.7-1.7h0c-2.9,0-4.7-1.3-5.7-2.4c-2.7-2.9-2.7-7.2-2.4-11.4
						c0.2-2.4,2.1-4.3,4.5-4.4h0c2.7,0,4.2,1,5,1.9c0.2,0.2,0.5,0.5,0.6,0.8c0.4-0.1,0.8-0.1,1.2-0.1c0.1,0,0.1,0,0.2,0
						c0.9-0.8,1.9-1.2,3-1.6c0.1,0,0.1,0,0.2-0.1c0-0.5-0.1-1-0.1-1.5c-1-1-1.7-2.1-2-3.4c-0.2-0.8-0.2-1.6-0.1-2.3
						c-0.1,0-0.3,0.1-0.4,0.1c-1.3,0.4-2.7,0.6-4,0.6c-3.3,0-6.5-1.3-9.2-3.7c-0.1-0.1-0.3-0.1-0.4-0.2l-1.1-0.7
						c-0.8-0.5-1.6-1-2.3-1.3c0,0-0.1,0-0.3,0c0,0-0.1,0-0.2,0c-1,0-2.6-0.1-4.2-0.9c-4.1-2.1-3.9-5.2-3.6-6.4
						c1-4.2,5.8-4.2,7.6-4.2c0.3,0,0.6,0,0.9,0c0.2-0.5,0.5-1.1,1-1.6c-1.1-0.9-2-2-3-3c-2.3-2.4-4.5-5.3-3.6-8.6
						c0.3-1.2,1-2.2,2-2.9c-0.2-0.9-0.1-1.7,0.1-2.4c0.2-0.6,0.5-1.2,0.9-1.7c-1.2-1.8-1.8-4.2-0.4-7c0.4-0.8,0.9-1.4,1.6-1.9
						c-0.2-1.7,0.1-3.1,0.3-4c0.1-0.5,0.2-0.8,0.2-1.1c0-0.2,0-0.6,0-0.8c0-0.2-0.3-0.8-0.5-1.2c-2.2-4.4-1.1-6.5,1.3-9
						c2-2,4-4.4,5.5-6.6c0.9-1.3,2.4-2,3.9-2c0.4,0,0.8,0,1.2,0.1c0.5,0.1,1,0.3,1.5,0.6c0-2.9,0.9-5.8,3-7.8
						c0.9-0.9,2.1-1.3,3.3-1.3c0.4,0,0.7,0,1.1,0.1c1.6,0.4,2.9,1.6,3.4,3.1c0.6,1.7,0.6,3.3,0.6,4.6c0,0.7,0,1.5,0.2,1.8l0.6,1.2
						c0.3,0.7,0.9,2,1.3,2.2c0,0,0.1,0,0.1,0c0.1,0,0.4,0,1,0l0.4-0.1c0.8-0.2,1.6-0.3,2.5-0.3c0.6,0,1.4,0.1,2,0.3
						c0.1,0,0.2,0.1,0.3,0.1c0,0,0-0.1,0-0.1c0.3-0.8,0.5-1.6,0.9-2.4c0.8-1.6,1.8-2.6,2.5-3.3c0.3-0.3,0.6-0.6,0.7-0.8
						c1.3-2,2.1-4.7,2.2-7.4c0-0.3,0-0.5,0-0.6c-0.3-0.4-0.6-0.9-0.8-1.6c-0.3-0.9-1-3.7,0-6.4c0-0.2,0-0.4,0-0.5c0-0.1,0-0.2,0-0.3
						c-2.8-1.1-4.3-3.2-4.4-6.4c-0.2-4.4,2-6.7,3.5-8.2c0.3-0.3,0.6-0.6,0.9-1c1.1-1.4,2.4-3.2,3.2-4.5l0.3-0.7
						c0.1-0.3,0.2-0.5,0.4-0.7c1.5-2.4,3.9-4,5.9-5.2l1-0.7c2.8-1.9,6.2-3.5,9.7-4.5c0.9-0.3,1.8-0.5,2.7-0.7
						c1.3-0.3,2.6-0.6,3.9-1.1c1-0.4,1.9-0.9,2.8-1.4c1.4-0.8,3-1.7,4.9-2.3l0.7-0.3c0.6-0.2,1.2-0.3,1.8-0.3c0,0,0.1,0,0.1,0
						c0,0,0.3-0.2,0.7-0.4l0.1-0.7c0.3-2.9,1-10.5,7.4-10.5c0.4,0,1.2,0.1,1.6,0.2c0.9,0.2,1.6,0.6,2.2,1.2c0.3-0.5,0.8-0.9,1.3-1.4
						c0.2-0.1,0.3-0.3,0.5-0.4c-0.4-0.5-0.8-1.1-1.2-1.9c-0.3-0.7-0.5-1.4-0.5-1.9c-0.1-0.1-0.3-0.2-0.5-0.3l-0.2,0.1
						c-0.8,0.2-1.5,0.4-2.3,0.4c-1.3,0-3.1-0.7-4-1.7c-1.7-1.9-1.5-4.3-1.4-5.6c0.3-3.1,1.5-5,4-6c-0.6-0.8-1-1.7-1.3-2.9
						c-0.2-1-0.2-1.9-0.2-2.5c-0.2-0.3-0.3-0.6-0.4-0.9l-0.2-0.6c-0.2-0.5-0.2-1-0.2-1.5c0-2.8,0.8-4.5,1.4-5.8
						c0.2-0.3,0.3-0.7,0.5-1.1c-0.1-1.3-0.1-2.8,0.7-4.4c0.4-0.9,0.9-1.7,1.4-2.3c0.1-0.2,0.2-0.3,0.3-0.5c0-0.3,0-0.6,0-1
						c-0.1-1.4-0.1-3.1,0.6-4.7c0.6-1.5,1.6-2.4,2.3-2.9c0.2-0.8,0.5-1.8,1.2-2.8c0.5-0.6,1-1,1.5-1.4c0.1-0.4,0.2-0.8,0.3-1.2
						c1.2-2.9,3-4.4,5.4-4.4c0.8,0,1.4,0.2,2,0.4c1-1.6,2.6-2.5,3.3-2.9c0.2-0.1,0.4-0.2,0.5-0.3c0.1-0.1,0.5-1.2,0.7-2l0.3-0.9
						c-0.1-0.6-0.3-1.4-0.3-2.5c0-1.9,0.7-3.5,1.2-4.7c0.1-0.3,0.3-0.6,0.4-0.9c0.6-2.1,2.5-3.4,4.5-3.4c0.3,0,0.5,0,0.8,0.1
						c0.9,0.2,1.9,0.5,2.8,1.1c1-0.6,2-0.8,3-0.8c0.5-0.6,1.9-2,4.2-2c0.3,0,0.7,0,1.1,0.1c0.7-1.6,1.9-3.3,4.6-3.7
						c1-1.4,2.4-3,4.2-4c-0.1-0.5-0.1-1-0.1-1.5l-0.2,0c-2,0-3.6-0.6-4.9-1.9c-1.9-1.9-2-4.1-2-5.2c-0.2-0.3-0.5-0.7-0.7-1.1
						c-5.2-0.7-7.9-3.7-8.2-8.9l0-0.7c0-0.9-0.2-3.1-0.5-4.1c-0.6-0.7-1-1.6-1.1-2.6c-0.3-3.2-1.4-6.5-2.6-10
						c-0.9-2.6-1.8-5.2-2.4-7.9c-1.2-0.7-2.3-1.4-3.3-2.1c-0.9-0.6-1.7-1.2-2.6-1.7c0,0,0,0,0,0c-0.2,0-0.8,0.4-1.3,0.7
						c-0.5,0.3-1.1,0.7-1.7,1l-0.7,0.4c-2.5,1.6-5.1,3.1-7.9,3.1c-1.4,0-2.6-0.4-3.6-1.1c-0.2,0.4-0.4,0.7-0.6,1.1
						c-1.3,2.6-2.3,4.8-3.2,7.1c-0.7,1.8-1,3.1-1,4.6c0,0.6,0.1,1.2,0.2,1.7c0.4,2,0.9,5-1.1,8.2c-0.3,0.4-0.6,0.8-0.9,1.3
						c-0.1,0.2-0.3,0.4-0.4,0.6c0.5,0.8,0.9,1.8,1.1,3c0.8,0.8,1.4,1.9,1.6,3.1c0.2,1.3,0.2,3.5-1.9,5.4c0,0.1,0,0.2-0.1,0.3
						c-0.2,1.1-0.5,2.7-1.5,4.4c-0.4,0.7-0.9,1.3-1.4,1.8c0.6,1.9,1.1,4.3-0.5,6.5c-0.3,0.4-0.6,0.7-1,1c-0.1,0.5-0.4,1.1-0.7,1.6
						c-1.5,2.1-3.3,2.6-4.5,2.6c-0.2,0-0.4,0-0.5,0c-0.6,0.7-1.4,1.4-2.6,1.9c-0.2,0.1-0.5,0.2-0.8,0.3c0,0.1-0.1,0.2-0.1,0.2
						c-0.9,2.7-1.9,4.9-5.6,6.7l-1.2,0.6c-0.7,0.3-1.4,0.5-2.1,0.5c-0.1,0-0.2,0-0.2,0l-0.6,0c-2.6,0-5.8,0.7-8.4,1.2
						c-1.9,0.4-3.8,0.9-5.8,1.4c-4.4,1.1-9,2.2-13.6,2.9c-2.8,0.4-5.9,1-9,1.8c-0.8,0.2-1.7,0.5-2.6,0.8c-2.4,0.8-5,1.7-7.8,1.8
						l-0.6,0.4c-0.7,0.4-1.5,0.6-2.3,0.6c0,0.1-1.2,0.9-4.2,4.4c-1.4,1.7-2.8,4-4.3,7l-0.6,1.3c-1,2.2-2.1,4.7-4.9,6.8
						c0,0.1,0.1,0.1,0.1,0.2c1.4,2.3,0.5,4.6-0.1,5.8c0.1,0.1,0.1,0.3,0.2,0.4l0.2,0.3c1.1,2,2.7,4.7,1.7,7.8
						c-0.4,1.3-1.5,3.2-4.2,4.5c-0.4,0.2-0.8,0.3-1.1,0.5c-1.7,2.1-3.1,3.4-4.8,4.6c-4.2,2.7-10.8,5.7-16.4,5.7
						c-1.8,0-3.5-0.3-5-0.9c-1.3-0.1-2.4-0.4-3.3-0.6c-0.8-0.2-1.6-0.4-2.2-0.4c-1.1,0.1-2.2,0.7-3.4,1.3c-1.4,0.8-3.1,1.7-5.1,2.1
						l-1.2,0.3c0,0-0.1,0-0.1,0c0.2,0.5,0.3,1,0.4,1.5c0.1,0.5,0.3,1.1,0.5,1.6l0.3,0.6c0.8,1.4,2.5,4.5-0.4,8.2l-0.1,0.4
						c-1.4,4.5-6.3,8.4-9.9,11.2l-1.2,1c-3.1,2.6-6.7,5.2-10.8,7.7c-1.7,1.1-3.3,2.2-4.9,3.4c-2.2,1.6-4.4,3.2-6.8,4.6l-2.6,1.5
						c-3.2,1.8-6,3.4-8.5,5.7c-2.7,2.5-4.9,2.8-6.6,3c-0.4,0.1-0.9,0.1-1.5,0.3c-0.8,0.2-1.7,0.6-2.7,1.1c-1,0.5-2,1-3,1.4
						c-0.5,0.2-1.1,0.3-1.6,0.3c-0.1,0-0.2,0-0.3,0c-1.6-0.1-2.8-0.7-3.6-1.4c-1.5,0.6-3.1,1.2-4.9,1.2c-1.4,0-2.8-0.3-4.2-1
						c-0.9-0.4-2.3-0.9-3.2-2.3c-0.2-0.3-0.4-0.7-0.5-1.1c-4.3-2-6.6-5.7-5.8-9.5c0-0.2,0.1-0.4,0.2-0.6c0.3-2.1,1.4-3.8,2.2-5.1
						c0.3-0.6,0.9-1.5,0.9-1.8c0-0.3,0-0.7,0-0.9c0.1-1.9,0.3-3.8,2.6-6.1c0.7-0.7,1-1.2,1.7-2.3l0.4-0.6c0.2-0.3,0.3-0.5,0.5-0.7
						c0-0.9,0-2.1,0.7-3.2c1.4-2.6,3.3-3.3,4.7-3.4c0.1-1,0.2-1.9,0.2-2.5l-0.1-0.2c-0.3-0.5-0.4-1.1-0.5-1.7
						c-0.3-3-1.9-6.8-3.2-9.8c-0.8-1.8-0.9-3.4-1-4.6c0-0.4-0.1-1.1-0.2-1.3c-0.2-0.4-1.3-1.6-2.1-2.5c-0.2,0.1-0.4,0.3-0.6,0.4
						l-1,0.6c-1,0.5-1.4,1.1-2.7,2.9c-0.4,0.6-0.5,1.1-0.7,1.6c-0.5,1.5-1,3-2.2,4.3c-1.9,2-4.9,2.2-6.5,2.2c-1.4,0-2.5-0.2-3.5-0.7
						c-4-1.8-5.3-5.3-4-10.3c0.1-0.3,0.2-0.6,0.2-0.9c-0.2-1.1-0.4-3,0.8-5.1c0.6-1,1.5-1.9,2.7-3c0.3-0.3,0.6-0.5,0.8-0.7
						c0.9-2.1,2.6-3.1,3.6-3.6c0-0.2,0-0.3,0-0.5c0-0.6,0.1-1.1,0.2-1.6c0.1-0.5,0.2-1.1,0.4-1.7c0.2-0.8,0.5-2.3,0.6-3.3
						c-0.4-0.4-0.6-0.9-0.8-1.4c0,0,0,0.1,0,0.1c-0.1,0-0.3-0.2-0.5-0.5c-1.4-1.7-3.4-4.1-3-7.2c0-0.3,0.1-0.6,0.2-0.9
						c-0.2-0.2-0.4-0.4-0.5-0.6c-0.3-0.4-0.5-0.7-0.6-1.1c-0.1,0-0.3,0-0.4,0c-2.5-0.1-3.8-0.7-4.9-1.3c-0.2-0.1-0.4-0.2-0.6-0.3
						c-1.3-0.2-2.6-0.5-4-1.7c0,0,0,0-0.1,0c-1.2-0.7-1.9-1.6-2.5-2.2c0,0-0.1,0-0.1,0c-0.6,0.1-1.2,0.1-1.7,0.1
						c-0.2,0-1-0.1-1.2-0.1c-0.3,0-0.6-0.1-0.8-0.1c0.6,1.1,1,2.4,0.7,3.9c-0.3,1.5-1.2,2.8-2.5,3.7c-1.3,0.9-2.6,1-3.6,1.1
						c-0.1,0.8-0.1,1.4-0.1,2c0.1,2,0.2,4.5-1.1,7.5c-0.6,1.4-2.4,5.5-6.5,5.5c-0.9,0-3.4-0.3-4.8-2.9c-0.2,0.6-0.5,1.3-1,2.1
						c-0.2,0.3-0.4,0.5-0.6,0.7c0.2,1,0.3,1.9,0.3,2.6c0,3.9-0.4,8.4-3.4,12.8c0,0,0,0.1,0,0.1c0.3,0.8,0.6,1.7,0.7,2.6
						c0.3,1.9-0.1,3.3-0.3,4.3c-0.1,0.2-0.1,0.5-0.2,0.7c0,0.4,0.1,0.7,1,2c0.6,0.9,1.2,1.8,1.6,2.8c3,6.5,4.5,12.5,4.5,18.5
						c0,4.2-0.4,7.2-1.2,10.5c0,0,0,0.1,0,0.1c-0.3,7.4-7.7,15.4-11.5,18.3c-2.2,1.7-6.3,2.9-9.6,2.9c-1.6,0-2.9-0.3-4.1-0.8
						c-4.3-2-5-6.4-5.4-9c-0.1-0.7-0.3-1.6-0.4-1.9c-0.1-0.3-0.6-0.8-1.1-1.3c-0.8-0.9-1.8-1.9-2.6-3.5c-1.2-2.3-1.1-4.4-1.1-6
						l0-0.7c0-1.4,0.1-2.6,0.3-3.7c0.2-1.3,0.3-2.3,0.1-3.1c-0.3-1-0.4-2-0.5-3c0-0.5-0.1-0.9-0.2-1.4c-0.1-0.1-0.2-0.3-0.4-0.5
						c-0.4-0.6-0.9-1.4-1.2-2.5c-1.7-4.8-0.3-9,0.8-12.4c0.7-2.1,1.3-3.9,1-5.4c-0.5-3.5-1.2-7.8,2-11.5c0-1.4,0.1-2.6,0.3-3.9
						c-1.1,0.7-2.3,1.1-3.8,1.1c-0.1,0-0.5,0-0.6,0c-2.4-0.2-4.3-1.7-5.1-3.9c-1.8-5.1,3.6-12.2,4.4-13c0.5-0.5,0.9-0.9,1.4-1.3
						c1.1-1,1.4-1.2,1.7-2.3c0.4-1.3,1-2.4,1.7-3.6c0.3-0.6,0.6-1.1,0.9-1.7c0.2-2.5,0.9-5.2,2.2-7.8c0.6-1.2,1.3-2,1.9-2.6
						c0.4-1.1,0.7-2.6,2.1-4c0.9-0.9,2.1-1.4,3.4-1.4c0.4,0,0.8,0,1.1,0.1c0.3,0.1,0.6,0.2,0.8,0.3c1.3-1,2.7-1.9,4.1-2.3
						c0.3-0.1,0.7-0.1,1-0.1c0.6,0,1.2,0.1,1.8,0.3c2.4-1.8,5.5-2.8,8.7-2.9c0.1,0,0.1,0,0.2,0c0.8,0,1.3,0,1.8,0.1
						c0.3,0,0.6,0.1,0.9,0.1c0,0,0.1-0.2,0.3-0.3c0.7-0.5,1.6-1.3,2.8-1.8c1.3-0.6,2.8-0.8,4.3-0.8c1.9,0,3.8,0.4,5.8,1.2
						c0.6,0.1,1.1,0.3,1.7,0.5c0.9-1.3,2.1-2,3.3-2.4c-1.1-0.3-2.1-0.7-2.8-1.1c-0.5-0.2-1.1-0.5-1.3-0.5c-1.2-0.1-3.8-0.2-5.5-2.3
						c-0.6-0.8-0.9-1.6-1-2.4l-0.4,0.1l-1.2,0.4c-1.7,0.5-3.5,1.2-5.6,1.4c-1.4,0.2-2.8,0.2-4.2,0.3c-2.5,0.1-4.4,0.2-6.5,1
						c-0.4,0.2-1,0.7-1.6,1.3c-1.5,1.3-3.7,3.4-7.2,3.6c-0.1,0-0.1,0-0.2,0c-1.4,0-2.4-0.1-3.5-0.3c-0.8-0.1-1.6-0.2-2.4-0.2
						c-0.8,0.6-1.9,0.7-2.8,0.7c-2.5,0-4.8-2-4.9-4.5c0-0.7-0.4-1.3-0.9-1.7l-0.6-0.4c-0.8-0.6-2.7-1.9-3.5-2.1
						c-0.1,0-0.8,0.3-1.2,0.5c-1,0.4-2,0.9-3.1,1.1c-0.8,0.2-1.5,0.3-2.2,0.3c-2.3,0-3.7-1-4.5-1.8c-1.2-1.2-1.6-2.7-1.8-4
						c-0.2,0.1-0.3,0.2-0.5,0.3c-1.2,0.7-2.7,1.4-4.1,2l-1.5,0.7c-0.7,0.3-1.2,0.7-1.8,1.1c-1,0.7-2,1.3-3.1,1.9
						c-1.4,0.6-2.7,0.9-3.7,1.1c-0.6,0.1-1.2,0.2-1.5,0.4c-0.3,0.2-0.9,0.6-1.4,1.1c-0.9,0.8-2,1.8-3.6,2.6
						c-2.2,1.1-4.3,1.6-6.7,1.6c-0.9,0-1.9-0.1-2.8-0.2c-0.7-0.1-1.4-0.1-2.2-0.1c-0.3,0-0.7,0-1,0.1c-0.3,0.2-1.1,0.4-2.1,0.4
						c-1.2,0-3.6-0.4-5.1-3.4c-0.2-0.3-0.3-0.6-0.4-1c-0.1,0-0.1,0-0.2,0.1c-3.3,1.3-7.4,3-10.7,3c-4.2,0-6-2.6-6.5-3.7
						c-3-5.9,3.7-9.9,6.5-11.6c0.4-0.2,0.8-0.4,1-0.6c1.9-1.5,3.2-3.5,4.8-5.8l1.1-1.6c2.3-3.3,5.1-6.6,10-8.9
						c0.1,0,0.1-0.1,0.2-0.1c0.6-0.4,1.1-0.9,1.7-1.4c0.6-0.5,1.1-1,1.8-1.5c-0.5,0.1-1.1,0.1-1.7,0.1c-1.3,0-2.6-0.2-4.1-0.6
						c-0.6-0.2-1.1-0.3-1.6-0.3c-0.5,0-1.2,0.1-2.7,1.1c-1.5,1.1-3.3,2.5-5.8,2.5c-0.5,0-1.5-0.1-1.9-0.3c-1.5-0.5-2.7-1.4-3.4-2.8
						c-0.4-0.1-0.7-0.2-1-0.3c-1-0.5-1.8-1.1-2.3-1.7c-0.6-0.1-1.3-0.2-2-0.5c-0.4-0.2-0.7-0.4-1-0.6c-0.6,0.2-1.2,0.3-1.9,0.3h0
						c-3.7,0-5.2-2.3-5.6-3.1c-0.1-0.1-0.3-0.1-0.5-0.1h-0.2l-0.9-4.7L553.4,70.6z"/>
				</g>
				<g>
					<path class="st6" d="M553.4,70.6c-3.7,0-5.4-1.1-7.1-3c-0.1-0.2-0.3-0.3-0.5-0.5c-0.2,0-0.4-0.1-0.6-0.1
						c-0.7,0.3-1.4,0.5-2.1,0.5c0,0-0.1,0-0.1,0c-0.3,0-0.5,0-0.8,0.1c-0.7,0.1-1.3,0.2-2,0.2c-0.1,0-0.8,0-0.9,0
						c-1.8-0.2-3.1-0.8-3.9-1.2c-0.2-0.1-0.4-0.2-0.7-0.3c-0.3-0.1-0.6-0.1-0.9-0.2c-0.9-0.1-1.9-0.3-3.1-0.7
						c-0.9-0.3-1.6-0.7-2.2-1.1c-0.2-0.1-0.3-0.2-0.5-0.3c-0.9,0.2-1.4,0.2-2,0.2c-2.2,0-4-0.9-5.4-2.7c-0.4-0.6-0.7-1.1-0.9-1.7
						c-0.1-0.1-0.3-0.2-0.4-0.3c-0.2-0.1-0.3-0.3-0.4-0.4c-0.9,0.6-2.1,1.1-3.6,1.1c-1.3,0-2.6-0.5-3.5-1.5
						c-0.5-0.5-0.9-1.2-1.1-1.8c-5.3,0.2-10.2,0.2-15.2,0.2l-5,0l-5.2,0c-189.5-7-289.1-30.1-377-50.5C100,4.5,91.8,2.6,83.7,0.7
						c0.3,1.7,0,3-0.6,4.5c-0.1,0.3-0.3,0.7-0.4,1.2c-0.1,0.5-0.1,0.8,0.1,2c0.1,0.7,0.2,1.3,0.3,2c0.1,1.4,0.1,2.4,0.1,3.5
						c0,0.4,0,0.8,0,1.3c0.7,1.3,1.6,3.3,0.8,5.6c-0.5,1.4-1.5,3.1-3.8,3.8c-0.1,0.3-0.1,0.8-0.2,1.6L80,27
						c-0.3,2.7-0.6,4.7-2.2,7.6c-1.9,3.5-3.8,4.3-6.2,5.2L70.8,40l-0.6,0.3c-1.5,0.7-3.7,1.6-5.9,1.6c-2.9,0-5.2-1.6-6-4.3
						c-0.5-1.6-0.3-2.9,0.2-4.1c0,0-0.1-0.1-0.1-0.1c-0.8-0.9-1.8-2.6-1.6-5.1c0.1-1.5,0.9-3.6,3.4-4.9c0,0,0,0,0,0
						c0.3-0.7,0.6-1.7,1.3-2.8c1.1-1.7,2.4-2.8,3.6-3.5c-1.7-1-4-1.6-6.3-2.3c-0.8-0.2-1.7-0.5-2.5-0.7c-3.6-1.1-6-1.9-9.4-5.1
						c-0.5-0.5-1.1-1.1-1.6-1.7c-0.2,0.8-0.4,1.4-0.4,1.9c0,0,0,0,0,0c0,0,0.3,0.6,0.5,1c0.5,1.1,1.2,2.5,1.4,4.1
						c0.3,2-0.1,3.6-0.4,4.8c-0.1,0.4-0.2,0.8-0.2,1.2c-0.1,1,0.2,1.7,0.9,3.1c0.4,0.9,0.8,1.8,1.2,2.9c0.5,1.5,0.5,3.1,0.4,4.6
						c0,0.3,0,0.8,0,1.2c0.6,0.5,1.1,1.1,1.4,1.8c0.7,1.6,0.5,3.5-0.6,4.9c-0.3,0.4-0.7,0.8-1.1,1.1c1.1,3.3,0.5,5.9-0.7,7.9
						c3.3,1.8,6,3.9,8.9,7.4c1.1,1.3,1.4,3.1,0.8,4.8c-0.6,1.6-2.1,2.7-3.8,3c-0.2,0-0.7,0.1-0.9,0.1c-2.7,0-4.8-1.4-6.4-2.5
						c-0.4-0.3-1.1-0.7-1.4-0.9c0,0.8,0,1.7-0.3,2.7c-0.4,1.5-1.1,2.5-1.6,3.3c-0.1,0.2-0.3,0.4-0.4,0.7L40.5,71l-1,2.6l-0.2,0.8
						c-0.1,3.9-1.9,7.3-3.4,10.1c-0.4,0.8-0.8,1.5-1.2,2.2c-1.7,3.6-3.2,7.5-4.8,11.8c-0.5,1.3-0.9,2.6-1.3,3.8
						c-0.9,2.6-1.7,5.3-3.1,8.2c-1.2,2.4-2.6,4.5-4,6.5c-1,1.5-2,3-2.9,4.6c-0.6,1-1.1,1.9-1.6,2.8c-1.7,2.9-2.5,4.2-2.5,7.4
						c0,0.3,0,0.6-0.1,0.9l-0.2,1.2c-0.1,2.5-0.8,4.6-1.4,6.5c-0.6,1.8-1.1,3.3-0.9,4.4c0.1,0.6,0.3,1.1,0.4,1.5
						c0.4,1.2,1,2.9,0.8,5.3c-0.1,0.6-0.1,1.1-0.2,1.7c-0.2,1.1-0.3,2-0.2,3.1c0.2,4.4-1,7.6-2.1,10.4c-0.5,1.3-1,2.6-1.4,4.1
						c-0.1,0.6-0.2,1.1-0.3,1.6c-0.4,1.8-0.8,3.9-2.3,6.2c-1.1,1.6-2.4,2.8-3.5,3.8c-0.8,0.7-1.4,1.3-1.9,1.9
						c-1.1,1.6-0.2,6,2.1,10.4c0.1,0.2,0.2,0.5,0.3,0.7l0.1,0.2c4.2,5.5,2.1,11.4,0.9,14.6c-0.4,1.1-0.3,1.9-0.1,3.6
						c0.2,1.3,0.4,3,0.3,5c-0.1,1.3-0.5,2.4-0.8,3.1c0,0.1-0.1,0.1-0.1,0.2c0.3,0.5,1,1.3,1.4,1.8c0.5,0.6,0.9,1.1,1.3,1.7
						c1.6,2.2,2.4,4.6,3.2,6.6c0.6,1.7,1.2,3.3,2.1,4.5c0.1,0.1,0.2,0.3,0.3,0.5c1.1,1.1,2.2,2.5,2.8,4.4c0.5-0.1,1-0.2,1.4-0.2
						c1.4,0,2.4,0.5,3.1,0.8c0.7-0.3,1.5-0.5,2.5-0.5c0.4,0,1.2,0.1,1.6,0.2c1.9,0.5,3,1.6,3.6,2.3c0.2,0,0.5,0,0.8,0
						c5.5,0.4,8.3,2.6,8.5,6.6c0.1,2.5-1.8,4.6-4.2,4.9c-1.3,0.1-2.5,0.2-3.7,0.2c-1.8,0-3.6-0.2-5.3-0.5c0.2,1.7,0.5,3.5,0.8,4.8
						c0.3,1.7-0.3,3.5-1.7,4.6c-0.9,0.7-1.9,1-2.9,1c-0.6,0-1.3-0.1-1.9-0.4c-0.2-0.1-0.4-0.2-0.6-0.3c-0.1,0.2-0.2,0.4-0.2,0.6
						c-0.2,0.5-0.5,1.2-0.5,1.5c0,0.3,0,0.6,0,0.7c0,0,0.1,0,0.1,0c0.2,0,0.5,0.1,0.7,0.2c1.9,0.6,5,1.6,6.8,5.3l0.6,1.2
						c0.2,0.4,0.3,0.8,0.4,1.3c0.8,4.4-1.3,7.4-2.7,9.3c-0.7,1-1.1,1.6-1.1,2c0,0.5,0,0.5,0.6,1.2c0.6,0.8,1.2,1.6,1.7,2.8
						c0.9,1.8,1.1,3.5,1.3,4.8c0.1,0.6,0.1,1.1,0.3,1.7c1.1,3.6,2.5,7.6,4.8,10.4c2,2.4,2.5,3.6,3.3,5.7l0.3,0.8
						c0.1,0.3,0.4,0.6,0.6,0.9c1,1.4,2.7,3.9,2.3,7c0,0.3-0.1,0.5-0.2,0.8l0,0.1c0.1,2.6-0.4,4.7-0.9,6.4c-0.3,1.2-0.6,2.1-0.6,3.2
						c2.5,0.9,3.6,1.6,5.4,3c0.5,0.4,0.7,0.5,0.9,0.6c0,0,0.1,0,0.3,0c0.1,0,0.2,0,0.4,0l1.1,0.1c3.2,0.2,4.5,0.8,6.3,2.3
						c0.3,0.2,0.6,0.5,1.1,0.8c0.5,0.3,1,0.6,1.5,0.9c1.2,0.7,2.6,1.5,4,2.8c1.3,1.2,2,2.5,2.6,3.6c0.3,0.5,0.5,0.9,0.8,1.3
						c0.8,1,2.8,2.2,3.6,2.5c0.4,0.1,0.8,0.2,1.2,0.3c2,0.4,6.8,1.3,7.7,7.5c0,0.3,0,0.5,0,0.8c1.2,0.5,2.6,1.2,4,2.2
						c8.6,3.1,16.6,18.5,14.3,27.6l-0.2,1c-0.1,0.5-0.3,1.1-0.4,1.6c0.2,0,0.4,0.1,0.7,0.1c2.1,0.3,4.2,0.8,6.3,1.2
						c1.8,0.4,3.5,0.8,5.3,1.1c1.9,0.3,3.8,0.3,5.7,0.4c3,0.1,6,0.2,9.2,0.9c2.9,0.1,15.1,0.8,18.5,6.3c0.3,0.5,0.6,1,0.7,1.6
						l67.8,38.5l48.4,6.6l0.7-5.9c0.2-1.3,0.8-2.4,1.8-3.2c0.8-0.6,1.8-1,2.9-1c0.2,0,0.5,0,0.7,0.1l32.1,4.7
						c7.9,0.2,9.1,5.3,9.6,7.5c0.3,1.2,0.5,1.9,1,2.5c1.2,1.4,2.7,2.7,4.2,4c2.6,2.3,5.4,4.8,7.4,7.9c0.6,1,1,1.8,1.4,2.6
						c0.1,0.3,0.3,0.7,0.4,0.8c0,0,0.2,0.2,0.8,0.5c3.3,1.7,4.8,2.5,7,6c1.4,2.2,2,4.1,2.5,5.8c0.2,0.6,0.4,1.1,0.6,1.7
						c0.1,0.1,0.6,0.6,0.9,0.9c1.1,1,2.8,2.5,3.4,5c0.5,1.9,0.3,3.7,0.2,5.2c-0.1,0.8-0.2,1.8-0.1,2.1c0.5,1.3,1.7,2.8,3.4,4.1
						c0.7,0.3,1.2,0.7,1.7,1.1c1.2,1.3,1.9,2.6,2.5,3.8c0.3,0.6,0.6,1.2,1,1.7c0.2,0.3,0.2,0.3,1.1,0.6c0.8,0.3,1.8,0.7,3,1.4
						c2,1.2,3,2.8,3.8,3.9c0.3,0.4,0.6,0.9,0.8,1.1c0.2,0.1,0.7,0.2,1.1,0.2c0.9,0.1,1.8,0.3,2.7,0.6c0.2,0.1,0.4,0.1,0.6,0.2
						c0.5-0.8,1.2-1.7,2.2-2.4c0.6-0.4,1.3-0.7,1.9-0.9c0-0.1,0-0.2,0.1-0.3c0.2-1.3,0.5-2.5,0.9-3.5c0.1-0.3,0.3-0.8,0.4-1.2
						c0.5-1.7,1.2-3.7,2.6-5.3c1.7-1.9,5.5-3.8,7.6-4.8c1.4-0.6,2.7-0.9,3.9-0.9c2.2,0,3.7,1,4.4,1.6c0.4,0.3,0.4,0.3,0.6,0.3l0.7,0
						c0.9,0,9.1,0.1,13.9,2.6c2.8,1.4,3.9,3.6,4.6,5.1c0.3,0.7,0.6,1.1,0.8,1.3c0.6,0.5,1.3,0.9,2,1.3c1.2,0.7,2.5,1.5,3.8,2.7
						c4,3.7,5.9,8.8,7.5,13l0.5,1.5c0.7,1.8,1.6,3.6,2.4,5.3c0.6,1.3,1,2.4,1.4,3.7c0.3,0.9,0.8,2.4,1.1,2.8
						c0.4,0.3,0.5,0.5,0.7,0.9c3.4,2.7,7,5.9,8.6,11.2c0.3,1.1,0.4,2,0.5,2.9c0,0.2,0,0.4,0.1,0.6c0,0,0.1,0,0.1,0
						c0.2,0,0.5,0.1,0.8,0.2c1.8,0.7,4.7,1.8,5.9,5c0.8,2.2,0.2,4.3-0.2,5.7c-0.1,0.3-0.2,0.6-0.3,0.9c0.1,0.7,0.7,2.8,1.2,4.2
						c0.2,0.7,0.7,1.5,1.3,2.3c0.8,1.2,1.7,2.6,2.2,4.3c0.3,0.8,0.4,1.5,0.6,2.3c0.2,1.1,0.3,1.5,0.6,1.9l0.6,0.8
						c0.6,0.5,1.2,0.7,2,1.1c0.8,0.4,1.7,0.8,2.6,1.4c1.2,0.7,2,1.5,2.8,2.2c0.8,0.7,0.9,0.8,1.3,0.9l1.6,0.5
						c3.4,1,6.7,1.9,10.2,2.7c2.5,0.5,4.6,2,6.5,3.2c0.5,0.3,1.2,0.8,1.9,1.2c-0.4-0.9-0.9-1.8-1.1-2.3l-0.5-0.9l-0.5-1
						c-1.3-2.5-2.1-4.2-2.2-7.8c0-0.8-0.2-1.7-0.3-2.5c-0.3-1.5-0.5-3.3-0.4-5.2c-0.2-1.5,0-2.7,0.4-3.8c-1.2-0.7-2.3-1.6-2.7-3.2
						c-0.5-1.8-0.2-3.6,0.8-5.1c1.8-2.5,4.7-2.6,6.5-2.6c0.1-0.2,0.2-0.6,0.3-0.8c0,0-0.1-0.1-0.2-0.1c-0.6-0.6-1.3-1.3-2-2.3
						c-1.3-1.9-1.1-4.3,0.5-6c0.9-0.9,2.3-2,4.4-2.3c-0.3-1.9,0.6-3.8,2.4-4.8c1.9-1,3.5-1.3,4.6-1.5c0.1,0,0.2,0,0.3-0.1
						c-0.1-1.7,0.3-4.8,4.7-5.9c-0.2-0.7-0.4-1.4-0.3-2.3c0.1-1.8,1-3.5,2.6-4.7c1.3-1,2.8-1.1,3.7-1.1c1.6,0,3.8,0.4,6.5,0.8
						c0.8,0.1,1.4,0.3,1.7,0.3c1.2,0.1,2.4,0.2,3.5,0.2c3.5,0,6.1-0.7,8.8-2.6c0.3-0.5,0.8-1,1.3-1.4c1.4-0.9,2.5-2.3,3.8-4
						c0.3-0.6,0.7-1.6,1.7-2.5c0.3-0.3,0.5-0.5,0.8-0.7c-0.2-0.3-0.3-0.6-0.4-0.8c-0.3-0.6-0.5-1-0.7-1.3c-0.5-0.9-1.5-2.7-0.7-4.9
						c0.8-2.2,2.6-2.9,3.4-3.2c0.3-0.1,0.6-0.2,1.1-0.5l0.6-0.3c1.5-0.8,3.3-1.8,5.4-1.8c1.9,0,3.5,0.8,4.6,2.3c0.7,1,1.1,2,1.3,3
						c1.9-0.5,4.1-1.6,5.3-2.5c0.5-1.4,0.7-2.4,1.3-3.6c1.9-4,4.4-4.8,6.2-4.8c1.1,0,2.2,0.4,3.2,1c1.6-2.8,3.7-3.4,5.3-3.4
						c1.9,0,3.7,1,4.7,2.7c0.8,1.3,1.2,2.9,1.2,4.6l0.5,0c3.5,0,6.7,1,9.5,1.9c1.6,0.5,3.1,1,4.4,1.2c0.1-0.7,0.3-1.4,0.7-2.1
						c1.4-2.2,3.6-2.5,5.2-2.7l1.3-0.2c0.6-0.1,1-0.2,1.4-0.3c0.6-0.1,1.4-0.3,2.3-0.3c1.5,0,2.8,0.5,3.6,0.9
						c0.6,0.3,1.1,0.7,1.5,1.2c0.1,0,0.2,0,0.3,0c0.7,0,1.9,0.3,2.6,0.6c1.1,0.6,1.9,1.4,2.4,2.2c0.5,0,1.2,0.2,1.9,0.4
						c2,0.7,7.8,4.3,8.2,9.1c0,0,0,0,0.1,0c0.7-0.4,1.6-0.6,2.7-0.6c0,0,0.1,0,0.1,0c1-1.9,2.8-4,6.5-4c0.6,0,1.3,0.1,2,0.2
						c0.7,0.1,1.3,0.4,1.9,0.8c0.6-2.1,1.7-3.4,3.6-4.4c0.8-1,2-1.8,3.3-2c0.1,0,0.1,0,0.2,0c0.1-0.2,0.1-0.3,0.2-0.5
						c-0.5-0.6-0.9-1.3-1.1-2.2c0-0.2-0.1-0.5-0.1-0.7c-1,0.4-2.5,1-4.4,1c-0.2,0-0.8,0-1,0c-1.5-0.1-2.7-0.6-3.5-1
						c-0.1,0-0.1-0.1-0.2-0.1c-0.1,0-0.2,0-0.2,0c-1.2,0-2.4-0.4-3.2-1.3c-0.2,0-0.4-0.1-0.5-0.1c-1.3-0.3-3.5-0.8-4.9-2.9
						c-2.1-3.3-0.2-7.3,1.8-9c0.6-0.6,2.1-1.9,4.2-1.9c0.6,0,1.2,0.1,1.8,0.4c0.8-0.9,2-1.7,3.7-2c0.2,0,0.4,0,0.6,0
						c2,0,3.7,1.1,5.5,2.3c0.5,0.3,0.9,0.6,1.3,0.8c0.5,0.1,1.1,0.4,1.7,0.6c1.2,0.4,2.2,0.8,2.8,0.8c0.1,0,0.5,0,1.5-0.6
						c0.3-0.2,0.8-0.5,1.2-0.8c2.4-1.7,5.8-4.1,9.4-4.1c1.6,0,3.1,0.5,4.4,1.3c0.7,0,1.4,0,2,0.1c1.2,0,2.3,0.1,3.5,0.1
						c0.5,0,1-0.2,1.7-0.3c0.5-0.1,1-0.2,1.5-0.3c0.2-1.7,0.5-3.7,1.8-5.4c0.7-1,2.6-3.6,5.7-3.6c5.1,0,5.7,5.6,5.9,7.8
						c0,0.1,0,0.3,0,0.4c0.4,0.2,0.8,0.5,1.3,0.8c0.9-1.4,2.3-2.8,4.4-3.4c0.4-0.1,0.9-0.2,1.3-0.2c0.8,0,1.5,0.2,2.2,0.6
						c0.2-0.2,0.4-0.4,0.6-0.6c0.8-0.8,1.4-1.4,2.1-1.9c0.8-0.5,1.7-0.7,2.6-0.7c0.8,0,1.6,0.2,2.3,0.6c0.9,0.5,1.5,1.2,2,2l0.3,0h0
						c0.2,0,0.6,0,0.8,0c0.2,0,0.4,0,0.6,0c0.8-1.8,2.3-3,4.5-3.8c0.9-0.3,1.8-0.4,2.8-0.4c3.9,0,8,2.5,8.4,6.2
						c0.2,0,0.3,0.1,0.5,0.1c1.3-0.8,3-1.3,5.3-1.3c0.6,0,1.3,0,1.9,0.1l0.7,0c2,0.1,3.8,1.5,4.3,3.5c0.2,0.8,0.4,2.1,0.1,3.4
						c0.7,0.6,1.3,1.3,1.8,2.1c0.9,1.5,1.2,2.6,1.4,3.4c0.4,0.2,0.9,0.4,1.7,0.4c1.6,0,3-0.6,3.5-1l0.1-0.1c0.1-0.2,0.2-0.4,0.4-0.6
						c2.1-3,4.9-3.4,6.3-3.7l-0.1,0.6c0.8-2.7,2.3-4.3,5.3-5.3c2.1-0.7,3.9-1.1,5.7-1.1c4.8,0,8,2.4,11.5,5.3c0.4,0.3,0.8,0.7,1.3,1
						l1.1,0.8l1.2,0.8c1.6,1.1,1.7,1.2,2.1,1.7c1.2,1.4,1.8,2.9,2.2,4c0.4,1,0.5,1.3,0.8,1.5c1.2,1,3.5,2.6,4.9,3.3
						c0.5,0.3,0.9,0.4,1.3,0.5c1.4,0.4,3.5,1,5.6,3.6c4,4.9,5.8,13.7,5.5,19.5l0,0.7c0,0.9-0.3,1.8-0.7,2.5c0.5,0.1,1,0.2,1.6,0.4
						c4.8,1.4,7.3,6.1,6,10.8c-0.7,2.4-2.3,3.9-3.5,4.9c0.1,0.1,0.2,0.2,0.2,0.3c0.8,0.8,1.5,1.7,1.9,2.4c0.8,1.2,1.4,2.6,2,4
						c1-0.8,2.2-1,3.2-1c1.4,0,2.9,0.6,4.2,1.7c2.8,2.3,2.4,6.1,2.1,9.1c0,0.4-0.1,0.9-0.1,1.2c1.6,0.6,3.9,1.7,5.1,4.7
						c0.6,0.9,0.9,2,0.8,3c0,0.2,0.4,0.8,0.7,1.2c0.3,0.4,0.6,0.9,0.9,1.4c0.4,0.8,0.8,1.7,1.2,2.6c3.5,0,9.5,1.8,11.4,5.5
						c0.4,0.8,0.6,1.6,0.5,2.5c2.8,2.1,5.4,4.1,6.6,6.3c2.5-0.9,4.5-2.1,4.9-2.8c0-0.1-0.1-0.9-0.2-1.5c-0.3-1.7-0.6-4,0.3-6.5
						c0.3-0.9,0.6-1.6,0.9-2.2c0.6-1.3,0.8-1.7,0.8-3.3c0-2.1,0.2-4.2,0.4-6.3c0.3-2.5,0.5-4.9,0.3-7.2c-0.2-2.3-1.4-4.4-2.7-6.9
						c-1-1.9-2.2-4.1-2.9-6.5c-0.6-0.4-1-1-1.3-1.6c-1.3-2.4-2.5-4.9-3.7-7.3c-2.8-5.6-5.4-10.8-8.8-16l-0.6-0.9
						c-1.1-1.6-2.5-3.6-3.1-6c-0.4-1.4-0.4-2.7-0.5-3.8c0-0.5,0-1.2-0.1-1.4c-0.6-1.9-3-5.5-6.3-9.7l-0.3-0.3
						c-0.8-0.8-1.3-1.8-1.4-2.9c-0.2-2.6-1.9-5.5-3.6-8.5c-1.9-3.3-4.1-7.1-4.8-11.4c-0.4-2.2-0.9-4.3-1.5-6.5
						c-1.1-4.3-2.3-8.8-2.1-13.7c0-0.6,0.1-1.2,0.4-1.7c-0.1-0.3-0.2-0.5-0.3-0.8c-0.4-1.9,0.3-3.9,2-5c0.3-0.2,0.7-0.4,1.2-0.7
						c0-0.1,0-0.2,0-0.3c0-0.2,0-0.5,0.1-0.7c0,0,0-0.1,0-0.1c-0.9-1.1-1.3-2.6-0.9-4.1c0.3-1.4,1.3-2.6,2.6-3.2
						c0.1-1.6,0.9-2.9,2.2-3.7c0.3-0.4,1-1.6,2.2-4.4c0.2-0.6,0.2-1-0.1-2.5c-0.3-1.3-0.6-2.8-0.5-4.7c0.1-1.4,0.8-2.6,2-3.4
						c0.8-0.6,1.8-0.9,2.7-0.9c0.1,0,0.3,0,0.4,0c0.7-0.7,1.5-1.2,2.5-1.4c0.3-0.1,1.2-0.2,1.5-0.2c0.9,0,1.7,0.2,2.3,0.3
						c0.3-0.2,0.7-0.5,1.2-0.8c0.7-0.4,1.4-0.7,2-1c1-0.5,1.8-0.9,2.5-1.4c1-3.3,3.8-6,5.9-8l0.5-0.5c0.5-0.5,0.9-1,1.3-1.4
						c1-1.1,1.9-2,3.1-2.7c-0.4-1.1-0.4-2.4,0.1-3.6c0.4-0.9,1-1.6,1.7-2.1c0-0.1,0-0.2,0-0.3c0.2-1.3,0.4-2.8,1.3-4.3
						c1.2-2,3.1-3.8,4.8-5.3c0.5-0.5,1-0.9,1.4-1.3c3.8-3.8,7.8-4.3,10.9-4.7c0.6-0.1,1.3-0.2,1.8-0.3c0.6-3.3,1.8-5.8,3.2-8.6
						c1-1.9,2.1-3.1,3-4.1c0.4-0.4,0.8-0.8,1-1.2c0-0.6,0-1.2,0.1-1.5c-0.1-0.7-0.2-2.4,0.9-4.2c0.9-1.5,2.4-2.3,4.1-2.3
						c0.6,0,1.1,0.1,1.7,0.3c0.4,0.2,0.8,0.4,1.2,0.6c0.3-0.3,0.6-0.5,0.9-0.8c-1.3-0.8-2.2-1.8-2.8-2.6c-0.7-1.1-0.9-2.5-0.5-3.8
						c0.4-1.3,1.3-2.4,2.5-3c0.5-0.2,1.1-0.4,1.6-0.6c-1.5-0.8-2.7-1.9-3.7-3.3c-0.9-1.5-1-3.3-0.1-4.9c0.8-1.5,2.4-2.4,4.1-2.4
						c0,0,0.1,0,0.1,0c1.1,0,2.1,0.2,3.2,0.3c0.4-0.7,1-1.3,1.7-1.7h0c-2.9,0-4.7-1.3-5.7-2.4c-2.7-2.9-2.7-7.2-2.4-11.4
						c0.2-2.4,2.1-4.3,4.5-4.4h0c2.7,0,4.2,1,5,1.9c0.2,0.2,0.5,0.5,0.6,0.8c0.4-0.1,0.8-0.1,1.2-0.1c0.1,0,0.1,0,0.2,0
						c0.9-0.8,1.9-1.2,3-1.6c0.1,0,0.1,0,0.2-0.1c0-0.5-0.1-1-0.1-1.5c-1-1-1.7-2.1-2-3.4c-0.2-0.8-0.2-1.6-0.1-2.3
						c-0.1,0-0.3,0.1-0.4,0.1c-1.3,0.4-2.7,0.6-4,0.6c-3.3,0-6.5-1.3-9.2-3.7c-0.1-0.1-0.3-0.1-0.4-0.2l-1.1-0.7
						c-0.8-0.5-1.6-1-2.3-1.3c0,0-0.1,0-0.3,0c0,0-0.1,0-0.2,0c-1,0-2.6-0.1-4.2-0.9c-4.1-2.1-3.9-5.2-3.6-6.4
						c1-4.2,5.8-4.2,7.6-4.2c0.3,0,0.6,0,0.9,0c0.2-0.5,0.5-1.1,1-1.6c-1.1-0.9-2-2-3-3c-2.3-2.4-4.5-5.3-3.6-8.6
						c0.3-1.2,1-2.2,2-2.9c-0.2-0.9-0.1-1.7,0.1-2.4c0.2-0.6,0.5-1.2,0.9-1.7c-1.2-1.8-1.8-4.2-0.4-7c0.4-0.8,0.9-1.4,1.6-1.9
						c-0.2-1.7,0.1-3.1,0.3-4c0.1-0.5,0.2-0.8,0.2-1.1c0-0.2,0-0.6,0-0.8c0-0.2-0.3-0.8-0.5-1.2c-2.2-4.4-1.1-6.5,1.3-9
						c2-2,4-4.4,5.5-6.6c0.9-1.3,2.4-2,3.9-2c0.4,0,0.8,0,1.2,0.1c0.5,0.1,1,0.3,1.5,0.6c0-2.9,0.9-5.8,3-7.8
						c0.9-0.9,2.1-1.3,3.3-1.3c0.4,0,0.7,0,1.1,0.1c1.6,0.4,2.9,1.6,3.4,3.1c0.6,1.7,0.6,3.3,0.6,4.6c0,0.7,0,1.5,0.2,1.8l0.6,1.2
						c0.3,0.7,0.9,2,1.3,2.2c0,0,0.1,0,0.1,0c0.1,0,0.4,0,1,0l0.4-0.1c0.8-0.2,1.6-0.3,2.5-0.3c0.6,0,1.4,0.1,2,0.3
						c0.1,0,0.2,0.1,0.3,0.1c0,0,0-0.1,0-0.1c0.3-0.8,0.5-1.6,0.9-2.4c0.8-1.6,1.8-2.6,2.5-3.3c0.3-0.3,0.6-0.6,0.7-0.8
						c1.3-2,2.1-4.7,2.2-7.4c0-0.3,0-0.5,0-0.6c-0.3-0.4-0.6-0.9-0.8-1.6c-0.3-0.9-1-3.7,0-6.4c0-0.2,0-0.4,0-0.5c0-0.1,0-0.2,0-0.3
						c-2.8-1.1-4.3-3.2-4.4-6.4c-0.2-4.4,2-6.7,3.5-8.2c0.3-0.3,0.6-0.6,0.9-1c1.1-1.4,2.4-3.2,3.2-4.5l0.3-0.7
						c0.1-0.3,0.2-0.5,0.4-0.7c1.5-2.4,3.9-4,5.9-5.2l1-0.7c2.8-1.9,6.2-3.5,9.7-4.5c0.9-0.3,1.8-0.5,2.7-0.7
						c1.3-0.3,2.6-0.6,3.9-1.1c1-0.4,1.9-0.9,2.8-1.4c1.4-0.8,3-1.7,4.9-2.3l0.7-0.3c0.6-0.2,1.2-0.3,1.8-0.3c0,0,0.1,0,0.1,0
						c0,0,0.3-0.2,0.7-0.4l0.1-0.7c0.3-2.9,1-10.5,7.4-10.5c0.4,0,1.2,0.1,1.6,0.2c0.9,0.2,1.6,0.6,2.2,1.2c0.3-0.5,0.8-0.9,1.3-1.4
						c0.2-0.1,0.3-0.3,0.5-0.4c-0.4-0.5-0.8-1.1-1.2-1.9c-0.3-0.7-0.5-1.4-0.5-1.9c-0.1-0.1-0.3-0.2-0.5-0.3l-0.2,0.1
						c-0.8,0.2-1.5,0.4-2.3,0.4c-1.3,0-3.1-0.7-4-1.7c-1.7-1.9-1.5-4.3-1.4-5.6c0.3-3.1,1.5-5,4-6c-0.6-0.8-1-1.7-1.3-2.9
						c-0.2-1-0.2-1.9-0.2-2.5c-0.2-0.3-0.3-0.6-0.4-0.9l-0.2-0.6c-0.2-0.5-0.2-1-0.2-1.5c0-2.8,0.8-4.5,1.4-5.8
						c0.2-0.3,0.3-0.7,0.5-1.1c-0.1-1.3-0.1-2.8,0.7-4.4c0.4-0.9,0.9-1.7,1.4-2.3c0.1-0.2,0.2-0.3,0.3-0.5c0-0.3,0-0.6,0-1
						c-0.1-1.4-0.1-3.1,0.6-4.7c0.6-1.5,1.6-2.4,2.3-2.9c0.2-0.8,0.5-1.8,1.2-2.8c0.5-0.6,1-1,1.5-1.4c0.1-0.4,0.2-0.8,0.3-1.2
						c1.2-2.9,3-4.4,5.4-4.4c0.8,0,1.4,0.2,2,0.4c1-1.6,2.6-2.5,3.3-2.9c0.2-0.1,0.4-0.2,0.5-0.3c0.1-0.1,0.5-1.2,0.7-2l0.3-0.9
						c-0.1-0.6-0.3-1.4-0.3-2.5c0-1.9,0.7-3.5,1.2-4.7c0.1-0.3,0.3-0.6,0.4-0.9c0.6-2.1,2.5-3.4,4.5-3.4c0.3,0,0.5,0,0.8,0.1
						c0.9,0.2,1.9,0.5,2.8,1.1c1-0.6,2-0.8,3-0.8c0.5-0.6,1.9-2,4.2-2c0.3,0,0.7,0,1.1,0.1c0.7-1.6,1.9-3.3,4.6-3.7
						c1-1.4,2.4-3,4.2-4c-0.1-0.5-0.1-1-0.1-1.5l-0.2,0c-2,0-3.6-0.6-4.9-1.9c-1.9-1.9-2-4.1-2-5.2c-0.2-0.3-0.5-0.7-0.7-1.1
						c-5.2-0.7-7.9-3.7-8.2-8.9l0-0.7c0-0.9-0.2-3.1-0.5-4.1c-0.6-0.7-1-1.6-1.1-2.6c-0.3-3.2-1.4-6.5-2.6-10
						c-0.9-2.6-1.8-5.2-2.4-7.9c-1.2-0.7-2.3-1.4-3.3-2.1c-0.9-0.6-1.7-1.2-2.6-1.7c0,0,0,0,0,0c-0.2,0-0.8,0.4-1.3,0.7
						c-0.5,0.3-1.1,0.7-1.7,1l-0.7,0.4c-2.5,1.6-5.1,3.1-7.9,3.1c-1.4,0-2.6-0.4-3.6-1.1c-0.2,0.4-0.4,0.7-0.6,1.1
						c-1.3,2.6-2.3,4.8-3.2,7.1c-0.7,1.8-1,3.1-1,4.6c0,0.6,0.1,1.2,0.2,1.7c0.4,2,0.9,5-1.1,8.2c-0.3,0.4-0.6,0.8-0.9,1.3
						c-0.1,0.2-0.3,0.4-0.4,0.6c0.5,0.8,0.9,1.8,1.1,3c0.8,0.8,1.4,1.9,1.6,3.1c0.2,1.3,0.2,3.5-1.9,5.4c0,0.1,0,0.2-0.1,0.3
						c-0.2,1.1-0.5,2.7-1.5,4.4c-0.4,0.7-0.9,1.3-1.4,1.8c0.6,1.9,1.1,4.3-0.5,6.5c-0.3,0.4-0.6,0.7-1,1c-0.1,0.5-0.4,1.1-0.7,1.6
						c-1.5,2.1-3.3,2.6-4.5,2.6c-0.2,0-0.4,0-0.5,0c-0.6,0.7-1.4,1.4-2.6,1.9c-0.2,0.1-0.5,0.2-0.8,0.3c0,0.1-0.1,0.2-0.1,0.2
						c-0.9,2.7-1.9,4.9-5.6,6.7l-1.2,0.6c-0.7,0.3-1.4,0.5-2.1,0.5c-0.1,0-0.2,0-0.2,0l-0.6,0c-2.6,0-5.8,0.7-8.4,1.2
						c-1.9,0.4-3.8,0.9-5.8,1.4c-4.4,1.1-9,2.2-13.6,2.9c-2.8,0.4-5.9,1-9,1.8c-0.8,0.2-1.7,0.5-2.6,0.8c-2.4,0.8-5,1.7-7.8,1.8
						l-0.6,0.4c-0.7,0.4-1.5,0.6-2.3,0.6c0,0.1-1.2,0.9-4.2,4.4c-1.4,1.7-2.8,4-4.3,7l-0.6,1.3c-1,2.2-2.1,4.7-4.9,6.8
						c0,0.1,0.1,0.1,0.1,0.2c1.4,2.3,0.5,4.6-0.1,5.8c0.1,0.1,0.1,0.3,0.2,0.4l0.2,0.3c1.1,2,2.7,4.7,1.7,7.8
						c-0.4,1.3-1.5,3.2-4.2,4.5c-0.4,0.2-0.8,0.3-1.1,0.5c-1.7,2.1-3.1,3.4-4.8,4.6c-4.2,2.7-10.8,5.7-16.4,5.7
						c-1.8,0-3.5-0.3-5-0.9c-1.3-0.1-2.4-0.4-3.3-0.6c-0.8-0.2-1.6-0.4-2.2-0.4c-1.1,0.1-2.2,0.7-3.4,1.3c-1.4,0.8-3.1,1.7-5.1,2.1
						l-1.2,0.3c0,0-0.1,0-0.1,0c0.2,0.5,0.3,1,0.4,1.5c0.1,0.5,0.3,1.1,0.5,1.6l0.3,0.6c0.8,1.4,2.5,4.5-0.4,8.2l-0.1,0.4
						c-1.4,4.5-6.3,8.4-9.9,11.2l-1.2,1c-3.1,2.6-6.7,5.2-10.8,7.7c-1.7,1.1-3.3,2.2-4.9,3.4c-2.2,1.6-4.4,3.2-6.8,4.6l-2.6,1.5
						c-3.2,1.8-6,3.4-8.5,5.7c-2.7,2.5-4.9,2.8-6.6,3c-0.4,0.1-0.9,0.1-1.5,0.3c-0.8,0.2-1.7,0.6-2.7,1.1c-1,0.5-2,1-3,1.4
						c-0.5,0.2-1.1,0.3-1.6,0.3c-0.1,0-0.2,0-0.3,0c-1.6-0.1-2.8-0.7-3.6-1.4c-1.5,0.6-3.1,1.2-4.9,1.2c-1.4,0-2.8-0.3-4.2-1
						c-0.9-0.4-2.3-0.9-3.2-2.3c-0.2-0.3-0.4-0.7-0.5-1.1c-4.3-2-6.6-5.7-5.8-9.5c0-0.2,0.1-0.4,0.2-0.6c0.3-2.1,1.4-3.8,2.2-5.1
						c0.3-0.6,0.9-1.5,0.9-1.8c0-0.3,0-0.7,0-0.9c0.1-1.9,0.3-3.8,2.6-6.1c0.7-0.7,1-1.2,1.7-2.3l0.4-0.6c0.2-0.3,0.3-0.5,0.5-0.7
						c0-0.9,0-2.1,0.7-3.2c1.4-2.6,3.3-3.3,4.7-3.4c0.1-1,0.2-1.9,0.2-2.5l-0.1-0.2c-0.3-0.5-0.4-1.1-0.5-1.7
						c-0.3-3-1.9-6.8-3.2-9.8c-0.8-1.8-0.9-3.4-1-4.6c0-0.4-0.1-1.1-0.2-1.3c-0.2-0.4-1.3-1.6-2.1-2.5c-0.2,0.1-0.4,0.3-0.6,0.4
						l-1,0.6c-1,0.5-1.4,1.1-2.7,2.9c-0.4,0.6-0.5,1.1-0.7,1.6c-0.5,1.5-1,3-2.2,4.3c-1.9,2-4.9,2.2-6.5,2.2c-1.4,0-2.5-0.2-3.5-0.7
						c-4-1.8-5.3-5.3-4-10.3c0.1-0.3,0.2-0.6,0.2-0.9c-0.2-1.1-0.4-3,0.8-5.1c0.6-1,1.5-1.9,2.7-3c0.3-0.3,0.6-0.5,0.8-0.7
						c0.9-2.1,2.6-3.1,3.6-3.6c0-0.2,0-0.3,0-0.5c0-0.6,0.1-1.1,0.2-1.6c0.1-0.5,0.2-1.1,0.4-1.7c0.2-0.8,0.5-2.3,0.6-3.3
						c-0.4-0.4-0.6-0.9-0.8-1.4c0,0,0,0.1,0,0.1c-0.1,0-0.3-0.2-0.5-0.5c-1.4-1.7-3.4-4.1-3-7.2c0-0.3,0.1-0.6,0.2-0.9
						c-0.2-0.2-0.4-0.4-0.5-0.6c-0.3-0.4-0.5-0.7-0.6-1.1c-0.1,0-0.3,0-0.4,0c-2.5-0.1-3.8-0.7-4.9-1.3c-0.2-0.1-0.4-0.2-0.6-0.3
						c-1.3-0.2-2.6-0.5-4-1.7c0,0,0,0-0.1,0c-1.2-0.7-1.9-1.6-2.5-2.2c0,0-0.1,0-0.1,0c-0.6,0.1-1.2,0.1-1.7,0.1
						c-0.2,0-1-0.1-1.2-0.1c-0.3,0-0.6-0.1-0.8-0.1c0.6,1.1,1,2.4,0.7,3.9c-0.3,1.5-1.2,2.8-2.5,3.7c-1.3,0.9-2.6,1-3.6,1.1
						c-0.1,0.8-0.1,1.4-0.1,2c0.1,2,0.2,4.5-1.1,7.5c-0.6,1.4-2.4,5.5-6.5,5.5c-0.9,0-3.4-0.3-4.8-2.9c-0.2,0.6-0.5,1.3-1,2.1
						c-0.2,0.3-0.4,0.5-0.6,0.7c0.2,1,0.3,1.9,0.3,2.6c0,3.9-0.4,8.4-3.4,12.8c0,0,0,0.1,0,0.1c0.3,0.8,0.6,1.7,0.7,2.6
						c0.3,1.9-0.1,3.3-0.3,4.3c-0.1,0.2-0.1,0.5-0.2,0.7c0,0.4,0.1,0.7,1,2c0.6,0.9,1.2,1.8,1.6,2.8c3,6.5,4.5,12.5,4.5,18.5
						c0,4.2-0.4,7.2-1.2,10.5c0,0,0,0.1,0,0.1c-0.3,7.4-7.7,15.4-11.5,18.3c-2.2,1.7-6.3,2.9-9.6,2.9c-1.6,0-2.9-0.3-4.1-0.8
						c-4.3-2-5-6.4-5.4-9c-0.1-0.7-0.3-1.6-0.4-1.9c-0.1-0.3-0.6-0.8-1.1-1.3c-0.8-0.9-1.8-1.9-2.6-3.5c-1.2-2.3-1.1-4.4-1.1-6
						l0-0.7c0-1.4,0.1-2.6,0.3-3.7c0.2-1.3,0.3-2.3,0.1-3.1c-0.3-1-0.4-2-0.5-3c0-0.5-0.1-0.9-0.2-1.4c-0.1-0.1-0.2-0.3-0.4-0.5
						c-0.4-0.6-0.9-1.4-1.2-2.5c-1.7-4.8-0.3-9,0.8-12.4c0.7-2.1,1.3-3.9,1-5.4c-0.5-3.5-1.2-7.8,2-11.5c0-1.4,0.1-2.6,0.3-3.9
						c-1.1,0.7-2.3,1.1-3.8,1.1c-0.1,0-0.5,0-0.6,0c-2.4-0.2-4.3-1.7-5.1-3.9c-1.8-5.1,3.6-12.2,4.4-13c0.5-0.5,0.9-0.9,1.4-1.3
						c1.1-1,1.4-1.2,1.7-2.3c0.4-1.3,1-2.4,1.7-3.6c0.3-0.6,0.6-1.1,0.9-1.7c0.2-2.5,0.9-5.2,2.2-7.8c0.6-1.2,1.3-2,1.9-2.6
						c0.4-1.1,0.7-2.6,2.1-4c0.9-0.9,2.1-1.4,3.4-1.4c0.4,0,0.8,0,1.1,0.1c0.3,0.1,0.6,0.2,0.8,0.3c1.3-1,2.7-1.9,4.1-2.3
						c0.3-0.1,0.7-0.1,1-0.1c0.6,0,1.2,0.1,1.8,0.3c2.4-1.8,5.5-2.8,8.7-2.9c0.1,0,0.1,0,0.2,0c0.8,0,1.3,0,1.8,0.1
						c0.3,0,0.6,0.1,0.9,0.1c0,0,0.1-0.2,0.3-0.3c0.7-0.5,1.6-1.3,2.8-1.8c1.3-0.6,2.8-0.8,4.3-0.8c1.9,0,3.8,0.4,5.8,1.2
						c0.6,0.1,1.1,0.3,1.7,0.5c0.9-1.3,2.1-2,3.3-2.4c-1.1-0.3-2.1-0.7-2.8-1.1c-0.5-0.2-1.1-0.5-1.3-0.5c-1.2-0.1-3.8-0.2-5.5-2.3
						c-0.6-0.8-0.9-1.6-1-2.4l-0.4,0.1l-1.2,0.4c-1.7,0.5-3.5,1.2-5.6,1.4c-1.4,0.2-2.8,0.2-4.2,0.3c-2.5,0.1-4.4,0.2-6.5,1
						c-0.4,0.2-1,0.7-1.6,1.3c-1.5,1.3-3.7,3.4-7.2,3.6c-0.1,0-0.1,0-0.2,0c-1.4,0-2.4-0.1-3.5-0.3c-0.8-0.1-1.6-0.2-2.4-0.2
						c-0.8,0.6-1.9,0.7-2.8,0.7c-2.5,0-4.8-2-4.9-4.5c0-0.7-0.4-1.3-0.9-1.7l-0.6-0.4c-0.8-0.6-2.7-1.9-3.5-2.1
						c-0.1,0-0.8,0.3-1.2,0.5c-1,0.4-2,0.9-3.1,1.1c-0.8,0.2-1.5,0.3-2.2,0.3c-2.3,0-3.7-1-4.5-1.8c-1.2-1.2-1.6-2.7-1.8-4
						c-0.2,0.1-0.3,0.2-0.5,0.3c-1.2,0.7-2.7,1.4-4.1,2l-1.5,0.7c-0.7,0.3-1.2,0.7-1.8,1.1c-1,0.7-2,1.3-3.1,1.9
						c-1.4,0.6-2.7,0.9-3.7,1.1c-0.6,0.1-1.2,0.2-1.5,0.4c-0.3,0.2-0.9,0.6-1.4,1.1c-0.9,0.8-2,1.8-3.6,2.6
						c-2.2,1.1-4.3,1.6-6.7,1.6c-0.9,0-1.9-0.1-2.8-0.2c-0.7-0.1-1.4-0.1-2.2-0.1c-0.3,0-0.7,0-1,0.1c-0.3,0.2-1.1,0.4-2.1,0.4
						c-1.2,0-3.6-0.4-5.1-3.4c-0.2-0.3-0.3-0.6-0.4-1c-0.1,0-0.1,0-0.2,0.1c-3.3,1.3-7.4,3-10.7,3c-4.2,0-6-2.6-6.5-3.7
						c-3-5.9,3.7-9.9,6.5-11.6c0.4-0.2,0.8-0.4,1-0.6c1.9-1.5,3.2-3.5,4.8-5.8l1.1-1.6c2.3-3.3,5.1-6.6,10-8.9
						c0.1,0,0.1-0.1,0.2-0.1c0.6-0.4,1.1-0.9,1.7-1.4c0.6-0.5,1.1-1,1.8-1.5c-0.5,0.1-1.1,0.1-1.7,0.1c-1.3,0-2.6-0.2-4.1-0.6
						c-0.6-0.2-1.1-0.3-1.6-0.3c-0.5,0-1.2,0.1-2.7,1.1c-1.5,1.1-3.3,2.5-5.8,2.5c-0.5,0-1.5-0.1-1.9-0.3c-1.5-0.5-2.7-1.4-3.4-2.8
						c-0.4-0.1-0.7-0.2-1-0.3c-1-0.5-1.8-1.1-2.3-1.7c-0.6-0.1-1.3-0.2-2-0.5c-0.4-0.2-0.7-0.4-1-0.6c-0.6,0.2-1.2,0.3-1.9,0.3h0
						c-3.7,0-5.2-2.3-5.6-3.1c-0.1-0.1-0.3-0.1-0.5-0.1h-0.2l-0.9-4.7L553.4,70.6z"/>
				</g>
				<g>
					<path class="st2" d="M553.4,70.6c-3.7,0-5.4-1.1-7.1-3c-0.1-0.2-0.3-0.3-0.5-0.5c-0.2,0-0.4-0.1-0.6-0.1
						c-0.7,0.3-1.4,0.5-2.1,0.5c0,0-0.1,0-0.1,0c-0.3,0-0.5,0-0.8,0.1c-0.7,0.1-1.3,0.2-2,0.2c-0.1,0-0.8,0-0.9,0
						c-1.8-0.2-3.1-0.8-3.9-1.2c-0.2-0.1-0.4-0.2-0.7-0.3c-0.3-0.1-0.6-0.1-0.9-0.2c-0.9-0.1-1.9-0.3-3.1-0.7
						c-0.9-0.3-1.6-0.7-2.2-1.1c-0.2-0.1-0.3-0.2-0.5-0.3c-0.9,0.2-1.4,0.2-2,0.2c-2.2,0-4-0.9-5.4-2.7c-0.4-0.6-0.7-1.1-0.9-1.7
						c-0.1-0.1-0.3-0.2-0.4-0.3c-0.2-0.1-0.3-0.3-0.4-0.4c-0.9,0.6-2.1,1.1-3.6,1.1c-1.3,0-2.6-0.5-3.5-1.5
						c-0.5-0.5-0.9-1.2-1.1-1.8c-5.3,0.2-10.2,0.2-15.2,0.2l-5,0l-5.2,0c-189.5-7-289.1-30.1-377-50.5C100,4.5,91.8,2.6,83.7,0.7
						c0.3,1.7,0,3-0.6,4.5c-0.1,0.3-0.3,0.7-0.4,1.2c-0.1,0.5-0.1,0.8,0.1,2c0.1,0.7,0.2,1.3,0.3,2c0.1,1.4,0.1,2.4,0.1,3.5
						c0,0.4,0,0.8,0,1.3c0.7,1.3,1.6,3.3,0.8,5.6c-0.5,1.4-1.5,3.1-3.8,3.8c-0.1,0.3-0.1,0.8-0.2,1.6L80,27
						c-0.3,2.7-0.6,4.7-2.2,7.6c-1.9,3.5-3.8,4.3-6.2,5.2L70.8,40l-0.6,0.3c-1.5,0.7-3.7,1.6-5.9,1.6c-2.9,0-5.2-1.6-6-4.3
						c-0.5-1.6-0.3-2.9,0.2-4.1c0,0-0.1-0.1-0.1-0.1c-0.8-0.9-1.8-2.6-1.6-5.1c0.1-1.5,0.9-3.6,3.4-4.9c0,0,0,0,0,0
						c0.3-0.7,0.6-1.7,1.3-2.8c1.1-1.7,2.4-2.8,3.6-3.5c-1.7-1-4-1.6-6.3-2.3c-0.8-0.2-1.7-0.5-2.5-0.7c-3.6-1.1-6-1.9-9.4-5.1
						c-0.5-0.5-1.1-1.1-1.6-1.7c-0.2,0.8-0.4,1.4-0.4,1.9c0,0,0,0,0,0c0,0,0.3,0.6,0.5,1c0.5,1.1,1.2,2.5,1.4,4.1
						c0.3,2-0.1,3.6-0.4,4.8c-0.1,0.4-0.2,0.8-0.2,1.2c-0.1,1,0.2,1.7,0.9,3.1c0.4,0.9,0.8,1.8,1.2,2.9c0.5,1.5,0.5,3.1,0.4,4.6
						c0,0.3,0,0.8,0,1.2c0.6,0.5,1.1,1.1,1.4,1.8c0.7,1.6,0.5,3.5-0.6,4.9c-0.3,0.4-0.7,0.8-1.1,1.1c1.1,3.3,0.5,5.9-0.7,7.9
						c3.3,1.8,6,3.9,8.9,7.4c1.1,1.3,1.4,3.1,0.8,4.8c-0.6,1.6-2.1,2.7-3.8,3c-0.2,0-0.7,0.1-0.9,0.1c-2.7,0-4.8-1.4-6.4-2.5
						c-0.4-0.3-1.1-0.7-1.4-0.9c0,0.8,0,1.7-0.3,2.7c-0.4,1.5-1.1,2.5-1.6,3.3c-0.1,0.2-0.3,0.4-0.4,0.7L40.5,71l-1,2.6l-0.2,0.8
						c-0.1,3.9-1.9,7.3-3.4,10.1c-0.4,0.8-0.8,1.5-1.2,2.2c-1.7,3.6-3.2,7.5-4.8,11.8c-0.5,1.3-0.9,2.6-1.3,3.8
						c-0.9,2.6-1.7,5.3-3.1,8.2c-1.2,2.4-2.6,4.5-4,6.5c-1,1.5-2,3-2.9,4.6c-0.6,1-1.1,1.9-1.6,2.8c-1.7,2.9-2.5,4.2-2.5,7.4
						c0,0.3,0,0.6-0.1,0.9l-0.2,1.2c-0.1,2.5-0.8,4.6-1.4,6.5c-0.6,1.8-1.1,3.3-0.9,4.4c0.1,0.6,0.3,1.1,0.4,1.5
						c0.4,1.2,1,2.9,0.8,5.3c-0.1,0.6-0.1,1.1-0.2,1.7c-0.2,1.1-0.3,2-0.2,3.1c0.2,4.4-1,7.6-2.1,10.4c-0.5,1.3-1,2.6-1.4,4.1
						c-0.1,0.6-0.2,1.1-0.3,1.6c-0.4,1.8-0.8,3.9-2.3,6.2c-1.1,1.6-2.4,2.8-3.5,3.8c-0.8,0.7-1.4,1.3-1.9,1.9
						c-1.1,1.6-0.2,6,2.1,10.4c0.1,0.2,0.2,0.5,0.3,0.7l0.1,0.2c4.2,5.5,2.1,11.4,0.9,14.6c-0.4,1.1-0.3,1.9-0.1,3.6
						c0.2,1.3,0.4,3,0.3,5c-0.1,1.3-0.5,2.4-0.8,3.1c0,0.1-0.1,0.1-0.1,0.2c0.3,0.5,1,1.3,1.4,1.8c0.5,0.6,0.9,1.1,1.3,1.7
						c1.6,2.2,2.4,4.6,3.2,6.6c0.6,1.7,1.2,3.3,2.1,4.5c0.1,0.1,0.2,0.3,0.3,0.5c1.1,1.1,2.2,2.5,2.8,4.4c0.5-0.1,1-0.2,1.4-0.2
						c1.4,0,2.4,0.5,3.1,0.8c0.7-0.3,1.5-0.5,2.5-0.5c0.4,0,1.2,0.1,1.6,0.2c1.9,0.5,3,1.6,3.6,2.3c0.2,0,0.5,0,0.8,0
						c5.5,0.4,8.3,2.6,8.5,6.6c0.1,2.5-1.8,4.6-4.2,4.9c-1.3,0.1-2.5,0.2-3.7,0.2c-1.8,0-3.6-0.2-5.3-0.5c0.2,1.7,0.5,3.5,0.8,4.8
						c0.3,1.7-0.3,3.5-1.7,4.6c-0.9,0.7-1.9,1-2.9,1c-0.6,0-1.3-0.1-1.9-0.4c-0.2-0.1-0.4-0.2-0.6-0.3c-0.1,0.2-0.2,0.4-0.2,0.6
						c-0.2,0.5-0.5,1.2-0.5,1.5c0,0.3,0,0.6,0,0.7c0,0,0.1,0,0.1,0c0.2,0,0.5,0.1,0.7,0.2c1.9,0.6,5,1.6,6.8,5.3l0.6,1.2
						c0.2,0.4,0.3,0.8,0.4,1.3c0.8,4.4-1.3,7.4-2.7,9.3c-0.7,1-1.1,1.6-1.1,2c0,0.5,0,0.5,0.6,1.2c0.6,0.8,1.2,1.6,1.7,2.8
						c0.9,1.8,1.1,3.5,1.3,4.8c0.1,0.6,0.1,1.1,0.3,1.7c1.1,3.6,2.5,7.6,4.8,10.4c2,2.4,2.5,3.6,3.3,5.7l0.3,0.8
						c0.1,0.3,0.4,0.6,0.6,0.9c1,1.4,2.7,3.9,2.3,7c0,0.3-0.1,0.5-0.2,0.8l0,0.1c0.1,2.6-0.4,4.7-0.9,6.4c-0.3,1.2-0.6,2.1-0.6,3.2
						c2.5,0.9,3.6,1.6,5.4,3c0.5,0.4,0.7,0.5,0.9,0.6c0,0,0.1,0,0.3,0c0.1,0,0.2,0,0.4,0l1.1,0.1c3.2,0.2,4.5,0.8,6.3,2.3
						c0.3,0.2,0.6,0.5,1.1,0.8c0.5,0.3,1,0.6,1.5,0.9c1.2,0.7,2.6,1.5,4,2.8c1.3,1.2,2,2.5,2.6,3.6c0.3,0.5,0.5,0.9,0.8,1.3
						c0.8,1,2.8,2.2,3.6,2.5c0.4,0.1,0.8,0.2,1.2,0.3c2,0.4,6.8,1.3,7.7,7.5c0,0.3,0,0.5,0,0.8c1.2,0.5,2.6,1.2,4,2.2
						c8.6,3.1,16.6,18.5,14.3,27.6l-0.2,1c-0.1,0.5-0.3,1.1-0.4,1.6c0.2,0,0.4,0.1,0.7,0.1c2.1,0.3,4.2,0.8,6.3,1.2
						c1.8,0.4,3.5,0.8,5.3,1.1c1.9,0.3,3.8,0.3,5.7,0.4c3,0.1,6,0.2,9.2,0.9c2.9,0.1,15.1,0.8,18.5,6.3c0.3,0.5,0.6,1,0.7,1.6
						l67.8,38.5l48.4,6.6l0.7-5.9c0.2-1.3,0.8-2.4,1.8-3.2c0.8-0.6,1.8-1,2.9-1c0.2,0,0.5,0,0.7,0.1l32.1,4.7
						c7.9,0.2,9.1,5.3,9.6,7.5c0.3,1.2,0.5,1.9,1,2.5c1.2,1.4,2.7,2.7,4.2,4c2.6,2.3,5.4,4.8,7.4,7.9c0.6,1,1,1.8,1.4,2.6
						c0.1,0.3,0.3,0.7,0.4,0.8c0,0,0.2,0.2,0.8,0.5c3.3,1.7,4.8,2.5,7,6c1.4,2.2,2,4.1,2.5,5.8c0.2,0.6,0.4,1.1,0.6,1.7
						c0.1,0.1,0.6,0.6,0.9,0.9c1.1,1,2.8,2.5,3.4,5c0.5,1.9,0.3,3.7,0.2,5.2c-0.1,0.8-0.2,1.8-0.1,2.1c0.5,1.3,1.7,2.8,3.4,4.1
						c0.7,0.3,1.2,0.7,1.7,1.1c1.2,1.3,1.9,2.6,2.5,3.8c0.3,0.6,0.6,1.2,1,1.7c0.2,0.3,0.2,0.3,1.1,0.6c0.8,0.3,1.8,0.7,3,1.4
						c2,1.2,3,2.8,3.8,3.9c0.3,0.4,0.6,0.9,0.8,1.1c0.2,0.1,0.7,0.2,1.1,0.2c0.9,0.1,1.8,0.3,2.7,0.6c0.2,0.1,0.4,0.1,0.6,0.2
						c0.5-0.8,1.2-1.7,2.2-2.4c0.6-0.4,1.3-0.7,1.9-0.9c0-0.1,0-0.2,0.1-0.3c0.2-1.3,0.5-2.5,0.9-3.5c0.1-0.3,0.3-0.8,0.4-1.2
						c0.5-1.7,1.2-3.7,2.6-5.3c1.7-1.9,5.5-3.8,7.6-4.8c1.4-0.6,2.7-0.9,3.9-0.9c2.2,0,3.7,1,4.4,1.6c0.4,0.3,0.4,0.3,0.6,0.3l0.7,0
						c0.9,0,9.1,0.1,13.9,2.6c2.8,1.4,3.9,3.6,4.6,5.1c0.3,0.7,0.6,1.1,0.8,1.3c0.6,0.5,1.3,0.9,2,1.3c1.2,0.7,2.5,1.5,3.8,2.7
						c4,3.7,5.9,8.8,7.5,13l0.5,1.5c0.7,1.8,1.6,3.6,2.4,5.3c0.6,1.3,1,2.4,1.4,3.7c0.3,0.9,0.8,2.4,1.1,2.8
						c0.4,0.3,0.5,0.5,0.7,0.9c3.4,2.7,7,5.9,8.6,11.2c0.3,1.1,0.4,2,0.5,2.9c0,0.2,0,0.4,0.1,0.6c0,0,0.1,0,0.1,0
						c0.2,0,0.5,0.1,0.8,0.2c1.8,0.7,4.7,1.8,5.9,5c0.8,2.2,0.2,4.3-0.2,5.7c-0.1,0.3-0.2,0.6-0.3,0.9c0.1,0.7,0.7,2.8,1.2,4.2
						c0.2,0.7,0.7,1.5,1.3,2.3c0.8,1.2,1.7,2.6,2.2,4.3c0.3,0.8,0.4,1.5,0.6,2.3c0.2,1.1,0.3,1.5,0.6,1.9l0.6,0.8
						c0.6,0.5,1.2,0.7,2,1.1c0.8,0.4,1.7,0.8,2.6,1.4c1.2,0.7,2,1.5,2.8,2.2c0.8,0.7,0.9,0.8,1.3,0.9l1.6,0.5
						c3.4,1,6.7,1.9,10.2,2.7c2.5,0.5,4.6,2,6.5,3.2c0.5,0.3,1.2,0.8,1.9,1.2c-0.4-0.9-0.9-1.8-1.1-2.3l-0.5-0.9l-0.5-1
						c-1.3-2.5-2.1-4.2-2.2-7.8c0-0.8-0.2-1.7-0.3-2.5c-0.3-1.5-0.5-3.3-0.4-5.2c-0.2-1.5,0-2.7,0.4-3.8c-1.2-0.7-2.3-1.6-2.7-3.2
						c-0.5-1.8-0.2-3.6,0.8-5.1c1.8-2.5,4.7-2.6,6.5-2.6c0.1-0.2,0.2-0.6,0.3-0.8c0,0-0.1-0.1-0.2-0.1c-0.6-0.6-1.3-1.3-2-2.3
						c-1.3-1.9-1.1-4.3,0.5-6c0.9-0.9,2.3-2,4.4-2.3c-0.3-1.9,0.6-3.8,2.4-4.8c1.9-1,3.5-1.3,4.6-1.5c0.1,0,0.2,0,0.3-0.1
						c-0.1-1.7,0.3-4.8,4.7-5.9c-0.2-0.7-0.4-1.4-0.3-2.3c0.1-1.8,1-3.5,2.6-4.7c1.3-1,2.8-1.1,3.7-1.1c1.6,0,3.8,0.4,6.5,0.8
						c0.8,0.1,1.4,0.3,1.7,0.3c1.2,0.1,2.4,0.2,3.5,0.2c3.5,0,6.1-0.7,8.8-2.6c0.3-0.5,0.8-1,1.3-1.4c1.4-0.9,2.5-2.3,3.8-4
						c0.3-0.6,0.7-1.6,1.7-2.5c0.3-0.3,0.5-0.5,0.8-0.7c-0.2-0.3-0.3-0.6-0.4-0.8c-0.3-0.6-0.5-1-0.7-1.3c-0.5-0.9-1.5-2.7-0.7-4.9
						c0.8-2.2,2.6-2.9,3.4-3.2c0.3-0.1,0.6-0.2,1.1-0.5l0.6-0.3c1.5-0.8,3.3-1.8,5.4-1.8c1.9,0,3.5,0.8,4.6,2.3c0.7,1,1.1,2,1.3,3
						c1.9-0.5,4.1-1.6,5.3-2.5c0.5-1.4,0.7-2.4,1.3-3.6c1.9-4,4.4-4.8,6.2-4.8c1.1,0,2.2,0.4,3.2,1c1.6-2.8,3.7-3.4,5.3-3.4
						c1.9,0,3.7,1,4.7,2.7c0.8,1.3,1.2,2.9,1.2,4.6l0.5,0c3.5,0,6.7,1,9.5,1.9c1.6,0.5,3.1,1,4.4,1.2c0.1-0.7,0.3-1.4,0.7-2.1
						c1.4-2.2,3.6-2.5,5.2-2.7l1.3-0.2c0.6-0.1,1-0.2,1.4-0.3c0.6-0.1,1.4-0.3,2.3-0.3c1.5,0,2.8,0.5,3.6,0.9
						c0.6,0.3,1.1,0.7,1.5,1.2c0.1,0,0.2,0,0.3,0c0.7,0,1.9,0.3,2.6,0.6c1.1,0.6,1.9,1.4,2.4,2.2c0.5,0,1.2,0.2,1.9,0.4
						c2,0.7,7.8,4.3,8.2,9.1c0,0,0,0,0.1,0c0.7-0.4,1.6-0.6,2.7-0.6c0,0,0.1,0,0.1,0c1-1.9,2.8-4,6.5-4c0.6,0,1.3,0.1,2,0.2
						c0.7,0.1,1.3,0.4,1.9,0.8c0.6-2.1,1.7-3.4,3.6-4.4c0.8-1,2-1.8,3.3-2c0.1,0,0.1,0,0.2,0c0.1-0.2,0.1-0.3,0.2-0.5
						c-0.5-0.6-0.9-1.3-1.1-2.2c0-0.2-0.1-0.5-0.1-0.7c-1,0.4-2.5,1-4.4,1c-0.2,0-0.8,0-1,0c-1.5-0.1-2.7-0.6-3.5-1
						c-0.1,0-0.1-0.1-0.2-0.1c-0.1,0-0.2,0-0.2,0c-1.2,0-2.4-0.4-3.2-1.3c-0.2,0-0.4-0.1-0.5-0.1c-1.3-0.3-3.5-0.8-4.9-2.9
						c-2.1-3.3-0.2-7.3,1.8-9c0.6-0.6,2.1-1.9,4.2-1.9c0.6,0,1.2,0.1,1.8,0.4c0.8-0.9,2-1.7,3.7-2c0.2,0,0.4,0,0.6,0
						c2,0,3.7,1.1,5.5,2.3c0.5,0.3,0.9,0.6,1.3,0.8c0.5,0.1,1.1,0.4,1.7,0.6c1.2,0.4,2.2,0.8,2.8,0.8c0.1,0,0.5,0,1.5-0.6
						c0.3-0.2,0.8-0.5,1.2-0.8c2.4-1.7,5.8-4.1,9.4-4.1c1.6,0,3.1,0.5,4.4,1.3c0.7,0,1.4,0,2,0.1c1.2,0,2.3,0.1,3.5,0.1
						c0.5,0,1-0.2,1.7-0.3c0.5-0.1,1-0.2,1.5-0.3c0.2-1.7,0.5-3.7,1.8-5.4c0.7-1,2.6-3.6,5.7-3.6c5.1,0,5.7,5.6,5.9,7.8
						c0,0.1,0,0.3,0,0.4c0.4,0.2,0.8,0.5,1.3,0.8c0.9-1.4,2.3-2.8,4.4-3.4c0.4-0.1,0.9-0.2,1.3-0.2c0.8,0,1.5,0.2,2.2,0.6
						c0.2-0.2,0.4-0.4,0.6-0.6c0.8-0.8,1.4-1.4,2.1-1.9c0.8-0.5,1.7-0.7,2.6-0.7c0.8,0,1.6,0.2,2.3,0.6c0.9,0.5,1.5,1.2,2,2l0.3,0h0
						c0.2,0,0.6,0,0.8,0c0.2,0,0.4,0,0.6,0c0.8-1.8,2.3-3,4.5-3.8c0.9-0.3,1.8-0.4,2.8-0.4c3.9,0,8,2.5,8.4,6.2
						c0.2,0,0.3,0.1,0.5,0.1c1.3-0.8,3-1.3,5.3-1.3c0.6,0,1.3,0,1.9,0.1l0.7,0c2,0.1,3.8,1.5,4.3,3.5c0.2,0.8,0.4,2.1,0.1,3.4
						c0.7,0.6,1.3,1.3,1.8,2.1c0.9,1.5,1.2,2.6,1.4,3.4c0.4,0.2,0.9,0.4,1.7,0.4c1.6,0,3-0.6,3.5-1l0.1-0.1c0.1-0.2,0.2-0.4,0.4-0.6
						c2.1-3,4.9-3.4,6.3-3.7l-0.1,0.6c0.8-2.7,2.3-4.3,5.3-5.3c2.1-0.7,3.9-1.1,5.7-1.1c4.8,0,8,2.4,11.5,5.3c0.4,0.3,0.8,0.7,1.3,1
						l1.1,0.8l1.2,0.8c1.6,1.1,1.7,1.2,2.1,1.7c1.2,1.4,1.8,2.9,2.2,4c0.4,1,0.5,1.3,0.8,1.5c1.2,1,3.5,2.6,4.9,3.3
						c0.5,0.3,0.9,0.4,1.3,0.5c1.4,0.4,3.5,1,5.6,3.6c4,4.9,5.8,13.7,5.5,19.5l0,0.7c0,0.9-0.3,1.8-0.7,2.5c0.5,0.1,1,0.2,1.6,0.4
						c4.8,1.4,7.3,6.1,6,10.8c-0.7,2.4-2.3,3.9-3.5,4.9c0.1,0.1,0.2,0.2,0.2,0.3c0.8,0.8,1.5,1.7,1.9,2.4c0.8,1.2,1.4,2.6,2,4
						c1-0.8,2.2-1,3.2-1c1.4,0,2.9,0.6,4.2,1.7c2.8,2.3,2.4,6.1,2.1,9.1c0,0.4-0.1,0.9-0.1,1.2c1.6,0.6,3.9,1.7,5.1,4.7
						c0.6,0.9,0.9,2,0.8,3c0,0.2,0.4,0.8,0.7,1.2c0.3,0.4,0.6,0.9,0.9,1.4c0.4,0.8,0.8,1.7,1.2,2.6c3.5,0,9.5,1.8,11.4,5.5
						c0.4,0.8,0.6,1.6,0.5,2.5c2.8,2.1,5.4,4.1,6.6,6.3c2.5-0.9,4.5-2.1,4.9-2.8c0-0.1-0.1-0.9-0.2-1.5c-0.3-1.7-0.6-4,0.3-6.5
						c0.3-0.9,0.6-1.6,0.9-2.2c0.6-1.3,0.8-1.7,0.8-3.3c0-2.1,0.2-4.2,0.4-6.3c0.3-2.5,0.5-4.9,0.3-7.2c-0.2-2.3-1.4-4.4-2.7-6.9
						c-1-1.9-2.2-4.1-2.9-6.5c-0.6-0.4-1-1-1.3-1.6c-1.3-2.4-2.5-4.9-3.7-7.3c-2.8-5.6-5.4-10.8-8.8-16l-0.6-0.9
						c-1.1-1.6-2.5-3.6-3.1-6c-0.4-1.4-0.4-2.7-0.5-3.8c0-0.5,0-1.2-0.1-1.4c-0.6-1.9-3-5.5-6.3-9.7l-0.3-0.3
						c-0.8-0.8-1.3-1.8-1.4-2.9c-0.2-2.6-1.9-5.5-3.6-8.5c-1.9-3.3-4.1-7.1-4.8-11.4c-0.4-2.2-0.9-4.3-1.5-6.5
						c-1.1-4.3-2.3-8.8-2.1-13.7c0-0.6,0.1-1.2,0.4-1.7c-0.1-0.3-0.2-0.5-0.3-0.8c-0.4-1.9,0.3-3.9,2-5c0.3-0.2,0.7-0.4,1.2-0.7
						c0-0.1,0-0.2,0-0.3c0-0.2,0-0.5,0.1-0.7c0,0,0-0.1,0-0.1c-0.9-1.1-1.3-2.6-0.9-4.1c0.3-1.4,1.3-2.6,2.6-3.2
						c0.1-1.6,0.9-2.9,2.2-3.7c0.3-0.4,1-1.6,2.2-4.4c0.2-0.6,0.2-1-0.1-2.5c-0.3-1.3-0.6-2.8-0.5-4.7c0.1-1.4,0.8-2.6,2-3.4
						c0.8-0.6,1.8-0.9,2.7-0.9c0.1,0,0.3,0,0.4,0c0.7-0.7,1.5-1.2,2.5-1.4c0.3-0.1,1.2-0.2,1.5-0.2c0.9,0,1.7,0.2,2.3,0.3
						c0.3-0.2,0.7-0.5,1.2-0.8c0.7-0.4,1.4-0.7,2-1c1-0.5,1.8-0.9,2.5-1.4c1-3.3,3.8-6,5.9-8l0.5-0.5c0.5-0.5,0.9-1,1.3-1.4
						c1-1.1,1.9-2,3.1-2.7c-0.4-1.1-0.4-2.4,0.1-3.6c0.4-0.9,1-1.6,1.7-2.1c0-0.1,0-0.2,0-0.3c0.2-1.3,0.4-2.8,1.3-4.3
						c1.2-2,3.1-3.8,4.8-5.3c0.5-0.5,1-0.9,1.4-1.3c3.8-3.8,7.8-4.3,10.9-4.7c0.6-0.1,1.3-0.2,1.8-0.3c0.6-3.3,1.8-5.8,3.2-8.6
						c1-1.9,2.1-3.1,3-4.1c0.4-0.4,0.8-0.8,1-1.2c0-0.6,0-1.2,0.1-1.5c-0.1-0.7-0.2-2.4,0.9-4.2c0.9-1.5,2.4-2.3,4.1-2.3
						c0.6,0,1.1,0.1,1.7,0.3c0.4,0.2,0.8,0.4,1.2,0.6c0.3-0.3,0.6-0.5,0.9-0.8c-1.3-0.8-2.2-1.8-2.8-2.6c-0.7-1.1-0.9-2.5-0.5-3.8
						c0.4-1.3,1.3-2.4,2.5-3c0.5-0.2,1.1-0.4,1.6-0.6c-1.5-0.8-2.7-1.9-3.7-3.3c-0.9-1.5-1-3.3-0.1-4.9c0.8-1.5,2.4-2.4,4.1-2.4
						c0,0,0.1,0,0.1,0c1.1,0,2.1,0.2,3.2,0.3c0.4-0.7,1-1.3,1.7-1.7h0c-2.9,0-4.7-1.3-5.7-2.4c-2.7-2.9-2.7-7.2-2.4-11.4
						c0.2-2.4,2.1-4.3,4.5-4.4h0c2.7,0,4.2,1,5,1.9c0.2,0.2,0.5,0.5,0.6,0.8c0.4-0.1,0.8-0.1,1.2-0.1c0.1,0,0.1,0,0.2,0
						c0.9-0.8,1.9-1.2,3-1.6c0.1,0,0.1,0,0.2-0.1c0-0.5-0.1-1-0.1-1.5c-1-1-1.7-2.1-2-3.4c-0.2-0.8-0.2-1.6-0.1-2.3
						c-0.1,0-0.3,0.1-0.4,0.1c-1.3,0.4-2.7,0.6-4,0.6c-3.3,0-6.5-1.3-9.2-3.7c-0.1-0.1-0.3-0.1-0.4-0.2l-1.1-0.7
						c-0.8-0.5-1.6-1-2.3-1.3c0,0-0.1,0-0.3,0c0,0-0.1,0-0.2,0c-1,0-2.6-0.1-4.2-0.9c-4.1-2.1-3.9-5.2-3.6-6.4
						c1-4.2,5.8-4.2,7.6-4.2c0.3,0,0.6,0,0.9,0c0.2-0.5,0.5-1.1,1-1.6c-1.1-0.9-2-2-3-3c-2.3-2.4-4.5-5.3-3.6-8.6
						c0.3-1.2,1-2.2,2-2.9c-0.2-0.9-0.1-1.7,0.1-2.4c0.2-0.6,0.5-1.2,0.9-1.7c-1.2-1.8-1.8-4.2-0.4-7c0.4-0.8,0.9-1.4,1.6-1.9
						c-0.2-1.7,0.1-3.1,0.3-4c0.1-0.5,0.2-0.8,0.2-1.1c0-0.2,0-0.6,0-0.8c0-0.2-0.3-0.8-0.5-1.2c-2.2-4.4-1.1-6.5,1.3-9
						c2-2,4-4.4,5.5-6.6c0.9-1.3,2.4-2,3.9-2c0.4,0,0.8,0,1.2,0.1c0.5,0.1,1,0.3,1.5,0.6c0-2.9,0.9-5.8,3-7.8
						c0.9-0.9,2.1-1.3,3.3-1.3c0.4,0,0.7,0,1.1,0.1c1.6,0.4,2.9,1.6,3.4,3.1c0.6,1.7,0.6,3.3,0.6,4.6c0,0.7,0,1.5,0.2,1.8l0.6,1.2
						c0.3,0.7,0.9,2,1.3,2.2c0,0,0.1,0,0.1,0c0.1,0,0.4,0,1,0l0.4-0.1c0.8-0.2,1.6-0.3,2.5-0.3c0.6,0,1.4,0.1,2,0.3
						c0.1,0,0.2,0.1,0.3,0.1c0,0,0-0.1,0-0.1c0.3-0.8,0.5-1.6,0.9-2.4c0.8-1.6,1.8-2.6,2.5-3.3c0.3-0.3,0.6-0.6,0.7-0.8
						c1.3-2,2.1-4.7,2.2-7.4c0-0.3,0-0.5,0-0.6c-0.3-0.4-0.6-0.9-0.8-1.6c-0.3-0.9-1-3.7,0-6.4c0-0.2,0-0.4,0-0.5c0-0.1,0-0.2,0-0.3
						c-2.8-1.1-4.3-3.2-4.4-6.4c-0.2-4.4,2-6.7,3.5-8.2c0.3-0.3,0.6-0.6,0.9-1c1.1-1.4,2.4-3.2,3.2-4.5l0.3-0.7
						c0.1-0.3,0.2-0.5,0.4-0.7c1.5-2.4,3.9-4,5.9-5.2l1-0.7c2.8-1.9,6.2-3.5,9.7-4.5c0.9-0.3,1.8-0.5,2.7-0.7
						c1.3-0.3,2.6-0.6,3.9-1.1c1-0.4,1.9-0.9,2.8-1.4c1.4-0.8,3-1.7,4.9-2.3l0.7-0.3c0.6-0.2,1.2-0.3,1.8-0.3c0,0,0.1,0,0.1,0
						c0,0,0.3-0.2,0.7-0.4l0.1-0.7c0.3-2.9,1-10.5,7.4-10.5c0.4,0,1.2,0.1,1.6,0.2c0.9,0.2,1.6,0.6,2.2,1.2c0.3-0.5,0.8-0.9,1.3-1.4
						c0.2-0.1,0.3-0.3,0.5-0.4c-0.4-0.5-0.8-1.1-1.2-1.9c-0.3-0.7-0.5-1.4-0.5-1.9c-0.1-0.1-0.3-0.2-0.5-0.3l-0.2,0.1
						c-0.8,0.2-1.5,0.4-2.3,0.4c-1.3,0-3.1-0.7-4-1.7c-1.7-1.9-1.5-4.3-1.4-5.6c0.3-3.1,1.5-5,4-6c-0.6-0.8-1-1.7-1.3-2.9
						c-0.2-1-0.2-1.9-0.2-2.5c-0.2-0.3-0.3-0.6-0.4-0.9l-0.2-0.6c-0.2-0.5-0.2-1-0.2-1.5c0-2.8,0.8-4.5,1.4-5.8
						c0.2-0.3,0.3-0.7,0.5-1.1c-0.1-1.3-0.1-2.8,0.7-4.4c0.4-0.9,0.9-1.7,1.4-2.3c0.1-0.2,0.2-0.3,0.3-0.5c0-0.3,0-0.6,0-1
						c-0.1-1.4-0.1-3.1,0.6-4.7c0.6-1.5,1.6-2.4,2.3-2.9c0.2-0.8,0.5-1.8,1.2-2.8c0.5-0.6,1-1,1.5-1.4c0.1-0.4,0.2-0.8,0.3-1.2
						c1.2-2.9,3-4.4,5.4-4.4c0.8,0,1.4,0.2,2,0.4c1-1.6,2.6-2.5,3.3-2.9c0.2-0.1,0.4-0.2,0.5-0.3c0.1-0.1,0.5-1.2,0.7-2l0.3-0.9
						c-0.1-0.6-0.3-1.4-0.3-2.5c0-1.9,0.7-3.5,1.2-4.7c0.1-0.3,0.3-0.6,0.4-0.9c0.6-2.1,2.5-3.4,4.5-3.4c0.3,0,0.5,0,0.8,0.1
						c0.9,0.2,1.9,0.5,2.8,1.1c1-0.6,2-0.8,3-0.8c0.5-0.6,1.9-2,4.2-2c0.3,0,0.7,0,1.1,0.1c0.7-1.6,1.9-3.3,4.6-3.7
						c1-1.4,2.4-3,4.2-4c-0.1-0.5-0.1-1-0.1-1.5l-0.2,0c-2,0-3.6-0.6-4.9-1.9c-1.9-1.9-2-4.1-2-5.2c-0.2-0.3-0.5-0.7-0.7-1.1
						c-5.2-0.7-7.9-3.7-8.2-8.9l0-0.7c0-0.9-0.2-3.1-0.5-4.1c-0.6-0.7-1-1.6-1.1-2.6c-0.3-3.2-1.4-6.5-2.6-10
						c-0.9-2.6-1.8-5.2-2.4-7.9c-1.2-0.7-2.3-1.4-3.3-2.1c-0.9-0.6-1.7-1.2-2.6-1.7c0,0,0,0,0,0c-0.2,0-0.8,0.4-1.3,0.7
						c-0.5,0.3-1.1,0.7-1.7,1l-0.7,0.4c-2.5,1.6-5.1,3.1-7.9,3.1c-1.4,0-2.6-0.4-3.6-1.1c-0.2,0.4-0.4,0.7-0.6,1.1
						c-1.3,2.6-2.3,4.8-3.2,7.1c-0.7,1.8-1,3.1-1,4.6c0,0.6,0.1,1.2,0.2,1.7c0.4,2,0.9,5-1.1,8.2c-0.3,0.4-0.6,0.8-0.9,1.3
						c-0.1,0.2-0.3,0.4-0.4,0.6c0.5,0.8,0.9,1.8,1.1,3c0.8,0.8,1.4,1.9,1.6,3.1c0.2,1.3,0.2,3.5-1.9,5.4c0,0.1,0,0.2-0.1,0.3
						c-0.2,1.1-0.5,2.7-1.5,4.4c-0.4,0.7-0.9,1.3-1.4,1.8c0.6,1.9,1.1,4.3-0.5,6.5c-0.3,0.4-0.6,0.7-1,1c-0.1,0.5-0.4,1.1-0.7,1.6
						c-1.5,2.1-3.3,2.6-4.5,2.6c-0.2,0-0.4,0-0.5,0c-0.6,0.7-1.4,1.4-2.6,1.9c-0.2,0.1-0.5,0.2-0.8,0.3c0,0.1-0.1,0.2-0.1,0.2
						c-0.9,2.7-1.9,4.9-5.6,6.7l-1.2,0.6c-0.7,0.3-1.4,0.5-2.1,0.5c-0.1,0-0.2,0-0.2,0l-0.6,0c-2.6,0-5.8,0.7-8.4,1.2
						c-1.9,0.4-3.8,0.9-5.8,1.4c-4.4,1.1-9,2.2-13.6,2.9c-2.8,0.4-5.9,1-9,1.8c-0.8,0.2-1.7,0.5-2.6,0.8c-2.4,0.8-5,1.7-7.8,1.8
						l-0.6,0.4c-0.7,0.4-1.5,0.6-2.3,0.6c0,0.1-1.2,0.9-4.2,4.4c-1.4,1.7-2.8,4-4.3,7l-0.6,1.3c-1,2.2-2.1,4.7-4.9,6.8
						c0,0.1,0.1,0.1,0.1,0.2c1.4,2.3,0.5,4.6-0.1,5.8c0.1,0.1,0.1,0.3,0.2,0.4l0.2,0.3c1.1,2,2.7,4.7,1.7,7.8
						c-0.4,1.3-1.5,3.2-4.2,4.5c-0.4,0.2-0.8,0.3-1.1,0.5c-1.7,2.1-3.1,3.4-4.8,4.6c-4.2,2.7-10.8,5.7-16.4,5.7
						c-1.8,0-3.5-0.3-5-0.9c-1.3-0.1-2.4-0.4-3.3-0.6c-0.8-0.2-1.6-0.4-2.2-0.4c-1.1,0.1-2.2,0.7-3.4,1.3c-1.4,0.8-3.1,1.7-5.1,2.1
						l-1.2,0.3c0,0-0.1,0-0.1,0c0.2,0.5,0.3,1,0.4,1.5c0.1,0.5,0.3,1.1,0.5,1.6l0.3,0.6c0.8,1.4,2.5,4.5-0.4,8.2l-0.1,0.4
						c-1.4,4.5-6.3,8.4-9.9,11.2l-1.2,1c-3.1,2.6-6.7,5.2-10.8,7.7c-1.7,1.1-3.3,2.2-4.9,3.4c-2.2,1.6-4.4,3.2-6.8,4.6l-2.6,1.5
						c-3.2,1.8-6,3.4-8.5,5.7c-2.7,2.5-4.9,2.8-6.6,3c-0.4,0.1-0.9,0.1-1.5,0.3c-0.8,0.2-1.7,0.6-2.7,1.1c-1,0.5-2,1-3,1.4
						c-0.5,0.2-1.1,0.3-1.6,0.3c-0.1,0-0.2,0-0.3,0c-1.6-0.1-2.8-0.7-3.6-1.4c-1.5,0.6-3.1,1.2-4.9,1.2c-1.4,0-2.8-0.3-4.2-1
						c-0.9-0.4-2.3-0.9-3.2-2.3c-0.2-0.3-0.4-0.7-0.5-1.1c-4.3-2-6.6-5.7-5.8-9.5c0-0.2,0.1-0.4,0.2-0.6c0.3-2.1,1.4-3.8,2.2-5.1
						c0.3-0.6,0.9-1.5,0.9-1.8c0-0.3,0-0.7,0-0.9c0.1-1.9,0.3-3.8,2.6-6.1c0.7-0.7,1-1.2,1.7-2.3l0.4-0.6c0.2-0.3,0.3-0.5,0.5-0.7
						c0-0.9,0-2.1,0.7-3.2c1.4-2.6,3.3-3.3,4.7-3.4c0.1-1,0.2-1.9,0.2-2.5l-0.1-0.2c-0.3-0.5-0.4-1.1-0.5-1.7
						c-0.3-3-1.9-6.8-3.2-9.8c-0.8-1.8-0.9-3.4-1-4.6c0-0.4-0.1-1.1-0.2-1.3c-0.2-0.4-1.3-1.6-2.1-2.5c-0.2,0.1-0.4,0.3-0.6,0.4
						l-1,0.6c-1,0.5-1.4,1.1-2.7,2.9c-0.4,0.6-0.5,1.1-0.7,1.6c-0.5,1.5-1,3-2.2,4.3c-1.9,2-4.9,2.2-6.5,2.2c-1.4,0-2.5-0.2-3.5-0.7
						c-4-1.8-5.3-5.3-4-10.3c0.1-0.3,0.2-0.6,0.2-0.9c-0.2-1.1-0.4-3,0.8-5.1c0.6-1,1.5-1.9,2.7-3c0.3-0.3,0.6-0.5,0.8-0.7
						c0.9-2.1,2.6-3.1,3.6-3.6c0-0.2,0-0.3,0-0.5c0-0.6,0.1-1.1,0.2-1.6c0.1-0.5,0.2-1.1,0.4-1.7c0.2-0.8,0.5-2.3,0.6-3.3
						c-0.4-0.4-0.6-0.9-0.8-1.4c0,0,0,0.1,0,0.1c-0.1,0-0.3-0.2-0.5-0.5c-1.4-1.7-3.4-4.1-3-7.2c0-0.3,0.1-0.6,0.2-0.9
						c-0.2-0.2-0.4-0.4-0.5-0.6c-0.3-0.4-0.5-0.7-0.6-1.1c-0.1,0-0.3,0-0.4,0c-2.5-0.1-3.8-0.7-4.9-1.3c-0.2-0.1-0.4-0.2-0.6-0.3
						c-1.3-0.2-2.6-0.5-4-1.7c0,0,0,0-0.1,0c-1.2-0.7-1.9-1.6-2.5-2.2c0,0-0.1,0-0.1,0c-0.6,0.1-1.2,0.1-1.7,0.1
						c-0.2,0-1-0.1-1.2-0.1c-0.3,0-0.6-0.1-0.8-0.1c0.6,1.1,1,2.4,0.7,3.9c-0.3,1.5-1.2,2.8-2.5,3.7c-1.3,0.9-2.6,1-3.6,1.1
						c-0.1,0.8-0.1,1.4-0.1,2c0.1,2,0.2,4.5-1.1,7.5c-0.6,1.4-2.4,5.5-6.5,5.5c-0.9,0-3.4-0.3-4.8-2.9c-0.2,0.6-0.5,1.3-1,2.1
						c-0.2,0.3-0.4,0.5-0.6,0.7c0.2,1,0.3,1.9,0.3,2.6c0,3.9-0.4,8.4-3.4,12.8c0,0,0,0.1,0,0.1c0.3,0.8,0.6,1.7,0.7,2.6
						c0.3,1.9-0.1,3.3-0.3,4.3c-0.1,0.2-0.1,0.5-0.2,0.7c0,0.4,0.1,0.7,1,2c0.6,0.9,1.2,1.8,1.6,2.8c3,6.5,4.5,12.5,4.5,18.5
						c0,4.2-0.4,7.2-1.2,10.5c0,0,0,0.1,0,0.1c-0.3,7.4-7.7,15.4-11.5,18.3c-2.2,1.7-6.3,2.9-9.6,2.9c-1.6,0-2.9-0.3-4.1-0.8
						c-4.3-2-5-6.4-5.4-9c-0.1-0.7-0.3-1.6-0.4-1.9c-0.1-0.3-0.6-0.8-1.1-1.3c-0.8-0.9-1.8-1.9-2.6-3.5c-1.2-2.3-1.1-4.4-1.1-6
						l0-0.7c0-1.4,0.1-2.6,0.3-3.7c0.2-1.3,0.3-2.3,0.1-3.1c-0.3-1-0.4-2-0.5-3c0-0.5-0.1-0.9-0.2-1.4c-0.1-0.1-0.2-0.3-0.4-0.5
						c-0.4-0.6-0.9-1.4-1.2-2.5c-1.7-4.8-0.3-9,0.8-12.4c0.7-2.1,1.3-3.9,1-5.4c-0.5-3.5-1.2-7.8,2-11.5c0-1.4,0.1-2.6,0.3-3.9
						c-1.1,0.7-2.3,1.1-3.8,1.1c-0.1,0-0.5,0-0.6,0c-2.4-0.2-4.3-1.7-5.1-3.9c-1.8-5.1,3.6-12.2,4.4-13c0.5-0.5,0.9-0.9,1.4-1.3
						c1.1-1,1.4-1.2,1.7-2.3c0.4-1.3,1-2.4,1.7-3.6c0.3-0.6,0.6-1.1,0.9-1.7c0.2-2.5,0.9-5.2,2.2-7.8c0.6-1.2,1.3-2,1.9-2.6
						c0.4-1.1,0.7-2.6,2.1-4c0.9-0.9,2.1-1.4,3.4-1.4c0.4,0,0.8,0,1.1,0.1c0.3,0.1,0.6,0.2,0.8,0.3c1.3-1,2.7-1.9,4.1-2.3
						c0.3-0.1,0.7-0.1,1-0.1c0.6,0,1.2,0.1,1.8,0.3c2.4-1.8,5.5-2.8,8.7-2.9c0.1,0,0.1,0,0.2,0c0.8,0,1.3,0,1.8,0.1
						c0.3,0,0.6,0.1,0.9,0.1c0,0,0.1-0.2,0.3-0.3c0.7-0.5,1.6-1.3,2.8-1.8c1.3-0.6,2.8-0.8,4.3-0.8c1.9,0,3.8,0.4,5.8,1.2
						c0.6,0.1,1.1,0.3,1.7,0.5c0.9-1.3,2.1-2,3.3-2.4c-1.1-0.3-2.1-0.7-2.8-1.1c-0.5-0.2-1.1-0.5-1.3-0.5c-1.2-0.1-3.8-0.2-5.5-2.3
						c-0.6-0.8-0.9-1.6-1-2.4l-0.4,0.1l-1.2,0.4c-1.7,0.5-3.5,1.2-5.6,1.4c-1.4,0.2-2.8,0.2-4.2,0.3c-2.5,0.1-4.4,0.2-6.5,1
						c-0.4,0.2-1,0.7-1.6,1.3c-1.5,1.3-3.7,3.4-7.2,3.6c-0.1,0-0.1,0-0.2,0c-1.4,0-2.4-0.1-3.5-0.3c-0.8-0.1-1.6-0.2-2.4-0.2
						c-0.8,0.6-1.9,0.7-2.8,0.7c-2.5,0-4.8-2-4.9-4.5c0-0.7-0.4-1.3-0.9-1.7l-0.6-0.4c-0.8-0.6-2.7-1.9-3.5-2.1
						c-0.1,0-0.8,0.3-1.2,0.5c-1,0.4-2,0.9-3.1,1.1c-0.8,0.2-1.5,0.3-2.2,0.3c-2.3,0-3.7-1-4.5-1.8c-1.2-1.2-1.6-2.7-1.8-4
						c-0.2,0.1-0.3,0.2-0.5,0.3c-1.2,0.7-2.7,1.4-4.1,2l-1.5,0.7c-0.7,0.3-1.2,0.7-1.8,1.1c-1,0.7-2,1.3-3.1,1.9
						c-1.4,0.6-2.7,0.9-3.7,1.1c-0.6,0.1-1.2,0.2-1.5,0.4c-0.3,0.2-0.9,0.6-1.4,1.1c-0.9,0.8-2,1.8-3.6,2.6
						c-2.2,1.1-4.3,1.6-6.7,1.6c-0.9,0-1.9-0.1-2.8-0.2c-0.7-0.1-1.4-0.1-2.2-0.1c-0.3,0-0.7,0-1,0.1c-0.3,0.2-1.1,0.4-2.1,0.4
						c-1.2,0-3.6-0.4-5.1-3.4c-0.2-0.3-0.3-0.6-0.4-1c-0.1,0-0.1,0-0.2,0.1c-3.3,1.3-7.4,3-10.7,3c-4.2,0-6-2.6-6.5-3.7
						c-3-5.9,3.7-9.9,6.5-11.6c0.4-0.2,0.8-0.4,1-0.6c1.9-1.5,3.2-3.5,4.8-5.8l1.1-1.6c2.3-3.3,5.1-6.6,10-8.9
						c0.1,0,0.1-0.1,0.2-0.1c0.6-0.4,1.1-0.9,1.7-1.4c0.6-0.5,1.1-1,1.8-1.5c-0.5,0.1-1.1,0.1-1.7,0.1c-1.3,0-2.6-0.2-4.1-0.6
						c-0.6-0.2-1.1-0.3-1.6-0.3c-0.5,0-1.2,0.1-2.7,1.1c-1.5,1.1-3.3,2.5-5.8,2.5c-0.5,0-1.5-0.1-1.9-0.3c-1.5-0.5-2.7-1.4-3.4-2.8
						c-0.4-0.1-0.7-0.2-1-0.3c-1-0.5-1.8-1.1-2.3-1.7c-0.6-0.1-1.3-0.2-2-0.5c-0.4-0.2-0.7-0.4-1-0.6c-0.6,0.2-1.2,0.3-1.9,0.3h0
						c-3.7,0-5.2-2.3-5.6-3.1c-0.1-0.1-0.3-0.1-0.5-0.1h-0.2l-0.9-4.7L553.4,70.6z"/>
				</g>
			</g>
			<g id="Fill-9">
				<g>
					<path id="path-9" class="st7" d="M67.8,30.1l1,1.6c0.2,0.1,0.4,0.1,0.6,0.1c2.2,0,1.4-3.6,1.7-5.3c0.1-0.8,0-2.2,0.4-2.9
						c0.5-1.2,2.7-0.2,1.8-2.5C70.1,21.2,64.7,27.5,67.8,30.1"/>
				</g>
				<g>
					<path class="st6" d="M67.8,30.1l1,1.6c0.2,0.1,0.4,0.1,0.6,0.1c2.2,0,1.4-3.6,1.7-5.3c0.1-0.8,0-2.2,0.4-2.9
						c0.5-1.2,2.7-0.2,1.8-2.5C70.1,21.2,64.7,27.5,67.8,30.1"/>
				</g>
				<g>
					<path class="st2" d="M67.8,30.1l1,1.6c0.2,0.1,0.4,0.1,0.6,0.1c2.2,0,1.4-3.6,1.7-5.3c0.1-0.8,0-2.2,0.4-2.9
						c0.5-1.2,2.7-0.2,1.8-2.5C70.1,21.2,64.7,27.5,67.8,30.1"/>
				</g>
			</g>
			<g id="Fill-11">
				<g>
					<path id="path-11" class="st0" d="M628.1,93.5c1,0,2.1-0.5,3-1.7c1-1.4,0.8-2.9,2.5-4c0.6-0.4,2.9-0.6,3.2-1.1
						c0.7-1.4-0.5-1.8-2.1-1.8c-1.8,0-4,0.5-4.5,0.8c-2.1,1-5.7,3.9-6.7,5.9l1.1-0.4C625.4,92.7,626.7,93.5,628.1,93.5"/>
				</g>
				<g>
					<path class="st1" d="M628.1,93.5c1,0,2.1-0.5,3-1.7c1-1.4,0.8-2.9,2.5-4c0.6-0.4,2.9-0.6,3.2-1.1c0.7-1.4-0.5-1.8-2.1-1.8
						c-1.8,0-4,0.5-4.5,0.8c-2.1,1-5.7,3.9-6.7,5.9l1.1-0.4C625.4,92.7,626.7,93.5,628.1,93.5"/>
				</g>
				<g>
					<path class="st2" d="M628.1,93.5c1,0,2.1-0.5,3-1.7c1-1.4,0.8-2.9,2.5-4c0.6-0.4,2.9-0.6,3.2-1.1c0.7-1.4-0.5-1.8-2.1-1.8
						c-1.8,0-4,0.5-4.5,0.8c-2.1,1-5.7,3.9-6.7,5.9l1.1-0.4C625.4,92.7,626.7,93.5,628.1,93.5"/>
				</g>
			</g>
			<g id="Fill-13">
				<g>
					<path id="path-13" class="st0" d="M647.6,145.9l0.6,0.6c0.4,0.5,0.7,0.7,1.1,0.7c1.2,0,1.9-2.6,2.3-3.4c1-2.1,2.4-3.8,1.4-6.3
						C651.4,137.6,648.2,144.3,647.6,145.9"/>
				</g>
				<g>
					<path class="st1" d="M647.6,145.9l0.6,0.6c0.4,0.5,0.7,0.7,1.1,0.7c1.2,0,1.9-2.6,2.3-3.4c1-2.1,2.4-3.8,1.4-6.3
						C651.4,137.6,648.2,144.3,647.6,145.9"/>
				</g>
				<g>
					<path class="st2" d="M647.6,145.9l0.6,0.6c0.4,0.5,0.7,0.7,1.1,0.7c1.2,0,1.9-2.6,2.3-3.4c1-2.1,2.4-3.8,1.4-6.3
						C651.4,137.6,648.2,144.3,647.6,145.9"/>
				</g>
			</g>
			<g id="Fill-15">
				<g>
					<path class="st8" d="M626.6,97.8C626.6,97.8,626.6,97.8,626.6,97.8v-0.2C626.6,97.6,626.6,97.7,626.6,97.8L626.6,97.8z"/>
				</g>
			</g>
			<g id="Fill-26">
				<g>
					<path id="path-21" class="st0" d="M815.9,418.9c0,0.1,0,0.2,0,0.3L815.9,418.9C815.9,418.9,815.9,418.9,815.9,418.9
						L815.9,418.9z"/>
				</g>
				<g>
					<path class="st1" d="M815.9,418.9c0,0.1,0,0.2,0,0.3L815.9,418.9C815.9,418.9,815.9,418.9,815.9,418.9L815.9,418.9z"/>
				</g>
				<g>
					<path class="st2" d="M815.9,418.9c0,0.1,0,0.2,0,0.3L815.9,418.9C815.9,418.9,815.9,418.9,815.9,418.9L815.9,418.9z"/>
				</g>
			</g>
		</g>
	</g>
	<circle id="Oval" class="st9" cx="161" cy="501" r="73"/>
	<circle id="Oval-Copy" class="st9" cx="1039" cy="361" r="53"/>
	<polyline id="Path-2" class="st10" points="129.1,476.2 150.1,403.8 166.5,476.2 155.6,521.3 310.1,409.4 1029.5,333.2 
		1020.7,362.8 155.6,521.3 	"/>
	<path id="Path-3" class="st10" d="M1019.3,361.8l13.6,25.9"/>
	<path id="Path-4" class="st10" d="M168,473.8l15.9,26.7"/>
	<path id="MIT" class="st11" d="M1040.2,341v-11.4h2.5l3.5,8.3l3.5-8.3h2.5V341h-2v-5.7l0.1-3.2l-0.3,0.9l-2.9,7.3h-1.8l-2.9-7.3
		l-0.3-0.9l0.1,3.3v5.6H1040.2z M1055.5,341v-11.4h2.1V341H1055.5z M1063.2,341v-9.8h-3.3v-1.7h8.8v1.7h-3.3v9.8H1063.2z"/>
	<path id="BBM" class="st11" d="M1030.2,365v-11.4h3.6c1.5,0,2.6,0.2,3.4,0.7s1.1,1.2,1.1,2.2c0,0.2,0,0.3,0,0.5s-0.1,0.3-0.1,0.6
		s-0.2,0.4-0.3,0.6s-0.3,0.3-0.5,0.5s-0.5,0.3-0.8,0.4c0.7,0.2,1.2,0.5,1.6,1s0.6,1.1,0.6,1.8c0,1.1-0.4,1.9-1.1,2.5
		s-1.8,0.9-3.2,0.9H1030.2z M1032.4,363.5h1.8c1.6,0,2.4-0.6,2.4-1.9c0-0.6-0.2-1.1-0.6-1.4s-1-0.4-1.9-0.4h-1.8V363.5z
		 M1032.4,358.3h1.8c1.4,0,2.1-0.5,2.1-1.6c0-0.6-0.2-1-0.6-1.2s-1-0.3-1.9-0.3h-1.4V358.3z M1041.5,365v-11.4h3.6
		c1.5,0,2.6,0.2,3.4,0.7c0.7,0.4,1.1,1.2,1.1,2.2c0,0.2,0,0.3,0,0.5c0,0.2-0.1,0.3-0.1,0.6c-0.1,0.2-0.2,0.4-0.3,0.6
		c-0.1,0.2-0.3,0.3-0.5,0.5c-0.2,0.2-0.5,0.3-0.8,0.4c0.7,0.2,1.2,0.5,1.6,1s0.6,1.1,0.6,1.8c0,1.1-0.4,1.9-1.1,2.5
		c-0.8,0.6-1.8,0.9-3.2,0.9H1041.5z M1043.6,363.5h1.8c1.6,0,2.4-0.6,2.4-1.9c0-0.6-0.2-1.1-0.6-1.4s-1-0.4-1.9-0.4h-1.8V363.5z
		 M1043.6,358.3h1.8c1.4,0,2.1-0.5,2.1-1.6c0-0.6-0.2-1-0.6-1.2c-0.4-0.2-1-0.3-1.9-0.3h-1.4V358.3z M1052.8,365v-11.4h2.5l3.5,8.3
		l3.5-8.3h2.5V365h-2v-5.7l0.1-3.2l-0.3,0.9l-2.9,7.3h-1.8l-2.9-7.3l-0.3-0.9l0.1,3.3v5.6H1052.8z"/>
	<path id="HARVARD" class="st11" d="M1040.2,387v-11.4h2.1v4.7h5.2v-4.7h2.1V387h-2.1v-5.1h-5.2v5.1H1040.2z M1051.7,387l4.2-11.5
		h2.3l4.1,11.5h-2.2l-1.1-3.2h-4l-1.1,3.2H1051.7z M1055.6,382.2h2.9c-0.9-3-1.4-4.6-1.4-4.7L1055.6,382.2z M1064.3,387v-11.5h4.2
		c0.6,0,1.1,0,1.5,0.1c0.4,0.1,0.8,0.1,1.2,0.3s0.7,0.3,0.9,0.6c0.2,0.2,0.4,0.5,0.6,0.9c0.1,0.4,0.2,0.8,0.2,1.3
		c0,1.5-0.7,2.5-2.1,3c0.3,0.3,0.6,0.9,1,1.8l1.7,3.5h-2.3l-1.3-3c-0.5-1.1-0.8-1.7-0.9-1.9c-0.1,0-0.4,0-0.9,0l-1.8,0v4.9H1064.3z
		 M1068.7,380.6c0.8,0,1.4-0.1,1.8-0.4c0.4-0.3,0.5-0.8,0.5-1.4c0-0.6-0.2-1-0.5-1.2s-0.9-0.4-1.6-0.4h-2.4v3.5c0.1,0,0.5,0,1.2,0
		C1068.3,380.6,1068.7,380.6,1068.7,380.6z M1078.9,387l-4.2-11.4h2.2l2.4,7.1c0.1,0.2,0.3,1,0.6,2.1c0-0.1,0.1-0.4,0.3-1
		s0.3-1,0.3-1.1c0.1-0.2,0.5-1.4,1.2-3.5s1.1-3.4,1.2-3.6h2.2L1081,387H1078.9z M1085.1,387l4.2-11.5h2.3l4.1,11.5h-2.2l-1.1-3.2h-4
		l-1.1,3.2H1085.1z M1089,382.2h2.9c-0.9-3-1.4-4.6-1.4-4.7L1089,382.2z M1097.7,387v-11.5h4.2c0.6,0,1.1,0,1.5,0.1
		c0.4,0.1,0.8,0.1,1.2,0.3s0.7,0.3,0.9,0.6c0.2,0.2,0.4,0.5,0.6,0.9c0.1,0.4,0.2,0.8,0.2,1.3c0,1.5-0.7,2.5-2.1,3
		c0.3,0.3,0.6,0.9,1,1.8l1.7,3.5h-2.3l-1.3-3c-0.5-1.1-0.8-1.7-0.9-1.9c-0.1,0-0.4,0-0.9,0l-1.8,0v4.9H1097.7z M1102.1,380.6
		c0.8,0,1.4-0.1,1.8-0.4c0.4-0.3,0.5-0.8,0.5-1.4c0-0.6-0.2-1-0.5-1.2s-0.9-0.4-1.6-0.4h-2.4v3.5c0.1,0,0.5,0,1.2,0
		C1101.6,380.6,1102,380.6,1102.1,380.6z M1111.5,385.3h1.5c1.3,0,2.3-0.3,3-1s1-1.7,1-3c0-1.4-0.4-2.4-1.1-3.1s-1.8-1-3.2-1h-1.3
		V385.3z M1109.4,387v-11.4h3.3c1,0,1.9,0.1,2.7,0.3s1.5,0.6,2,1s1,1.1,1.3,1.8s0.5,1.6,0.5,2.5c0,1.8-0.6,3.3-1.7,4.3
		s-2.7,1.5-4.6,1.5H1109.4z"/>
	<circle id="Oval-2" class="st11" cx="130.1" cy="473.6" r="5"/>
	<circle id="Oval-2-Copy-4" class="st11" cx="150" cy="402" r="5"/>
	<circle id="Oval-2-Copy-6" class="st11" cx="309.5" cy="409.1" r="5"/>
	<circle id="Oval-2-Copy-5" class="st11" cx="1029" cy="332" r="5"/>
	<circle class="st11" cx="1033" cy="388" r="5"/>
	<circle class="st11" cx="1019" cy="361" r="5"/>
	<circle id="Oval-2-Copy-2" class="st11" cx="166.3" cy="473.8" r="5"/>
	<circle id="Oval-2-Copy-3" class="st11" cx="184" cy="500" r="5"/>
	<circle id="Oval-2-Copy" class="st11" cx="155" cy="520" r="5"/>
	<path id="UCSB" class="st11" d="M107.8,496.2c-1.5,0-2.6-0.4-3.4-1.1s-1.2-1.8-1.2-3.2v-7.3h2.1v7.1c0,1,0.2,1.6,0.6,2.1
		s1,0.7,1.9,0.7c0.9,0,1.5-0.2,1.9-0.7s0.6-1.1,0.6-2.1v-7.1h2.1v7.3c0,1.3-0.4,2.4-1.2,3.1S109.3,496.2,107.8,496.2z M120.7,496.2
		c-1.7,0-3-0.5-4-1.6s-1.5-2.5-1.5-4.4c0-1.8,0.5-3.2,1.5-4.2c1-1.1,2.4-1.6,4-1.6c1.3,0,2.5,0.3,3.4,0.9l-0.7,1.6
		c-0.9-0.5-1.8-0.8-2.7-0.8c-1.1,0-1.9,0.4-2.5,1.1c-0.6,0.8-0.9,1.8-0.9,3.1c0,1.3,0.3,2.3,0.9,3.1s1.4,1.1,2.5,1.1
		c1,0,1.9-0.2,2.9-0.7l0.3,1.7C123.1,495.9,122,496.2,120.7,496.2z M129.9,496.2c-1.4,0-2.6-0.3-3.7-1l0.5-1.7
		c0.5,0.3,1,0.5,1.6,0.7c0.6,0.2,1.1,0.2,1.7,0.2c0.7,0,1.2-0.1,1.5-0.4s0.5-0.7,0.5-1.2c0-0.7-0.5-1.2-1.4-1.5
		c-0.1,0-0.3-0.1-0.6-0.2s-0.6-0.2-0.9-0.3s-0.5-0.2-0.6-0.2c-1.5-0.5-2.3-1.6-2.3-3c0-1,0.4-1.8,1.1-2.4s1.7-0.8,2.9-0.8
		c1.4,0,2.6,0.3,3.6,0.9l-0.6,1.5c-1-0.5-2-0.7-2.8-0.7c-0.6,0-1.1,0.1-1.4,0.3s-0.5,0.6-0.5,1.1c0,0.6,0.3,1,0.9,1.2
		c0.1,0,0.4,0.1,0.9,0.3c0.5,0.2,0.8,0.3,1,0.3c1,0.3,1.8,0.8,2.2,1.3s0.7,1.2,0.7,2.1c0,1.1-0.4,1.9-1.2,2.5
		S131.2,496.2,129.9,496.2z M136.8,496v-11.4h3.6c1.5,0,2.6,0.2,3.4,0.7s1.1,1.2,1.1,2.2c0,0.2,0,0.3,0,0.5c0,0.2-0.1,0.3-0.1,0.6
		c-0.1,0.2-0.2,0.4-0.3,0.6s-0.3,0.3-0.5,0.5s-0.5,0.3-0.8,0.4c0.7,0.2,1.2,0.5,1.6,1s0.6,1.1,0.6,1.8c0,1.1-0.4,1.9-1.1,2.5
		c-0.8,0.6-1.8,0.9-3.2,0.9H136.8z M139,494.5h1.8c1.6,0,2.4-0.6,2.4-1.9c0-0.6-0.2-1.1-0.6-1.4s-1-0.4-1.9-0.4H139V494.5z
		 M139,489.3h1.8c1.4,0,2.1-0.5,2.1-1.6c0-0.6-0.2-1-0.6-1.2c-0.4-0.2-1-0.3-1.9-0.3H139V489.3z"/>
	<path id="SRI" class="st11" d="M141.4,394.2c-1.4,0-2.6-0.3-3.7-1l0.5-1.7c0.5,0.3,1,0.5,1.6,0.7c0.6,0.2,1.1,0.2,1.7,0.2
		c0.7,0,1.2-0.1,1.5-0.4s0.5-0.7,0.5-1.2c0-0.7-0.5-1.2-1.4-1.5c-0.1,0-0.3-0.1-0.6-0.2s-0.6-0.2-0.9-0.3s-0.5-0.2-0.6-0.2
		c-1.5-0.5-2.3-1.6-2.3-3c0-1,0.4-1.8,1.1-2.4s1.7-0.8,2.9-0.8c1.4,0,2.6,0.3,3.6,0.9l-0.6,1.5c-1-0.5-2-0.7-2.8-0.7
		c-0.6,0-1.1,0.1-1.4,0.3s-0.5,0.6-0.5,1.1c0,0.6,0.3,1,0.9,1.2c0.1,0,0.4,0.1,0.9,0.3s0.8,0.3,1,0.3c1,0.3,1.8,0.8,2.2,1.3
		s0.7,1.2,0.7,2.1c0,1.1-0.4,1.9-1.2,2.5S142.8,394.2,141.4,394.2z M148.3,394v-11.5h4.2c0.6,0,1.1,0,1.5,0.1s0.8,0.1,1.2,0.3
		s0.7,0.3,0.9,0.6s0.4,0.5,0.6,0.9c0.1,0.4,0.2,0.8,0.2,1.3c0,1.5-0.7,2.5-2.1,3c0.3,0.3,0.6,0.9,1,1.8l1.7,3.5h-2.3l-1.3-3
		c-0.5-1.1-0.8-1.7-0.9-1.9c-0.1,0-0.4,0-0.9,0l-1.8,0v4.9H148.3z M152.8,387.6c0.8,0,1.4-0.1,1.8-0.4s0.5-0.8,0.5-1.4
		c0-0.6-0.2-1-0.5-1.2s-0.9-0.4-1.6-0.4h-2.4v3.5c0.1,0,0.5,0,1.2,0S152.7,387.6,152.8,387.6z M160.2,394v-11.4h2.1V394H160.2z"/>
	<path id="RAND" class="st11" d="M131.3,543v-11.5h4.2c0.6,0,1.1,0,1.5,0.1c0.4,0.1,0.8,0.1,1.2,0.3s0.7,0.3,0.9,0.6
		c0.2,0.2,0.4,0.5,0.6,0.9c0.1,0.4,0.2,0.8,0.2,1.3c0,1.5-0.7,2.5-2.1,3c0.3,0.3,0.6,0.9,1,1.8l1.7,3.5h-2.3l-1.3-3
		c-0.5-1.1-0.8-1.7-0.9-1.9c-0.1,0-0.4,0-0.9,0l-1.8,0v4.9H131.3z M135.7,536.6c0.8,0,1.4-0.1,1.8-0.4c0.4-0.3,0.5-0.8,0.5-1.4
		c0-0.6-0.2-1-0.5-1.2s-0.9-0.4-1.6-0.4h-2.4v3.5c0.1,0,0.5,0,1.2,0S135.6,536.6,135.7,536.6z M141.8,543l4.2-11.5h2.3l4.1,11.5
		h-2.2l-1.1-3.2h-4L144,543H141.8z M145.7,538.2h2.9c-0.9-3-1.4-4.6-1.4-4.7L145.7,538.2z M154.5,543v-11.4h2.2
		c0.4,0.6,1.2,1.9,2.5,3.8s2,3.1,2.3,3.5c0.1,0.1,0.2,0.3,0.4,0.6s0.3,0.5,0.4,0.6c0-1.8-0.1-2.7-0.1-2.8v-5.8h1.9V543h-2.3l-5.2-8
		l-0.4-0.6c0,1.4,0.1,2.3,0.1,2.9v5.8H154.5z M169.6,541.3h1.5c1.3,0,2.3-0.3,3-1s1-1.7,1-3c0-1.4-0.4-2.4-1.1-3.1s-1.8-1-3.2-1
		h-1.3V541.3z M167.5,543v-11.4h3.3c1,0,1.9,0.1,2.7,0.3s1.5,0.6,2,1s1,1.1,1.3,1.8s0.5,1.6,0.5,2.5c0,1.8-0.6,3.3-1.7,4.3
		S173,543,171,543H167.5z"/>
	<path id="SDC" class="st11" d="M196.4,508.2c-1.4,0-2.6-0.3-3.7-1l0.5-1.7c0.5,0.3,1,0.5,1.6,0.7c0.6,0.2,1.1,0.2,1.7,0.2
		c0.7,0,1.2-0.1,1.5-0.4s0.5-0.7,0.5-1.2c0-0.7-0.5-1.2-1.4-1.5c-0.1,0-0.3-0.1-0.6-0.2s-0.6-0.2-0.9-0.3s-0.5-0.2-0.6-0.2
		c-1.5-0.5-2.3-1.6-2.3-3c0-1,0.4-1.8,1.1-2.4s1.7-0.8,2.9-0.8c1.4,0,2.6,0.3,3.6,0.9l-0.6,1.5c-1-0.5-2-0.7-2.8-0.7
		c-0.6,0-1.1,0.1-1.4,0.3s-0.5,0.6-0.5,1.1c0,0.6,0.3,1,0.9,1.2c0.1,0,0.4,0.1,0.9,0.3s0.8,0.3,1,0.3c1,0.3,1.8,0.8,2.2,1.3
		s0.7,1.2,0.7,2.1c0,1.1-0.4,1.9-1.2,2.5S197.8,508.2,196.4,508.2z M205.5,506.3h1.5c1.3,0,2.3-0.3,3-1s1-1.7,1-3
		c0-1.4-0.4-2.4-1.1-3.1s-1.8-1-3.2-1h-1.3V506.3z M203.4,508v-11.4h3.3c1,0,1.9,0.1,2.7,0.3s1.5,0.6,2,1s1,1.1,1.3,1.8
		s0.5,1.6,0.5,2.5c0,1.8-0.6,3.3-1.7,4.3s-2.7,1.5-4.6,1.5H203.4z M221.1,508.2c-1.7,0-3-0.5-4-1.6s-1.5-2.5-1.5-4.4
		c0-1.8,0.5-3.2,1.5-4.2c1-1.1,2.4-1.6,4-1.6c1.3,0,2.5,0.3,3.4,0.9l-0.7,1.6c-0.9-0.5-1.8-0.8-2.7-0.8c-1.1,0-1.9,0.4-2.5,1.1
		s-0.9,1.8-0.9,3.1c0,1.3,0.3,2.3,0.9,3.1c0.6,0.7,1.4,1.1,2.5,1.1c1,0,1.9-0.2,2.9-0.7l0.3,1.7
		C223.5,507.9,222.4,508.2,221.1,508.2z"/>
	<path id="UTAH" class="st11" d="M293.7,398.2c-1.5,0-2.6-0.4-3.4-1.1s-1.2-1.8-1.2-3.2v-7.3h2.1v7.1c0,1,0.2,1.6,0.6,2.1
		s1,0.7,1.9,0.7c0.9,0,1.5-0.2,1.9-0.7s0.6-1.1,0.6-2.1v-7.1h2.1v7.3c0,1.3-0.4,2.4-1.2,3.1S295.2,398.2,293.7,398.2z M303.8,398
		v-9.8h-3.3v-1.7h8.8v1.7h-3.3v9.8H303.8z M310,398l4.2-11.5h2.3l4.1,11.5h-2.2l-1.1-3.2h-4l-1.1,3.2H310z M313.8,393.2h2.9
		c-0.9-3-1.4-4.6-1.4-4.7L313.8,393.2z M322.6,398v-11.4h2.1v4.7h5.2v-4.7h2.1V398h-2.1v-5.1h-5.2v5.1H322.6z"/>
	<path id="UCLA" class="st11" d="M175.2,468.2c-1.5,0-2.6-0.4-3.4-1.1s-1.2-1.8-1.2-3.2v-7.3h2.1v7.1c0,1,0.2,1.6,0.6,2.1
		c0.4,0.4,1,0.7,1.9,0.7c0.9,0,1.5-0.2,1.9-0.7c0.4-0.4,0.6-1.1,0.6-2.1v-7.1h2.1v7.3c0,1.3-0.4,2.4-1.2,3.1
		S176.7,468.2,175.2,468.2z M188,468.2c-1.7,0-3-0.5-4-1.6s-1.5-2.5-1.5-4.4c0-1.8,0.5-3.2,1.5-4.2c1-1.1,2.4-1.6,4-1.6
		c1.3,0,2.5,0.3,3.4,0.9l-0.7,1.6c-0.9-0.5-1.8-0.8-2.7-0.8c-1.1,0-1.9,0.4-2.5,1.1s-0.9,1.8-0.9,3.1c0,1.3,0.3,2.3,0.9,3.1
		c0.6,0.7,1.4,1.1,2.5,1.1c1,0,1.9-0.2,2.9-0.7l0.3,1.7C190.4,467.9,189.3,468.2,188,468.2z M194.1,468v-11.4h2.1v9.8h4.8l-0.1,1.7
		H194.1z M202,468l4.2-11.5h2.3l4.1,11.5h-2.2l-1.1-3.2h-4l-1.1,3.2H202z M205.9,463.2h2.9c-0.9-3-1.4-4.6-1.4-4.7L205.9,463.2z"/>
	<path id="Early-ARPANET-Instit" class="st12" d="M439.9,137v-17.2h10.4l-0.1,2.5H443v4.4h6.8v2.5H443v5.2h7.4l-0.1,2.5H439.9z
		 M457.7,137.2c-1.2,0-2.2-0.3-2.9-1s-1.1-1.6-1.1-2.9c0-1.3,0.4-2.3,1.3-3s2.2-1.1,4-1.2c0.2,0,0.5-0.1,0.8-0.1s0.6-0.1,0.9-0.1
		s0.6-0.1,0.8-0.1v-0.7c0-0.8-0.2-1.3-0.5-1.7s-0.9-0.5-1.6-0.5c-1,0-2.3,0.3-3.9,0.9c0,0-0.1-0.4-0.4-1.1s-0.4-1-0.4-1.1
		c1.5-0.6,3.2-1,4.9-1c1.7,0,3,0.4,3.8,1.1c0.8,0.8,1.2,2,1.2,3.7v8.4h-2.3c0,0-0.1-0.3-0.3-0.8s-0.2-0.8-0.2-0.8
		c-0.6,0.6-1.3,1.1-1.9,1.4S458.6,137.2,457.7,137.2z M458.6,135.1c0.7,0,1.3-0.2,1.9-0.5s0.9-0.8,1.1-1.2v-2.5c0,0-0.2,0-0.6,0
		s-0.6,0-0.6,0c-1.2,0.1-2.2,0.3-2.7,0.7s-0.9,0.9-0.9,1.7c0,0.5,0.2,1,0.5,1.3S458,135.1,458.6,135.1z M469,137v-12.9h2.6l0.4,2
		c0.8-1.4,2.1-2,3.7-2c0.3,0,0.6,0,0.8,0l0,2.6c-0.3,0-0.6-0.1-1-0.1c-1.1,0-2,0.3-2.5,0.9s-0.8,1.4-0.8,2.5v7H469z M484.2,137.2
		c-0.9,0-1.6-0.1-2.2-0.3s-1-0.5-1.4-1s-0.6-1-0.7-1.6s-0.2-1.4-0.2-2.3v-12.6l3.1-0.2v12.7c0,1.2,0.1,1.9,0.4,2.3s0.8,0.6,1.6,0.6
		c0.4,0,0.9,0,1.5-0.1l0.1,2.2c0,0-0.1,0-0.3,0.1s-0.4,0.1-0.5,0.1s-0.4,0.1-0.6,0.1S484.4,137.2,484.2,137.2z M489.8,142.4
		c-0.5,0-1,0-1.6-0.1l-0.2-2.4c0.4,0,0.8,0.1,1.4,0.1c0.7,0,1.3-0.1,1.7-0.4c0.4-0.3,0.8-0.8,1.1-1.5c0-0.1,0.2-0.5,0.5-1.3
		l-5.2-12.6h3.3l3.4,9.3c0.2-0.9,0.8-2.7,1.7-5.2c0.9-2.5,1.3-3.9,1.4-4.2h3.3c-3.6,9.4-5.4,14.2-5.4,14.3c-0.6,1.4-1.3,2.5-2.1,3.1
		C492.2,142.1,491.1,142.4,489.8,142.4z M509.5,137l6.3-17.2h3.5l6.2,17.2h-3.3l-1.7-4.9h-6l-1.7,4.9H509.5z M515.3,129.8h4.4
		c-1.4-4.5-2.1-6.8-2.2-7L515.3,129.8z M528.4,137v-17.2h6.4c0.9,0,1.6,0,2.3,0.1s1.2,0.2,1.8,0.4s1,0.5,1.4,0.8s0.6,0.8,0.8,1.4
		s0.3,1.2,0.3,2c0,2.3-1,3.8-3.1,4.5c0.4,0.5,0.9,1.4,1.6,2.6l2.6,5.3H539l-2-4.5c-0.8-1.6-1.2-2.6-1.4-2.9c-0.1,0-0.6,0-1.3,0
		l-2.7,0v7.4H528.4z M535.1,127.3c1.2,0,2.1-0.2,2.6-0.7s0.8-1.1,0.8-2.1c0-0.8-0.3-1.5-0.8-1.9s-1.4-0.6-2.5-0.6h-3.6v5.2
		c0.1,0,0.7,0,1.7,0S535,127.3,535.1,127.3z M545.9,137v-17.2h5.7c1.4,0,2.5,0.2,3.5,0.5c1,0.3,1.7,0.9,2.3,1.7s0.8,1.8,0.8,2.9
		c0,0.8-0.1,1.5-0.3,2.2s-0.6,1.2-1,1.7s-1.2,0.9-2,1.2c-0.9,0.3-1.9,0.4-3.2,0.4c-1.1,0-1.9,0-2.6-0.1v6.6H545.9z M551.3,128.2
		c0.6,0,1.2-0.1,1.7-0.2s0.9-0.3,1.1-0.5s0.5-0.4,0.6-0.7s0.3-0.6,0.3-0.8s0.1-0.6,0.1-0.9c0-0.9-0.3-1.7-0.9-2.2s-1.5-0.7-2.6-0.7
		h-2.6v6C549.1,128.2,549.9,128.2,551.3,128.2z M558.7,137l6.3-17.2h3.5l6.2,17.2h-3.3l-1.7-4.9h-6L562,137H558.7z M564.6,129.8h4.4
		c-1.4-4.5-2.1-6.8-2.2-7L564.6,129.8z M577.7,137v-17.2h3.4c0.6,1,1.8,2.9,3.7,5.8c1.9,2.9,3,4.6,3.4,5.3c0.1,0.2,0.3,0.5,0.6,0.9
		s0.5,0.7,0.6,0.9c-0.1-2.7-0.1-4.1-0.1-4.2v-8.7h2.9V137h-3.4l-7.7-12.1l-0.6-0.9c0.1,2.1,0.1,3.5,0.1,4.3v8.6H577.7z M597.2,137
		v-17.2h10.4l-0.1,2.5h-7.1v4.4h6.8v2.5h-6.8v5.2h7.4l-0.1,2.5H597.2z M615.3,137v-14.6h-5v-2.5h13.2v2.5h-5V137H615.3z M634.5,137
		v-17.2h3.2V137H634.5z M642.5,137v-12.9h2.5l0.3,1.6c1.3-1.3,2.8-1.9,4.4-1.9c1.5,0,2.6,0.4,3.4,1.3s1.1,2.1,1.1,3.8v8.1H651v-7.8
		c0-1-0.2-1.8-0.5-2.3s-0.9-0.8-1.8-0.8c-0.7,0-1.3,0.2-1.8,0.5s-1,0.8-1.2,1.3c-0.1,0.6-0.2,1.5-0.2,2.8v6.3H642.5z M662.5,137.2
		c-1.9,0-3.4-0.3-4.6-1l0.3-2.3c0.5,0.3,1.2,0.5,2,0.8s1.5,0.3,2.2,0.3c0.7,0,1.2-0.1,1.6-0.4s0.6-0.6,0.6-1.1
		c0-0.4-0.2-0.8-0.5-1.1s-1-0.6-2-1c-0.3-0.1-0.6-0.2-0.7-0.2c-1.2-0.5-2-1-2.6-1.5s-0.8-1.3-0.8-2.3c0-1.2,0.4-2.1,1.3-2.7
		s2-0.9,3.5-0.9c1.6,0,3.1,0.3,4.3,0.9l-0.8,2.1c-1.2-0.6-2.4-0.9-3.5-0.9c-0.6,0-1.1,0.1-1.4,0.3s-0.5,0.5-0.5,0.9
		c0,0.4,0.2,0.7,0.5,0.9s1,0.5,2,0.9c0,0,0.1,0,0.3,0.1s0.3,0.1,0.4,0.2c1.2,0.4,2,0.9,2.6,1.5s0.8,1.4,0.8,2.3c0,1.3-0.4,2.3-1.3,3
		S664.1,137.2,662.5,137.2z M676.4,137.2c-0.9,0-1.6-0.1-2.2-0.3s-1-0.5-1.4-1s-0.6-1-0.7-1.6s-0.2-1.4-0.2-2.2V126h-2.1l0.1-1.7
		l2.2-0.2l1-3.5l1.9,0v3.5h3.2v1.9H675v6.1c0,1,0.1,1.7,0.4,2.1s0.8,0.6,1.6,0.6c0.4,0,0.9,0,1.4-0.1l0.1,2.2c0,0-0.1,0-0.3,0.1
		s-0.3,0.1-0.5,0.1s-0.4,0.1-0.6,0.1S676.6,137.2,676.4,137.2z M682,137v-12.9h3.1V137H682z M682,122.2v-2.6h3.1v2.6H682z
		 M694.7,137.2c-0.9,0-1.6-0.1-2.2-0.3s-1-0.5-1.4-1s-0.6-1-0.7-1.6s-0.2-1.4-0.2-2.2V126h-2.1l0.1-1.7l2.2-0.2l1-3.5l1.9,0v3.5h3.2
		v1.9h-3.2v6.1c0,1,0.1,1.7,0.4,2.1s0.8,0.6,1.6,0.6c0.4,0,0.9,0,1.4-0.1l0.1,2.2c0,0-0.1,0-0.3,0.1s-0.3,0.1-0.5,0.1
		s-0.4,0.1-0.6,0.1S694.9,137.2,694.7,137.2z M709.6,136c-1,0.8-2.4,1.3-4,1.3s-3-0.4-4-1.3s-1.5-2.1-1.5-3.7v-8.2h3.1v8.1
		c0,1,0.2,1.7,0.6,2.1s1,0.6,1.9,0.6c0.9,0,1.5-0.2,1.9-0.6s0.6-1.1,0.6-2.1v-8.1h3.1v8.2C711.1,133.9,710.6,135.1,709.6,136z
		 M720.3,137.2c-0.9,0-1.6-0.1-2.2-0.3s-1-0.5-1.4-1s-0.6-1-0.7-1.6s-0.2-1.4-0.2-2.2V126h-2.1l0.1-1.7l2.2-0.2l1-3.5l1.9,0v3.5h3.2
		v1.9h-3.2v6.1c0,1,0.1,1.7,0.4,2.1s0.8,0.6,1.6,0.6c0.4,0,0.9,0,1.4-0.1l0.1,2.2c0,0-0.1,0-0.3,0.1s-0.3,0.1-0.5,0.1
		s-0.4,0.1-0.6,0.1S720.5,137.2,720.3,137.2z M725.9,137v-12.9h3.1V137H725.9z M725.9,122.2v-2.6h3.1v2.6H725.9z M739.1,134.9
		c1,0,1.8-0.4,2.3-1.1s0.8-1.8,0.8-3.3c0-1.4-0.3-2.5-0.8-3.3c-0.5-0.8-1.3-1.1-2.4-1.1c-1,0-1.8,0.4-2.3,1.1
		c-0.5,0.8-0.8,1.8-0.8,3.3c0,1.4,0.3,2.5,0.8,3.2S738.1,134.9,739.1,134.9z M739,137.2c-1.9,0-3.4-0.6-4.5-1.9s-1.6-2.9-1.6-4.9
		c0-2.1,0.5-3.7,1.6-4.9s2.6-1.8,4.6-1.8c1.9,0,3.4,0.6,4.5,1.8s1.6,2.8,1.6,4.9c0,2.1-0.6,3.7-1.7,4.9S741,137.2,739,137.2z
		 M749.1,137v-12.9h2.5l0.3,1.6c1.3-1.3,2.8-1.9,4.4-1.9c1.5,0,2.6,0.4,3.4,1.3s1.1,2.1,1.1,3.8v8.1h-3.1v-7.8c0-1-0.2-1.8-0.5-2.3
		s-0.9-0.8-1.8-0.8c-0.7,0-1.3,0.2-1.8,0.5s-1,0.8-1.2,1.3c-0.1,0.6-0.2,1.5-0.2,2.8v6.3H749.1z M769.2,137.2c-1.9,0-3.4-0.3-4.6-1
		l0.3-2.3c0.5,0.3,1.2,0.5,2,0.8s1.5,0.3,2.2,0.3c0.7,0,1.2-0.1,1.6-0.4s0.6-0.6,0.6-1.1c0-0.4-0.2-0.8-0.5-1.1s-1-0.6-2-1
		c-0.3-0.1-0.6-0.2-0.7-0.2c-1.2-0.5-2-1-2.6-1.5s-0.8-1.3-0.8-2.3c0-1.2,0.4-2.1,1.3-2.7s2-0.9,3.5-0.9c1.6,0,3.1,0.3,4.3,0.9
		l-0.8,2.1c-1.2-0.6-2.4-0.9-3.5-0.9c-0.6,0-1.1,0.1-1.4,0.3s-0.5,0.5-0.5,0.9c0,0.4,0.2,0.7,0.5,0.9s1,0.5,2,0.9c0,0,0.1,0,0.3,0.1
		s0.3,0.1,0.4,0.2c1.2,0.4,2,0.9,2.6,1.5s0.8,1.4,0.8,2.3c0,1.3-0.4,2.3-1.3,3S770.8,137.2,769.2,137.2z"/>
</g>
</svg>
