<?xml version="1.0" encoding="UTF-8"?>
<svg width="1214px" height="945px" viewBox="0 0 1214 945" version="1.1" xmlns="http://www.w3.org/2000/svg" xmlns:xlink="http://www.w3.org/1999/xlink">
    <!-- Generator: Sketch 46.2 (44496) - http://www.bohemiancoding.com/sketch -->
    <title>Artboard</title>
    <desc>Created with Sketch.</desc>
    <defs></defs>
    <g id="Page-1" stroke="none" stroke-width="1" fill="none" fill-rule="evenodd">
        <g id="Artboard">
            <polygon id="Page-1" points="-2 945 1214 945 1214 -1 -2 -1"></polygon>
            <g id="Group-Copy-2" transform="translate(884.000000, 210.000000)">
                <rect id="Rectangle-Copy" fill="#4E768D" x="0" y="0" width="279" height="193"></rect>
                <path d="M31.545,32.8333333 L248.523457,32.8333333" id="Line" stroke="#FFFFFF" stroke-width="2" stroke-linecap="square"></path>
                <path d="M31.545,64.6666667 L248.523457,64.6666667" id="Line-Copy" stroke="#FFFFFF" stroke-width="2" stroke-linecap="square"></path>
                <path d="M31.545,96.5 L248.523457,96.5" id="Line-Copy-2" stroke="#FFFFFF" stroke-width="2" stroke-linecap="square"></path>
                <path d="M31.545,128.333333 L248.523457,128.333333" id="Line-Copy-3" stroke="#FFFFFF" stroke-width="2" stroke-linecap="square"></path>
                <path d="M31.545,160.166667 L248.523457,160.166667" id="Line-Copy-4" stroke="#FFFFFF" stroke-width="2" stroke-linecap="square"></path>
            </g>
            <g id="Group-Copy" transform="translate(467.000000, 210.000000)">
                <rect id="Rectangle-Copy" fill="#4E768D" x="0" y="0" width="279" height="193"></rect>
                <path d="M31.545,32.8333333 L248.523457,32.8333333" id="Line" stroke="#FFFFFF" stroke-width="2" stroke-linecap="square"></path>
                <path d="M31.545,64.6666667 L248.523457,64.6666667" id="Line-Copy" stroke="#FFFFFF" stroke-width="2" stroke-linecap="square"></path>
                <path d="M31.545,96.5 L248.523457,96.5" id="Line-Copy-2" stroke="#FFFFFF" stroke-width="2" stroke-linecap="square"></path>
                <path d="M31.545,128.333333 L248.523457,128.333333" id="Line-Copy-3" stroke="#FFFFFF" stroke-width="2" stroke-linecap="square"></path>
                <path d="M31.545,160.166667 L248.523457,160.166667" id="Line-Copy-4" stroke="#FFFFFF" stroke-width="2" stroke-linecap="square"></path>
            </g>
            <g id="Group" transform="translate(50.000000, 210.000000)">
                <rect id="Rectangle-Copy" fill="#4E768D" x="0" y="0" width="279" height="193"></rect>
                <path d="M31.545,32.8333333 L248.523457,32.8333333" id="Line" stroke="#FFFFFF" stroke-width="2" stroke-linecap="square"></path>
                <path d="M31.545,64.6666667 L248.523457,64.6666667" id="Line-Copy" stroke="#FFFFFF" stroke-width="2" stroke-linecap="square"></path>
                <path d="M31.545,96.5 L248.523457,96.5" id="Line-Copy-2" stroke="#FFFFFF" stroke-width="2" stroke-linecap="square"></path>
                <path d="M31.545,128.333333 L248.523457,128.333333" id="Line-Copy-3" stroke="#FFFFFF" stroke-width="2" stroke-linecap="square"></path>
                <path d="M31.545,160.166667 L248.523457,160.166667" id="Line-Copy-4" stroke="#FFFFFF" stroke-width="2" stroke-linecap="square"></path>
            </g>
            <g id="Group-Copy-4" transform="translate(884.000000, 506.000000)">
                <rect id="Rectangle-Copy" fill="#4E768D" x="0" y="0" width="279" height="193"></rect>
                <path d="M31.545,32.8333333 L248.523457,32.8333333" id="Line" stroke="#FFFFFF" stroke-width="2" stroke-linecap="square"></path>
                <path d="M31.545,64.6666667 L248.523457,64.6666667" id="Line-Copy" stroke="#FFFFFF" stroke-width="2" stroke-linecap="square"></path>
                <path d="M31.545,96.5 L248.523457,96.5" id="Line-Copy-2" stroke="#FFFFFF" stroke-width="2" stroke-linecap="square"></path>
                <path d="M31.545,128.333333 L248.523457,128.333333" id="Line-Copy-3" stroke="#FFFFFF" stroke-width="2" stroke-linecap="square"></path>
                <path d="M31.545,160.166667 L248.523457,160.166667" id="Line-Copy-4" stroke="#FFFFFF" stroke-width="2" stroke-linecap="square"></path>
            </g>
            <g id="Group-Copy-6" transform="translate(50.000000, 506.000000)">
                <rect id="Rectangle-Copy" fill="#4E768D" x="0" y="0" width="279" height="193"></rect>
                <path d="M31.545,32.8333333 L248.523457,32.8333333" id="Line" stroke="#FFFFFF" stroke-width="2" stroke-linecap="square"></path>
                <path d="M31.545,64.6666667 L248.523457,64.6666667" id="Line-Copy" stroke="#FFFFFF" stroke-width="2" stroke-linecap="square"></path>
                <path d="M31.545,96.5 L248.523457,96.5" id="Line-Copy-2" stroke="#FFFFFF" stroke-width="2" stroke-linecap="square"></path>
                <path d="M31.545,128.333333 L248.523457,128.333333" id="Line-Copy-3" stroke="#FFFFFF" stroke-width="2" stroke-linecap="square"></path>
                <path d="M31.545,160.166667 L248.523457,160.166667" id="Line-Copy-4" stroke="#FFFFFF" stroke-width="2" stroke-linecap="square"></path>
            </g>
            <g id="Group-Copy-3" transform="translate(467.000000, 506.000000)">
                <rect id="Rectangle-Copy" fill="#4E768D" x="0" y="0" width="279" height="193"></rect>
                <path d="M31.545,32.8333333 L248.523457,32.8333333" id="Line" stroke="#FFFFFF" stroke-width="2" stroke-linecap="square"></path>
                <path d="M31.545,64.6666667 L248.523457,64.6666667" id="Line-Copy" stroke="#FFFFFF" stroke-width="2" stroke-linecap="square"></path>
                <path d="M31.545,96.5 L248.523457,96.5" id="Line-Copy-2" stroke="#FFFFFF" stroke-width="2" stroke-linecap="square"></path>
                <path d="M31.545,128.333333 L248.523457,128.333333" id="Line-Copy-3" stroke="#FFFFFF" stroke-width="2" stroke-linecap="square"></path>
                <path d="M31.545,160.166667 L248.523457,160.166667" id="Line-Copy-4" stroke="#FFFFFF" stroke-width="2" stroke-linecap="square"></path>
            </g>
            <g id="Group-3" transform="translate(377.500000, 321.500000) scale(-1, -1) translate(-377.500000, -321.500000) translate(295.000000, 307.000000)">
                <path d="M24,15.885 L160.014705,15.885" id="Stroke-19" stroke="#39D1B4" stroke-width="2"></path>
                <g id="Group-2" fill="#39D1B4">
                    <polygon id="Triangle" points="0 14.5 26 0 26 29"></polygon>
                    <circle id="Oval" cx="158.5" cy="14.5" r="6.5"></circle>
                </g>
            </g>
            <g id="Group-3-Copy-6" transform="translate(748.000000, 611.000000)">
                <path d="M24,15.885 L160.014705,15.885" id="Stroke-19" stroke="#39D1B4" stroke-width="2"></path>
                <g id="Group-2" fill="#39D1B4">
                    <polygon id="Triangle" points="0 14.5 26 0 26 29"></polygon>
                    <circle id="Oval" cx="158.5" cy="14.5" r="6.5"></circle>
                </g>
            </g>
            <g id="Group-3-Copy-4" transform="translate(774.265182, 315.802182) scale(-1, -1) rotate(-24.000000) translate(-774.265182, -315.802182) translate(691.765182, 301.302182)">
                <path d="M24,15.885 L160.014705,15.885" id="Stroke-19" stroke="#39D1B4" stroke-width="2"></path>
                <g id="Group-2" fill="#39D1B4">
                    <polygon id="Triangle" points="0 14.5 26 0 26 29"></polygon>
                    <circle id="Oval" cx="158.5" cy="14.5" r="6.5"></circle>
                </g>
            </g>
            <g id="Group-3-Copy-7" transform="translate(1102.358496, 446.441757) scale(-1, -1) rotate(-105.000000) translate(-1102.358496, -446.441757) translate(1019.858496, 431.941757)">
                <path d="M24,15.885 L160.014705,15.885" id="Stroke-19" stroke="#39D1B4" stroke-width="2"></path>
                <g id="Group-2" fill="#39D1B4">
                    <polygon id="Triangle" points="0 14.5 26 0 26 29"></polygon>
                    <circle id="Oval" cx="158.5" cy="14.5" r="6.5"></circle>
                </g>
            </g>
            <g id="Group-3-Copy" transform="translate(384.266788, 446.223030) scale(-1, -1) rotate(36.000000) translate(-384.266788, -446.223030) translate(301.766788, 431.723030)">
                <path d="M24,15.885 L160.014705,15.885" id="Stroke-19" stroke="#39D1B4" stroke-width="2"></path>
                <g id="Group-2" transform="translate(0.000000, 0.000000)" fill="#39D1B4">
                    <polygon id="Triangle" points="0 14.5 26 0 26 29"></polygon>
                    <circle id="Oval" cx="158.5" cy="14.5" r="6.5"></circle>
                </g>
            </g>
            <g id="Group-3-Copy-8" transform="translate(951.534144, 451.650514) scale(-1, -1) rotate(118.000000) translate(-951.534144, -451.650514) translate(869.034144, 437.150514)">
                <path d="M24,15.885 L160.014705,15.885" id="Stroke-19" stroke="#39D1B4" stroke-width="2"></path>
                <g id="Group-2" transform="translate(0.000000, 0.000000)" fill="#39D1B4">
                    <polygon id="Triangle" points="0 14.5 26 0 26 29"></polygon>
                    <circle id="Oval" cx="158.5" cy="14.5" r="6.5"></circle>
                </g>
            </g>
            <g id="Group-3-Copy-5" transform="translate(408.441757, 604.358496) scale(-1, -1) rotate(-195.000000) translate(-408.441757, -604.358496) translate(325.941757, 589.858496)">
                <path d="M24,15.885 L160.014705,15.885" id="Stroke-19" stroke="#39D1B4" stroke-width="2"></path>
                <g id="Group-2" transform="translate(0.000000, 0.000000)" fill="#39D1B4">
                    <polygon id="Triangle" points="0 14.5 26 0 26 29"></polygon>
                    <circle id="Oval" cx="158.5" cy="14.5" r="6.5"></circle>
                </g>
            </g>
            <g id="Group-3-Copy-2" transform="translate(154.358496, 446.441757) scale(-1, -1) rotate(-285.000000) translate(-154.358496, -446.441757) translate(71.858496, 431.941757)">
                <path d="M24,15.885 L160.014705,15.885" id="Stroke-19" stroke="#39D1B4" stroke-width="2"></path>
                <g id="Group-2" transform="translate(0.000000, 0.000000)" fill="#39D1B4">
                    <polygon id="Triangle" points="0 14.5 26 0 26 29"></polygon>
                    <circle id="Oval" cx="158.5" cy="14.5" r="6.5"></circle>
                </g>
            </g>
            <g id="Group-3-Copy-3" transform="translate(541.358496, 422.441757) scale(-1, -1) rotate(-285.000000) translate(-541.358496, -422.441757) translate(458.858496, 407.941757)">
                <path d="M24,15.885 L160.014705,15.885" id="Stroke-19" stroke="#39D1B4" stroke-width="2"></path>
                <g id="Group-2" transform="translate(0.000000, 0.000000)" fill="#39D1B4">
                    <polygon id="Triangle" points="0 14.5 26 0 26 29"></polygon>
                    <circle id="Oval" cx="158.5" cy="14.5" r="6.5"></circle>
                </g>
            </g>
        </g>
    </g>
</svg>