<svg height="800" viewBox="0 0 1200 800" width="1200" xmlns="http://www.w3.org/2000/svg"><g fill="none" fill-rule="evenodd"><g fill="#fff" fill-rule="nonzero"><g transform="translate(449.624 56.046)"><path d="m5.07 3.874h-5.07v-3.12h13.52v3.12h-5.07v15.08h-3.38z"/><path d="m19.032 19.162c-1.3693333 0-2.5566667-.2946667-3.562-.884s-1.7723333-1.3953333-2.301-2.418-.793-2.1753333-.793-3.458.2643333-2.43533333.793-3.458 1.2956667-1.82866667 2.301-2.418 2.1926667-.884 3.562-.884 2.5566667.29466667 3.562.884 1.7723333 1.39533333 2.301 2.418.793 2.1753333.793 3.458-.2643333 2.4353333-.793 3.458-1.2956667 1.8286667-2.301 2.418-2.1926667.884-3.562.884zm0-2.756c1.0053333 0 1.8026667-.3856667 2.392-1.157s.884-1.7203333.884-2.847-.2946667-2.0756667-.884-2.847c-.5893333-.77133333-1.3866667-1.157-2.392-1.157s-1.8026667.38566667-2.392 1.157c-.5893333.7713333-.884 1.7203333-.884 2.847s.2946667 2.0756667.884 2.847 1.3866667 1.157 2.392 1.157z"/><path d="m33.748 19.162c-1.508 0-2.6866667-.4073333-3.536-1.222s-1.274-2.0193333-1.274-3.614v-5.72h-2.028v-2.756h2.028v-3.276l3.224-2.028v5.304h3.458v2.756h-3.458v5.668c0 .78.143 1.3303333.429 1.651s.715.481 1.287.481c.4333333 0 .8493333-.104 1.248-.312l.754 2.6c-.676.312-1.3866667.468-2.132.468z"/><path d="m41.184 19.162c-1.1613333 0-2.1146667-.3466667-2.86-1.04s-1.118-1.6726667-1.118-2.938c0-1.3.494-2.34 1.482-3.12s2.3226667-1.17 4.004-1.17h2.288v-.572c0-.64133333-.2166667-1.12233333-.65-1.443s-.9793333-.481-1.638-.481c-1.1266667 0-1.8806667.50266667-2.262 1.508l-2.73-.624c.208-1.092.767-1.97166667 1.677-2.639s2.015-1.001 3.315-1.001c1.7506667 0 3.107.46366667 4.069 1.391s1.443 2.29233333 1.443 4.095v7.826h-2.652l-.338-1.664c-1.0226667 1.248-2.366 1.872-4.03 1.872zm.858-2.756c.78 0 1.4646667-.247 2.054-.741s.884-1.1483333.884-1.963v-.26h-2.158c-.7106667 0-1.261.1386667-1.651.416s-.585.702-.585 1.274c0 .3813333.1343333.689.403.923s.6196667.351 1.053.351z"/><path d="m51.584.546h3.224v18.408h-3.224z"/><path d="m65.156.754h3.562l6.682 12.012v-12.012h3.38v18.2h-3.562l-6.682-12.012v12.012h-3.38z"/><path d="m86.71 19.162c-1.2133333 0-2.1883333-.338-2.925-1.014s-1.105-1.6553333-1.105-2.938v-9.36h3.224v8.398c0 .7453333.169 1.2913333.507 1.638s.793.52 1.365.52c.5373333 0 1.0313333-.208 1.482-.624s.8146667-1.027 1.092-1.833.416-1.7636667.416-2.873v-5.226h3.224v13.104h-3.224v-2.106c-.5026667.7106667-1.1006667 1.274-1.794 1.69s-1.4473333.624-2.262.624z"/><path d="m100.854 5.85v2.106c.502667-.76266667 1.053-1.339 1.651-1.729s1.304333-.585 2.119-.585c.849333 0 1.603333.22533333 2.262.676s1.126667 1.12666667 1.404 2.028c.468-.84933333 1.053-1.51233333 1.755-1.989s1.451667-.715 2.249-.715c1.213333 0 2.166667.35533333 2.86 1.066s1.04 1.69866667 1.04 2.964v9.282h-3.224v-8.736c0-1.21333333-.537333-1.82-1.612-1.82-.832 0-1.512333.468-2.041 1.404s-.793 2.288-.793 4.056v5.096h-3.224v-8.736c0-1.21333333-.537333-1.82-1.612-1.82-.832 0-1.512333.48966667-2.041 1.469-.528667.9793333-.793 2.405-.793 4.277v4.81h-3.224v-13.104z"/><path d="m126.23 19.162c-.745333 0-1.408333-.1646667-1.989-.494s-.975-.6846667-1.183-1.066v.78.572h-3.224v-18.408h3.224v5.72.78c.294667-.38133333.736667-.71066667 1.326-.988s1.204667-.416 1.846-.416c1.924 0 3.401667.611 4.433 1.833s1.547 2.8643333 1.547 4.927-.515667 3.705-1.547 4.927-2.509 1.833-4.433 1.833zm-.442-2.756c.884 0 1.612-.3553333 2.184-1.066s.858-1.69.858-2.938c0-1.2653333-.286-2.249-.858-2.951s-1.3-1.053-2.184-1.053-1.607667.351-2.171 1.053-.845 1.6856667-.845 2.951.281667 2.249.845 2.951 1.287 1.053 2.171 1.053z"/><path d="m146.796 13.442h-9.048c.138667.9706667.481 1.7073333 1.027 2.21s1.243667.754 2.093.754c.728 0 1.339-.1646667 1.833-.494s.940333-.8406667 1.339-1.534l2.6.962c-.537333 1.2306667-1.287 2.1753333-2.249 2.834s-2.197.988-3.705.988c-1.421333 0-2.604333-.3336667-3.549-1.001s-1.638-1.5166667-2.08-2.548-.663-2.1016667-.663-3.211.221-2.1796667.663-3.211c.442-1.03133333 1.135333-1.88066667 2.08-2.548s2.127667-1.001 3.549-1.001c1.369333 0 2.513333.325 3.432.975s1.594667 1.469 2.028 2.457.65 2.002.65 3.042zm-3.302-2.548c-.156-.728-.463667-1.326-.923-1.794s-1.087667-.702-1.885-.702c-.693333 0-1.291333.21233333-1.794.637s-.858 1.0443333-1.066 1.859z"/><path d="m152.932 5.85v2.132c.468-.74533333 1.04-1.32166667 1.716-1.729s1.395333-.611 2.158-.611c.485333 0 1.014.08666667 1.586.26l-.598 2.99c-.398667-.24266667-.849333-.364-1.352-.364-1.022667 0-1.863333.46366667-2.522 1.391-.658667.9273333-.988 2.3876667-.988 4.381v4.654h-3.224v-13.104z"/><path d="m172.926 19.162c-1.369333 0-2.556667-.2946667-3.562-.884s-1.772333-1.3953333-2.301-2.418-.793-2.1753333-.793-3.458.264333-2.43533333.793-3.458 1.295667-1.82866667 2.301-2.418 2.192667-.884 3.562-.884 2.556667.29466667 3.562.884 1.772333 1.39533333 2.301 2.418.793 2.1753333.793 3.458-.264333 2.4353333-.793 3.458-1.295667 1.8286667-2.301 2.418-2.192667.884-3.562.884zm0-2.756c1.005333 0 1.802667-.3856667 2.392-1.157s.884-1.7203333.884-2.847-.294667-2.0756667-.884-2.847c-.589333-.77133333-1.386667-1.157-2.392-1.157s-1.802667.38566667-2.392 1.157c-.589333.7713333-.884 1.7203333-.884 2.847s.294667 2.0756667.884 2.847 1.386667 1.157 2.392 1.157z"/><path d="m180.908 8.606v-2.756h1.664v-.676c0-1.54266667.403-2.69966667 1.209-3.471s1.911-1.157 3.315-1.157c.988 0 1.802667.17333333 2.444.52l-.702 2.6c-.572-.24266667-1.092-.364-1.56-.364-.988 0-1.482.546-1.482 1.638v.91h2.756v2.756h-2.756v10.348h-3.224v-10.348z"/><path d="m196.3.754h3.588l3.042 13.39 3.406-11.466h2.912l3.406 11.466 3.042-13.39h3.588l-4.758 18.2h-3.432l-3.302-10.712-3.302 10.712h-3.432z"/><path d="m231.79 13.442h-9.048c.138667.9706667.481 1.7073333 1.027 2.21s1.243667.754 2.093.754c.728 0 1.339-.1646667 1.833-.494s.940333-.8406667 1.339-1.534l2.6.962c-.537333 1.2306667-1.287 2.1753333-2.249 2.834s-2.197.988-3.705.988c-1.421333 0-2.604333-.3336667-3.549-1.001s-1.638-1.5166667-2.08-2.548-.663-2.1016667-.663-3.211.221-2.1796667.663-3.211c.442-1.03133333 1.135333-1.88066667 2.08-2.548s2.127667-1.001 3.549-1.001c1.369333 0 2.513333.325 3.432.975s1.594667 1.469 2.028 2.457.65 2.002.65 3.042zm-3.302-2.548c-.156-.728-.463667-1.326-.923-1.794s-1.087667-.702-1.885-.702c-.693333 0-1.291333.21233333-1.794.637s-.858 1.0443333-1.066 1.859z"/><path d="m241.098 19.162c-.745333 0-1.408333-.1646667-1.989-.494s-.975-.6846667-1.183-1.066v.78.572h-3.224v-18.408h3.224v5.72.78c.294667-.38133333.736667-.71066667 1.326-.988s1.204667-.416 1.846-.416c1.924 0 3.401667.611 4.433 1.833s1.547 2.8643333 1.547 4.927-.515667 3.705-1.547 4.927-2.509 1.833-4.433 1.833zm-.442-2.756c.884 0 1.612-.3553333 2.184-1.066s.858-1.69.858-2.938c0-1.2653333-.286-2.249-.858-2.951s-1.3-1.053-2.184-1.053-1.607667.351-2.171 1.053-.845 1.6856667-.845 2.951.281667 2.249.845 2.951 1.287 1.053 2.171 1.053z"/><path d="m253.942 19.162c-1.352 0-2.483-.3466667-3.393-1.04s-1.512333-1.5253333-1.807-2.496l2.574-1.378c.242667.676.585 1.2046667 1.027 1.586s.966333.572 1.573.572c.416 0 .771333-.1083333 1.066-.325s.442-.533.442-.949c0-.3986667-.225333-.741-.676-1.027s-1.126667-.6023333-2.028-.949c-.988-.3986667-1.755-.9013333-2.301-1.508s-.819-1.3866667-.819-2.34c0-.676.177667-1.29133333.533-1.846s.845-.99666667 1.469-1.326 1.334667-.494 2.132-.494c.884 0 1.69.18633333 2.418.559s1.291333.897 1.69 1.573l-1.924 1.768c-.52-.76266667-1.222-1.144-2.106-1.144-.346667 0-.645667.091-.897.273s-.377.42033333-.377.715c0 .312.182.60233333.546.871.364.2686667 1.074667.5936667 2.132.975 1.022667.364 1.811333.8406667 2.366 1.43s.832 1.3433333.832 2.262c0 1.2826667-.416 2.3096667-1.248 3.081s-1.906667 1.157-3.224 1.157z"/><path d="m261.17 5.85h3.224v13.104h-3.224zm1.612-1.69c-.589333 0-1.083333-.19933333-1.482-.598s-.598-.89266667-.598-1.482.199333-1.08333333.598-1.482.892667-.598 1.482-.598 1.083333.19933333 1.482.598.598.89266667.598 1.482-.199333 1.08333333-.598 1.482-.892667.598-1.482.598z"/><path d="m273.286 19.162c-1.508 0-2.686667-.4073333-3.536-1.222s-1.274-2.0193333-1.274-3.614v-5.72h-2.028v-2.756h2.028v-3.276l3.224-2.028v5.304h3.458v2.756h-3.458v5.668c0 .78.143 1.3303333.429 1.651s.715.481 1.287.481c.433333 0 .849333-.104 1.248-.312l.754 2.6c-.676.312-1.386667.468-2.132.468z"/><path d="m288.704 13.442h-9.048c.138667.9706667.481 1.7073333 1.027 2.21s1.243667.754 2.093.754c.728 0 1.339-.1646667 1.833-.494s.940333-.8406667 1.339-1.534l2.6.962c-.537333 1.2306667-1.287 2.1753333-2.249 2.834s-2.197.988-3.705.988c-1.421333 0-2.604333-.3336667-3.549-1.001s-1.638-1.5166667-2.08-2.548-.663-2.1016667-.663-3.211.221-2.1796667.663-3.211c.442-1.03133333 1.135333-1.88066667 2.08-2.548s2.127667-1.001 3.549-1.001c1.369333 0 2.513333.325 3.432.975s1.594667 1.469 2.028 2.457.65 2.002.65 3.042zm-3.302-2.548c-.156-.728-.463667-1.326-.923-1.794s-1.087667-.702-1.885-.702c-.693333 0-1.291333.21233333-1.794.637s-.858 1.0443333-1.066 1.859z"/><path d="m295.594 19.162c-1.352 0-2.483-.3466667-3.393-1.04s-1.512333-1.5253333-1.807-2.496l2.574-1.378c.242667.676.585 1.2046667 1.027 1.586s.966333.572 1.573.572c.416 0 .771333-.1083333 1.066-.325s.442-.533.442-.949c0-.3986667-.225333-.741-.676-1.027s-1.126667-.6023333-2.028-.949c-.988-.3986667-1.755-.9013333-2.301-1.508s-.819-1.3866667-.819-2.34c0-.676.177667-1.29133333.533-1.846s.845-.99666667 1.469-1.326 1.334667-.494 2.132-.494c.884 0 1.69.18633333 2.418.559s1.291333.897 1.69 1.573l-1.924 1.768c-.52-.76266667-1.222-1.144-2.106-1.144-.346667 0-.645667.091-.897.273s-.377.42033333-.377.715c0 .312.182.60233333.546.871.364.2686667 1.074667.5936667 2.132.975 1.022667.364 1.811333.8406667 2.366 1.43s.832 1.3433333.832 2.262c0 1.2826667-.416 2.3096667-1.248 3.081s-1.906667 1.157-3.224 1.157z"/></g><g transform="translate(500.004 735.656)"><path d="m3.008 11.472c-.82133333 0-1.488-.2133333-2-.64s-.848-.944-1.008-1.552l1.104-.592c.16.512.392.90666667.696 1.184.304.2773333.70666667.416 1.208.416.39466667 0 .70666667-.1066667.936-.32.22933333-.21333333.344-.512.344-.896 0-.34133333-.14666667-.61866667-.44-.832s-.728-.42666667-1.304-.64c-.64-.23466667-1.13333333-.528-1.48-.88s-.52-.82133333-.52-1.408c0-.64.22133333-1.16.664-1.56s1.00533333-.6 1.688-.6c1.03466667 0 1.81333333.42133333 2.336 1.264l-.864.768c-.36266667-.56533333-.85866667-.848-1.488-.848-.29866667 0-.54933333.088-.752.264s-.304.41333333-.304.712.13066667.54666667.392.744.728.41866667 1.4.664c1.312.48 1.968 1.248 1.968 2.304 0 .75733333-.23466667 1.3546667-.704 1.792s-1.09333333.656-1.872.656z"/><path d="m10.704 11.472c-.77866667 0-1.464-.1893333-2.056-.568s-1.04533333-.888-1.36-1.528-.472-1.328-.472-2.064.15733333-1.424.472-2.064.768-1.14933333 1.36-1.528 1.27733333-.568 2.056-.568c.7786667 0 1.4613333.18933333 2.048.568s1.0373333.888 1.352 1.528.472 1.328.472 2.064-.1573333 1.424-.472 2.064-.7653333 1.1493333-1.352 1.528-1.2693333.568-2.048.568zm0-1.184c.5226667 0 .9733333-.1386667 1.352-.416.3786667-.27733333.664-.64266667.856-1.096s.288-.94133333.288-1.464-.096-1.01066667-.288-1.464-.4773333-.81866667-.856-1.096-.8293333-.416-1.352-.416-.97333333.13866667-1.352.416-.66666667.64266667-.864 1.096-.296.94133333-.296 1.464.09866667 1.01066667.296 1.464.48533333.81866667.864 1.096c.37866667.2773333.8293333.416 1.352.416z"/><path d="m18.992 11.472c-.7573333 0-1.36-.224-1.808-.672s-.672-1.08266667-.672-1.904v-5.616h1.328v5.328c0 .55466667.1253333.97333333.376 1.256.2506667.2826667.616.424 1.096.424.4373333 0 .8373333-.144 1.2-.432s.648-.704.856-1.248.312-1.17866667.312-1.904v-3.424h1.312v8.064h-1.312v-1.552c-.288.512-.6693333.92-1.144 1.224s-.9893333.456-1.544.456z"/><path d="m26.72 3.28v1.392c.256-.49066667.5866667-.86666667.992-1.128s.864-.392 1.376-.392c.352 0 .7306667.08 1.136.24l-.272 1.232c-.3306667-.18133333-.6773333-.272-1.04-.272-.64 0-1.1653333.336-1.576 1.008s-.616 1.65333333-.616 2.944v3.04h-1.328v-8.064z"/><path d="m34.464 11.472c-.7893333 0-1.4613333-.192-2.016-.576s-.9733333-.8906667-1.256-1.52c-.2826667-.62933333-.424-1.31733333-.424-2.064s.1413333-1.43466667.424-2.064.7013333-1.136 1.256-1.52 1.2266667-.576 2.016-.576c1.6853333 0 2.8106667.752 3.376 2.256l-1.184.464c-.416-1.024-1.1466667-1.536-2.192-1.536-.7573333 0-1.3333333.27733333-1.728.832s-.592 1.26933333-.592 2.144c0 .864.1973333 1.576.592 2.136s.9706667.84 1.728.84c.5333333 0 .976-.128 1.328-.384s.64-.64.864-1.152l1.184.464c-.288.74666667-.7173333 1.3093333-1.288 1.688s-1.2666667.568-2.088.568z"/><path d="m46.464 7.52h-5.936c.032.82133333.256 1.488.672 2s.9813333.768 1.696.768c.5546667 0 1.008-.1226667 1.36-.368.352-.24533333.6666667-.64533333.944-1.2l1.12.48c-.384.78933333-.8506667 1.3653333-1.4 1.728s-1.2346667.544-2.056.544c-.7573333 0-1.4133333-.1893333-1.968-.568s-.9786667-.8853333-1.272-1.52c-.2933333-.63466667-.44-1.32533333-.44-2.072 0-.75733333.1466667-1.45333333.44-2.088s.7173333-1.13866667 1.272-1.512 1.2106667-.56 1.968-.56c.736 0 1.376.17066667 1.92.512s.96.8 1.248 1.376.432 1.216.432 1.92zm-1.344-1.136c-.096-.62933333-.336-1.128-.72-1.496s-.896-.552-1.536-.552c-.5546667 0-1.0346667.176-1.44.528s-.6773333.85866667-.816 1.52z"/><path d="m49.136 5.616c-.288 0-.5253333-.09066667-.712-.272s-.28-.416-.28-.704c0-.27733333.0933333-.512.28-.704s.424-.288.712-.288c.2773333 0 .512.096.704.288s.288.42666667.288.704c0 .288-.0933333.52266667-.28.704s-.424.272-.712.272zm0 5.776c-.288 0-.5253333-.0933333-.712-.28s-.28-.4186667-.28-.696c0-.288.0933333-.52533333.28-.712s.424-.28.712-.28c.2773333 0 .512.09333333.704.28s.288.424.288.712c0 .2773333-.096.5093333-.288.696s-.4266667.28-.704.28z"/><path d="m56.272 3.28h1.328v8.064h-1.328zm.656-1.36c-.2666667 0-.4933333-.09333333-.68-.28s-.28-.41333333-.28-.68c0-.27733333.0933333-.50666667.28-.688s.4133333-.272.68-.272c.2773333 0 .5093333.09066667.696.272s.28.41066667.28.688-.0933333.50666667-.28.688-.4186667.272-.696.272z"/><path d="m61.312 3.28v1.552c.288-.512.6693333-.92 1.144-1.224s.984-.456 1.528-.456c.7573333 0 1.36.224 1.808.672s.672 1.08266667.672 1.904v5.616h-1.312v-5.328c0-.55466667-.1253333-.97333333-.376-1.256s-.6213333-.424-1.112-.424c-.4373333 0-.8346667.144-1.192.432s-.64.70133333-.848 1.24-.312 1.17066667-.312 1.896v3.44h-1.328v-8.064z"/><path d="m71.408 11.472c-.7253333 0-1.296-.216-1.712-.648s-.624-1.08-.624-1.944v-4.416h-1.36v-1.184h1.36v-2.416l1.328-.848v3.264h2.16v1.184h-2.16v4.512c0 .87466667.3733333 1.312 1.12 1.312.3626667 0 .672-.0746667.928-.224l.336 1.12c-.384.192-.8426667.288-1.376.288z"/><path d="m80.8 7.52h-5.936c.032.82133333.256 1.488.672 2s.9813333.768 1.696.768c.5546667 0 1.008-.1226667 1.36-.368.352-.24533333.6666667-.64533333.944-1.2l1.12.48c-.384.78933333-.8506667 1.3653333-1.4 1.728s-1.2346667.544-2.056.544c-.7573333 0-1.4133333-.1893333-1.968-.568s-.9786667-.8853333-1.272-1.52c-.2933333-.63466667-.44-1.32533333-.44-2.072 0-.75733333.1466667-1.45333333.44-2.088s.7173333-1.13866667 1.272-1.512 1.2106667-.56 1.968-.56c.736 0 1.376.17066667 1.92.512s.96.8 1.248 1.376.432 1.216.432 1.92zm-1.344-1.136c-.096-.62933333-.336-1.128-.72-1.496s-.896-.552-1.536-.552c-.5546667 0-1.0346667.176-1.44.528s-.6773333.85866667-.816 1.52z"/><path d="m84.08 3.28v1.392c.256-.49066667.5866667-.86666667.992-1.128s.864-.392 1.376-.392c.352 0 .7306667.08 1.136.24l-.272 1.232c-.3306667-.18133333-.6773333-.272-1.04-.272-.64 0-1.1653333.336-1.576 1.008s-.616 1.65333333-.616 2.944v3.04h-1.328v-8.064z"/><path d="m90.288 3.28v1.552c.288-.512.6693333-.92 1.144-1.224s.984-.456 1.528-.456c.7573333 0 1.36.224 1.808.672s.672 1.08266667.672 1.904v5.616h-1.312v-5.328c0-.55466667-.1253333-.97333333-.376-1.256s-.6213333-.424-1.112-.424c-.4373333 0-.8346667.144-1.192.432s-.64.70133333-.848 1.24-.312 1.17066667-.312 1.896v3.44h-1.328v-8.064z"/><path d="m104.656 7.52h-5.936c.032.82133333.256 1.488.672 2s.981333.768 1.696.768c.554667 0 1.008-.1226667 1.36-.368.352-.24533333.666667-.64533333.944-1.2l1.12.48c-.384.78933333-.850667 1.3653333-1.4 1.728s-1.234667.544-2.056.544c-.757333 0-1.4133333-.1893333-1.968-.568s-.9786667-.8853333-1.272-1.52c-.2933333-.63466667-.44-1.32533333-.44-2.072 0-.75733333.1466667-1.45333333.44-2.088s.7173333-1.13866667 1.272-1.512 1.210667-.56 1.968-.56c.736 0 1.376.17066667 1.92.512s.96.8 1.248 1.376.432 1.216.432 1.92zm-1.344-1.136c-.096-.62933333-.336-1.128-.72-1.496s-.896-.552-1.536-.552c-.554667 0-1.034667.176-1.44.528-.4053333.352-.6773333.85866667-.816 1.52z"/><path d="m109.28 11.472c-.725333 0-1.296-.216-1.712-.648s-.624-1.08-.624-1.944v-4.416h-1.36v-1.184h1.36v-2.416l1.328-.848v3.264h2.16v1.184h-2.16v4.512c0 .87466667.373333 1.312 1.12 1.312.362667 0 .672-.0746667.928-.224l.336 1.12c-.384.192-.842667.288-1.376.288z"/><path d="m112.064.016h1.328v11.328h-1.328z"/><path d="m115.792 3.28h1.328v8.064h-1.328zm.656-1.36c-.266667 0-.493333-.09333333-.68-.28s-.28-.41333333-.28-.68c0-.27733333.093333-.50666667.28-.688s.413333-.272.68-.272c.277333 0 .509333.09066667.696.272s.28.41066667.28.688-.093333.50666667-.28.688-.418667.272-.696.272z"/><path d="m118.56 3.28h1.36l2.032 6.368 2.016-6.368h1.36l-2.72 8.064h-1.328z"/><path d="m133.392 7.52h-5.936c.032.82133333.256 1.488.672 2s.981333.768 1.696.768c.554667 0 1.008-.1226667 1.36-.368.352-.24533333.666667-.64533333.944-1.2l1.12.48c-.384.78933333-.850667 1.3653333-1.4 1.728s-1.234667.544-2.056.544c-.757333 0-1.413333-.1893333-1.968-.568s-.978667-.8853333-1.272-1.52c-.293333-.63466667-.44-1.32533333-.44-2.072 0-.75733333.146667-1.45333333.44-2.088s.717333-1.13866667 1.272-1.512 1.210667-.56 1.968-.56c.736 0 1.376.17066667 1.92.512s.96.8 1.248 1.376.432 1.216.432 1.92zm-1.344-1.136c-.096-.62933333-.336-1.128-.72-1.496s-.896-.552-1.536-.552c-.554667 0-1.034667.176-1.44.528s-.677333.85866667-.816 1.52z"/><path d="m137.632 11.472c-.821333 0-1.488-.2133333-2-.64s-.848-.944-1.008-1.552l1.104-.592c.16.512.392.90666667.696 1.184.304.2773333.706667.416 1.208.416.394667 0 .706667-.1066667.936-.32.229333-.21333333.344-.512.344-.896 0-.34133333-.146667-.61866667-.44-.832s-.728-.42666667-1.304-.64c-.64-.23466667-1.133333-.528-1.48-.88s-.52-.82133333-.52-1.408c0-.64.221333-1.16.664-1.56s1.005333-.6 1.688-.6c1.034667 0 1.813333.42133333 2.336 1.264l-.864.768c-.362667-.56533333-.858667-.848-1.488-.848-.298667 0-.549333.088-.752.264s-.304.41333333-.304.712.130667.54666667.392.744.728.41866667 1.4.664c1.312.48 1.968 1.248 1.968 2.304 0 .75733333-.234667 1.3546667-.704 1.792s-1.093333.656-1.872.656z"/><path d="m144.64 11.472c-.725333 0-1.296-.216-1.712-.648s-.624-1.08-.624-1.944v-4.416h-1.36v-1.184h1.36v-2.416l1.328-.848v3.264h2.16v1.184h-2.16v4.512c0 .87466667.373333 1.312 1.12 1.312.362667 0 .672-.0746667.928-.224l.336 1.12c-.384.192-.842667.288-1.376.288z"/><path d="m149.552 11.472c-.725333 0-1.322667-.2053333-1.792-.616s-.704-1.02133333-.704-1.832c0-.85333333.317333-1.50666667.952-1.96s1.506667-.68 2.616-.68h1.408v-.352c0-.58666667-.157333-1.016-.472-1.288s-.728-.408-1.24-.408c-.885333 0-1.472.43733333-1.76 1.312l-1.184-.272c.106667-.672.434667-1.21066667.984-1.616s1.202667-.608 1.96-.608c.906667 0 1.637333.264 2.192.792s.832 1.272.832 2.232v5.168h-1.04l-.24-1.168c-.554667.864-1.392 1.296-2.512 1.296zm.24-1.184c.362667 0 .714667-.088 1.056-.264s.624-.45333333.848-.832.336-.85066667.336-1.416v-.256h-1.36c-.746667 0-1.306667.128-1.68.384s-.56.624-.56 1.104c0 .40533333.12.72.36.944s.573333.336 1 .336z"/><path d="m158.24 11.472c-.725333 0-1.296-.216-1.712-.648s-.624-1.08-.624-1.944v-4.416h-1.36v-1.184h1.36v-2.416l1.328-.848v3.264h2.16v1.184h-2.16v4.512c0 .87466667.373333 1.312 1.12 1.312.362667 0 .672-.0746667.928-.224l.336 1.12c-.384.192-.842667.288-1.376.288z"/><path d="m163.552 11.472c-.821333 0-1.488-.2133333-2-.64s-.848-.944-1.008-1.552l1.104-.592c.16.512.392.90666667.696 1.184.304.2773333.706667.416 1.208.416.394667 0 .706667-.1066667.936-.32.229333-.21333333.344-.512.344-.896 0-.34133333-.146667-.61866667-.44-.832s-.728-.42666667-1.304-.64c-.64-.23466667-1.133333-.528-1.48-.88s-.52-.82133333-.52-1.408c0-.64.221333-1.16.664-1.56s1.005333-.6 1.688-.6c1.034667 0 1.813333.42133333 2.336 1.264l-.864.768c-.362667-.56533333-.858667-.848-1.488-.848-.298667 0-.549333.088-.752.264s-.304.41333333-.304.712.130667.54666667.392.744.728.41866667 1.4.664c1.312.48 1.968 1.248 1.968 2.304 0 .75733333-.234667 1.3546667-.704 1.792s-1.093333.656-1.872.656z"/><path d="m168.752 11.392c-.277333 0-.509333-.0933333-.696-.28s-.28-.4186667-.28-.696c0-.288.093333-.52533333.28-.712s.418667-.28.696-.28c.288 0 .525333.09333333.712.28s.28.424.28.712c0 .2773333-.093333.5093333-.28.696s-.424.28-.712.28z"/><path d="m175.136 11.472c-.789333 0-1.461333-.192-2.016-.576s-.973333-.8906667-1.256-1.52c-.282667-.62933333-.424-1.31733333-.424-2.064s.141333-1.43466667.424-2.064.701333-1.136 1.256-1.52 1.226667-.576 2.016-.576c1.685333 0 2.810667.752 3.376 2.256l-1.184.464c-.416-1.024-1.146667-1.536-2.192-1.536-.757333 0-1.333333.27733333-1.728.832s-.592 1.26933333-.592 2.144c0 .864.197333 1.576.592 2.136s.970667.84 1.728.84c.533333 0 .976-.128 1.328-.384s.64-.64.864-1.152l1.184.464c-.288.74666667-.717333 1.3093333-1.288 1.688s-1.266667.568-2.088.568z"/><path d="m183.744 11.472c-.778667 0-1.464-.1893333-2.056-.568s-1.045333-.888-1.36-1.528-.472-1.328-.472-2.064.157333-1.424.472-2.064.768-1.14933333 1.36-1.528 1.277333-.568 2.056-.568 1.461333.18933333 2.048.568 1.037333.888 1.352 1.528.472 1.328.472 2.064-.157333 1.424-.472 2.064-.765333 1.1493333-1.352 1.528-1.269333.568-2.048.568zm0-1.184c.522667 0 .973333-.1386667 1.352-.416.378667-.27733333.664-.64266667.856-1.096s.288-.94133333.288-1.464-.096-1.01066667-.288-1.464-.477333-.81866667-.856-1.096-.829333-.416-1.352-.416-.973333.13866667-1.352.416-.666667.64266667-.864 1.096-.296.94133333-.296 1.464.098667 1.01066667.296 1.464.485333.81866667.864 1.096c.378667.2773333.829333.416 1.352.416z"/><path d="m190.88 3.28v1.552c.277333-.52266667.624-.93333333 1.04-1.232s.896-.448 1.44-.448c.576 0 1.053333.14666667 1.432.44s.637333.728.776 1.304c.277333-.52266667.645333-.944 1.104-1.264s.949333-.48 1.472-.48c1.546667 0 2.32.864 2.32 2.592v5.6h-1.312v-5.392c0-.55466667-.101333-.96266667-.304-1.224s-.533333-.392-.992-.392c-.405333 0-.773333.144-1.104.432s-.594667.704-.792 1.248-.296 1.184-.296 1.92v3.408h-1.312v-5.392c0-.55466667-.098667-.96266667-.296-1.224s-.530667-.392-1-.392c-.405333 0-.773333.144-1.104.432s-.592.70933333-.784 1.264-.288 1.21066667-.288 1.968v3.344h-1.328v-8.064z"/></g><path d="m1149 520v1h-980v-1z"/><path d="m1149 663v1h-980v-1z"/><path d="m1149 387v1h-980v-1z"/><g transform="translate(65.404 513.672)"><path d="m3.44 11.456c-.93866667 0-1.71733333-.2666667-2.336-.8s-.98666667-1.29066667-1.104-2.272l1.28-.224c.224 1.38666667.944 2.08 2.16 2.08.69333333 0 1.22133333-.2266667 1.584-.68.36266667-.45333333.544-1.08533333.544-1.896 0-.84266667-.18666667-1.48266667-.56-1.92s-.89066667-.656-1.552-.656c-.50133333 0-.944.12266667-1.328.368s-.70933333.57066667-.976.976l-.88-.192.592-6.112h5.392v1.2h-4.256l-.336 3.264c.512-.45866667 1.17333333-.688 1.984-.688 1.01333333 0 1.81066667.33866667 2.392 1.016s.872 1.592.872 2.744c0 .736-.14133333 1.392-.424 1.968s-.688 1.024-1.216 1.344-1.13866667.48-1.832.48z"/><path d="m12.304 11.456c-1.28 0-2.2586667-.512-2.936-1.536-.67733333-1.024-1.016-2.42133333-1.016-4.192s.33866667-3.168 1.016-4.192c.6773333-1.024 1.656-1.536 2.936-1.536s2.256.50933333 2.928 1.528 1.008 2.41866667 1.008 4.2-.336 3.18133333-1.008 4.2c-.672 1.0186667-1.648 1.528-2.928 1.528zm0-1.216c.832 0 1.4746667-.40533333 1.928-1.216s.68-1.90933333.68-3.296-.2266667-2.488-.68-3.304-1.096-1.224-1.928-1.224c-.8426667 0-1.488.408-1.936 1.224s-.672 1.91733333-.672 3.304.224 2.48533333.672 3.296 1.0933333 1.216 1.936 1.216z"/><path d="m21.92 11.456c-1.28 0-2.2586667-.512-2.936-1.536s-1.016-2.42133333-1.016-4.192.3386667-3.168 1.016-4.192 1.656-1.536 2.936-1.536 2.256.50933333 2.928 1.528 1.008 2.41866667 1.008 4.2-.336 3.18133333-1.008 4.2c-.672 1.0186667-1.648 1.528-2.928 1.528zm0-1.216c.832 0 1.4746667-.40533333 1.928-1.216s.68-1.90933333.68-3.296-.2266667-2.488-.68-3.304-1.096-1.224-1.928-1.224c-.8426667 0-1.488.408-1.936 1.224s-.672 1.91733333-.672 3.304.224 2.48533333.672 3.296 1.0933333 1.216 1.936 1.216z"/><path d="m28.048 9.664h1.872l-1.776 3.2h-.976z"/><path d="m35.376 11.456c-1.28 0-2.2586667-.512-2.936-1.536s-1.016-2.42133333-1.016-4.192.3386667-3.168 1.016-4.192 1.656-1.536 2.936-1.536 2.256.50933333 2.928 1.528 1.008 2.41866667 1.008 4.2-.336 3.18133333-1.008 4.2c-.672 1.0186667-1.648 1.528-2.928 1.528zm0-1.216c.832 0 1.4746667-.40533333 1.928-1.216s.68-1.90933333.68-3.296-.2266667-2.488-.68-3.304-1.096-1.224-1.928-1.224c-.8426667 0-1.488.408-1.936 1.224s-.672 1.91733333-.672 3.304.224 2.48533333.672 3.296 1.0933333 1.216 1.936 1.216z"/><path d="m44.992 11.456c-1.28 0-2.2586667-.512-2.936-1.536s-1.016-2.42133333-1.016-4.192.3386667-3.168 1.016-4.192 1.656-1.536 2.936-1.536 2.256.50933333 2.928 1.528 1.008 2.41866667 1.008 4.2-.336 3.18133333-1.008 4.2c-.672 1.0186667-1.648 1.528-2.928 1.528zm0-1.216c.832 0 1.4746667-.40533333 1.928-1.216s.68-1.90933333.68-3.296-.2266667-2.488-.68-3.304-1.096-1.224-1.928-1.224c-.8426667 0-1.488.408-1.936 1.224s-.672 1.91733333-.672 3.304.224 2.48533333.672 3.296 1.0933333 1.216 1.936 1.216z"/><path d="m54.608 11.456c-1.28 0-2.2586667-.512-2.936-1.536s-1.016-2.42133333-1.016-4.192.3386667-3.168 1.016-4.192 1.656-1.536 2.936-1.536 2.256.50933333 2.928 1.528 1.008 2.41866667 1.008 4.2-.336 3.18133333-1.008 4.2c-.672 1.0186667-1.648 1.528-2.928 1.528zm0-1.216c.832 0 1.4746667-.40533333 1.928-1.216s.68-1.90933333.68-3.296-.2266667-2.488-.68-3.304-1.096-1.224-1.928-1.224c-.8426667 0-1.488.408-1.936 1.224s-.672 1.91733333-.672 3.304.224 2.48533333.672 3.296 1.0933333 1.216 1.936 1.216z"/><path d="m60.736 9.664h1.872l-1.776 3.2h-.976z"/><path d="m68.064 11.456c-1.28 0-2.2586667-.512-2.936-1.536s-1.016-2.42133333-1.016-4.192.3386667-3.168 1.016-4.192 1.656-1.536 2.936-1.536 2.256.50933333 2.928 1.528 1.008 2.41866667 1.008 4.2-.336 3.18133333-1.008 4.2c-.672 1.0186667-1.648 1.528-2.928 1.528zm0-1.216c.832 0 1.4746667-.40533333 1.928-1.216s.68-1.90933333.68-3.296-.2266667-2.488-.68-3.304-1.096-1.224-1.928-1.224c-.8426667 0-1.488.408-1.936 1.224s-.672 1.91733333-.672 3.304.224 2.48533333.672 3.296 1.0933333 1.216 1.936 1.216z"/><path d="m77.68 11.456c-1.28 0-2.2586667-.512-2.936-1.536s-1.016-2.42133333-1.016-4.192.3386667-3.168 1.016-4.192 1.656-1.536 2.936-1.536 2.256.50933333 2.928 1.528 1.008 2.41866667 1.008 4.2-.336 3.18133333-1.008 4.2c-.672 1.0186667-1.648 1.528-2.928 1.528zm0-1.216c.832 0 1.4746667-.40533333 1.928-1.216s.68-1.90933333.68-3.296-.2266667-2.488-.68-3.304-1.096-1.224-1.928-1.224c-.8426667 0-1.488.408-1.936 1.224s-.672 1.91733333-.672 3.304.224 2.48533333.672 3.296 1.0933333 1.216 1.936 1.216z"/><path d="m87.296 11.456c-1.28 0-2.2586667-.512-2.936-1.536s-1.016-2.42133333-1.016-4.192.3386667-3.168 1.016-4.192 1.656-1.536 2.936-1.536 2.256.50933333 2.928 1.528 1.008 2.41866667 1.008 4.2-.336 3.18133333-1.008 4.2c-.672 1.0186667-1.648 1.528-2.928 1.528zm0-1.216c.832 0 1.4746667-.40533333 1.928-1.216s.68-1.90933333.68-3.296-.2266667-2.488-.68-3.304-1.096-1.224-1.928-1.224c-.8426667 0-1.488.408-1.936 1.224s-.672 1.91733333-.672 3.304.224 2.48533333.672 3.296 1.0933333 1.216 1.936 1.216z"/></g><path d="m3.952 11.456c-1.28 0-2.25866667-.512-2.936-1.536s-1.016-2.42133333-1.016-4.192.33866667-3.168 1.016-4.192 1.656-1.536 2.936-1.536 2.256.50933333 2.928 1.528 1.008 2.41866667 1.008 4.2-.336 3.18133333-1.008 4.2c-.672 1.0186667-1.648 1.528-2.928 1.528zm0-1.216c.832 0 1.47466667-.40533333 1.928-1.216s.68-1.90933333.68-3.296-.22666667-2.488-.68-3.304-1.096-1.224-1.928-1.224c-.84266667 0-1.488.408-1.936 1.224s-.672 1.91733333-.672 3.304.224 2.48533333.672 3.296 1.09333333 1.216 1.936 1.216z" transform="translate(148.748 656.672)"/><g transform="translate(170.804 674.088)"><path d="m3.542 4.872c.392-.49466667.65566667-.889.791-1.183s.203-.62766667.203-1.001c0-.504-.14-.903-.42-1.197s-.66266667-.441-1.148-.441c-.45733333 0-.83533333.161-1.134.483s-.48533333.749-.56 1.281l-1.078-.21c.03733333-.504.17966667-.952.427-1.344s.57633333-.7.987-.924.868-.336 1.372-.336c.82133333 0 1.48166667.24033333 1.981.721s.749 1.13633333.749 1.967c0 .42933333-.091.847-.273 1.253s-.45033333.833-.805 1.281l-2.8 3.626h4.102v1.064h-5.936v-.448z"/><path d="m10.668 10.024c-1.12 0-1.97633333-.448-2.569-1.344s-.889-2.11866667-.889-3.668.29633333-2.772.889-3.668 1.449-1.344 2.569-1.344 1.974.44566667 2.562 1.337.882 2.11633333.882 3.675-.294 2.78366667-.882 3.675-1.442 1.337-2.562 1.337zm0-1.064c.728 0 1.2903333-.35466667 1.687-1.064s.595-1.67066667.595-2.884-.1983333-2.177-.595-2.891-.959-1.071-1.687-1.071c-.73733333 0-1.302.357-1.694 1.071s-.588 1.67766667-.588 2.891.196 2.17466667.588 2.884.95666667 1.064 1.694 1.064z"/><path d="m19.082 10.024c-1.12 0-1.9763333-.448-2.569-1.344s-.889-2.11866667-.889-3.668.2963333-2.772.889-3.668 1.449-1.344 2.569-1.344 1.974.44566667 2.562 1.337.882 2.11633333.882 3.675-.294 2.78366667-.882 3.675-1.442 1.337-2.562 1.337zm0-1.064c.728 0 1.2903333-.35466667 1.687-1.064s.595-1.67066667.595-2.884-.1983333-2.177-.595-2.891-.959-1.071-1.687-1.071c-.7373333 0-1.302.357-1.694 1.071s-.588 1.67766667-.588 2.891.196 2.17466667.588 2.884.9566667 1.064 1.694 1.064z"/><path d="m27.496 10.024c-1.12 0-1.9763333-.448-2.569-1.344s-.889-2.11866667-.889-3.668.2963333-2.772.889-3.668 1.449-1.344 2.569-1.344 1.974.44566667 2.562 1.337.882 2.11633333.882 3.675-.294 2.78366667-.882 3.675-1.442 1.337-2.562 1.337zm0-1.064c.728 0 1.2903333-.35466667 1.687-1.064s.595-1.67066667.595-2.884-.1983333-2.177-.595-2.891-.959-1.071-1.687-1.071c-.7373333 0-1.302.357-1.694 1.071s-.588 1.67766667-.588 2.891.196 2.17466667.588 2.884.9566667 1.064 1.694 1.064z"/></g><g transform="translate(215.944 674.088)"><path d="m3.542 4.872c.392-.49466667.65566667-.889.791-1.183s.203-.62766667.203-1.001c0-.504-.14-.903-.42-1.197s-.66266667-.441-1.148-.441c-.45733333 0-.83533333.161-1.134.483s-.48533333.749-.56 1.281l-1.078-.21c.03733333-.504.17966667-.952.427-1.344s.57633333-.7.987-.924.868-.336 1.372-.336c.82133333 0 1.48166667.24033333 1.981.721s.749 1.13633333.749 1.967c0 .42933333-.091.847-.273 1.253s-.45033333.833-.805 1.281l-2.8 3.626h4.102v1.064h-5.936v-.448z"/><path d="m10.668 10.024c-1.12 0-1.97633333-.448-2.569-1.344s-.889-2.11866667-.889-3.668.29633333-2.772.889-3.668 1.449-1.344 2.569-1.344 1.974.44566667 2.562 1.337.882 2.11633333.882 3.675-.294 2.78366667-.882 3.675-1.442 1.337-2.562 1.337zm0-1.064c.728 0 1.2903333-.35466667 1.687-1.064s.595-1.67066667.595-2.884-.1983333-2.177-.595-2.891-.959-1.071-1.687-1.071c-.73733333 0-1.302.357-1.694 1.071s-.588 1.67766667-.588 2.891.196 2.17466667.588 2.884.95666667 1.064 1.694 1.064z"/><path d="m19.082 10.024c-1.12 0-1.9763333-.448-2.569-1.344s-.889-2.11866667-.889-3.668.2963333-2.772.889-3.668 1.449-1.344 2.569-1.344 1.974.44566667 2.562 1.337.882 2.11633333.882 3.675-.294 2.78366667-.882 3.675-1.442 1.337-2.562 1.337zm0-1.064c.728 0 1.2903333-.35466667 1.687-1.064s.595-1.67066667.595-2.884-.1983333-2.177-.595-2.891-.959-1.071-1.687-1.071c-.7373333 0-1.302.357-1.694 1.071s-.588 1.67766667-.588 2.891.196 2.17466667.588 2.884.9566667 1.064 1.694 1.064z"/><path d="m25.69 1.848-1.708 1.05v-1.26l2.464-1.526h.406v9.8h-1.162z"/></g><g transform="translate(257.732 674.088)"><path d="m3.542 4.872c.392-.49466667.65566667-.889.791-1.183s.203-.62766667.203-1.001c0-.504-.14-.903-.42-1.197s-.66266667-.441-1.148-.441c-.45733333 0-.83533333.161-1.134.483s-.48533333.749-.56 1.281l-1.078-.21c.03733333-.504.17966667-.952.427-1.344s.57633333-.7.987-.924.868-.336 1.372-.336c.82133333 0 1.48166667.24033333 1.981.721s.749 1.13633333.749 1.967c0 .42933333-.091.847-.273 1.253s-.45033333.833-.805 1.281l-2.8 3.626h4.102v1.064h-5.936v-.448z"/><path d="m10.668 10.024c-1.12 0-1.97633333-.448-2.569-1.344s-.889-2.11866667-.889-3.668.29633333-2.772.889-3.668 1.449-1.344 2.569-1.344 1.974.44566667 2.562 1.337.882 2.11633333.882 3.675-.294 2.78366667-.882 3.675-1.442 1.337-2.562 1.337zm0-1.064c.728 0 1.2903333-.35466667 1.687-1.064s.595-1.67066667.595-2.884-.1983333-2.177-.595-2.891-.959-1.071-1.687-1.071c-.73733333 0-1.302.357-1.694 1.071s-.588 1.67766667-.588 2.891.196 2.17466667.588 2.884.95666667 1.064 1.694 1.064z"/><path d="m19.082 10.024c-1.12 0-1.9763333-.448-2.569-1.344s-.889-2.11866667-.889-3.668.2963333-2.772.889-3.668 1.449-1.344 2.569-1.344 1.974.44566667 2.562 1.337.882 2.11633333.882 3.675-.294 2.78366667-.882 3.675-1.442 1.337-2.562 1.337zm0-1.064c.728 0 1.2903333-.35466667 1.687-1.064s.595-1.67066667.595-2.884-.1983333-2.177-.595-2.891-.959-1.071-1.687-1.071c-.7373333 0-1.302.357-1.694 1.071s-.588 1.67766667-.588 2.891.196 2.17466667.588 2.884.9566667 1.064 1.694 1.064z"/><path d="m27.244 4.872c.392-.49466667.6556667-.889.791-1.183s.203-.62766667.203-1.001c0-.504-.14-.903-.42-1.197s-.6626667-.441-1.148-.441c-.4573333 0-.8353333.161-1.134.483s-.4853333.749-.56 1.281l-1.078-.21c.0373333-.504.1796667-.952.427-1.344s.5763333-.7.987-.924.868-.336 1.372-.336c.8213333 0 1.4816667.24033333 1.981.721s.749 1.13633333.749 1.967c0 .42933333-.091.847-.273 1.253s-.4503333.833-.805 1.281l-2.8 3.626h4.102v1.064h-5.936v-.448z"/></g><g transform="translate(300.312 674.088)"><path d="m3.542 4.872c.392-.49466667.65566667-.889.791-1.183s.203-.62766667.203-1.001c0-.504-.14-.903-.42-1.197s-.66266667-.441-1.148-.441c-.45733333 0-.83533333.161-1.134.483s-.48533333.749-.56 1.281l-1.078-.21c.03733333-.504.17966667-.952.427-1.344s.57633333-.7.987-.924.868-.336 1.372-.336c.82133333 0 1.48166667.24033333 1.981.721s.749 1.13633333.749 1.967c0 .42933333-.091.847-.273 1.253s-.45033333.833-.805 1.281l-2.8 3.626h4.102v1.064h-5.936v-.448z"/><path d="m10.668 10.024c-1.12 0-1.97633333-.448-2.569-1.344s-.889-2.11866667-.889-3.668.29633333-2.772.889-3.668 1.449-1.344 2.569-1.344 1.974.44566667 2.562 1.337.882 2.11633333.882 3.675-.294 2.78366667-.882 3.675-1.442 1.337-2.562 1.337zm0-1.064c.728 0 1.2903333-.35466667 1.687-1.064s.595-1.67066667.595-2.884-.1983333-2.177-.595-2.891-.959-1.071-1.687-1.071c-.73733333 0-1.302.357-1.694 1.071s-.588 1.67766667-.588 2.891.196 2.17466667.588 2.884.95666667 1.064 1.694 1.064z"/><path d="m19.082 10.024c-1.12 0-1.9763333-.448-2.569-1.344s-.889-2.11866667-.889-3.668.2963333-2.772.889-3.668 1.449-1.344 2.569-1.344 1.974.44566667 2.562 1.337.882 2.11633333.882 3.675-.294 2.78366667-.882 3.675-1.442 1.337-2.562 1.337zm0-1.064c.728 0 1.2903333-.35466667 1.687-1.064s.595-1.67066667.595-2.884-.1983333-2.177-.595-2.891-.959-1.071-1.687-1.071c-.7373333 0-1.302.357-1.694 1.071s-.588 1.67766667-.588 2.891.196 2.17466667.588 2.884.9566667 1.064 1.694 1.064z"/><path d="m26.88 10.024c-.84 0-1.5423333-.252-2.107-.756s-.8936667-1.19-.987-2.058l1.134-.154c.084.588.294 1.05233333.63 1.393s.7793333.511 1.33.511c.6346667 0 1.1246667-.18666667 1.47-.56s.518-.88666667.518-1.54c0-.68133333-.175-1.20633333-.525-1.575s-.833-.553-1.449-.553c-.3173333 0-.6066667.07933333-.868.238l-.518-.686 2.31-3.122h-3.556v-1.05h5.292v.364l-2.534 3.388c.0933333-.028.2146667-.042.364-.042.4853333 0 .931.12133333 1.337.364s.728.595.966 1.057.357 1.001.357 1.617c0 .62533333-.1306667 1.176-.392 1.652s-.63.847-1.106 1.113-1.0313333.399-1.666.399z"/></g><g transform="translate(344.018 674.088)"><path d="m3.542 4.872c.392-.49466667.65566667-.889.791-1.183s.203-.62766667.203-1.001c0-.504-.14-.903-.42-1.197s-.66266667-.441-1.148-.441c-.45733333 0-.83533333.161-1.134.483s-.48533333.749-.56 1.281l-1.078-.21c.03733333-.504.17966667-.952.427-1.344s.57633333-.7.987-.924.868-.336 1.372-.336c.82133333 0 1.48166667.24033333 1.981.721s.749 1.13633333.749 1.967c0 .42933333-.091.847-.273 1.253s-.45033333.833-.805 1.281l-2.8 3.626h4.102v1.064h-5.936v-.448z"/><path d="m10.668 10.024c-1.12 0-1.97633333-.448-2.569-1.344s-.889-2.11866667-.889-3.668.29633333-2.772.889-3.668 1.449-1.344 2.569-1.344 1.974.44566667 2.562 1.337.882 2.11633333.882 3.675-.294 2.78366667-.882 3.675-1.442 1.337-2.562 1.337zm0-1.064c.728 0 1.2903333-.35466667 1.687-1.064s.595-1.67066667.595-2.884-.1983333-2.177-.595-2.891-.959-1.071-1.687-1.071c-.73733333 0-1.302.357-1.694 1.071s-.588 1.67766667-.588 2.891.196 2.17466667.588 2.884.95666667 1.064 1.694 1.064z"/><path d="m19.082 10.024c-1.12 0-1.9763333-.448-2.569-1.344s-.889-2.11866667-.889-3.668.2963333-2.772.889-3.668 1.449-1.344 2.569-1.344 1.974.44566667 2.562 1.337.882 2.11633333.882 3.675-.294 2.78366667-.882 3.675-1.442 1.337-2.562 1.337zm0-1.064c.728 0 1.2903333-.35466667 1.687-1.064s.595-1.67066667.595-2.884-.1983333-2.177-.595-2.891-.959-1.071-1.687-1.071c-.7373333 0-1.302.357-1.694 1.071s-.588 1.67766667-.588 2.891.196 2.17466667.588 2.884.9566667 1.064 1.694 1.064z"/><path d="m28.168 7.798h-4.284v-.448l4.13-7.238h1.316v6.636h1.232v1.05h-1.232v2.114h-1.162zm0-1.05v-4.956l-2.758 4.956z"/></g><g transform="translate(387.55 674.088)"><path d="m3.542 4.872c.392-.49466667.65566667-.889.791-1.183s.203-.62766667.203-1.001c0-.504-.14-.903-.42-1.197s-.66266667-.441-1.148-.441c-.45733333 0-.83533333.161-1.134.483s-.48533333.749-.56 1.281l-1.078-.21c.03733333-.504.17966667-.952.427-1.344s.57633333-.7.987-.924.868-.336 1.372-.336c.82133333 0 1.48166667.24033333 1.981.721s.749 1.13633333.749 1.967c0 .42933333-.091.847-.273 1.253s-.45033333.833-.805 1.281l-2.8 3.626h4.102v1.064h-5.936v-.448z"/><path d="m10.668 10.024c-1.12 0-1.97633333-.448-2.569-1.344s-.889-2.11866667-.889-3.668.29633333-2.772.889-3.668 1.449-1.344 2.569-1.344 1.974.44566667 2.562 1.337.882 2.11633333.882 3.675-.294 2.78366667-.882 3.675-1.442 1.337-2.562 1.337zm0-1.064c.728 0 1.2903333-.35466667 1.687-1.064s.595-1.67066667.595-2.884-.1983333-2.177-.595-2.891-.959-1.071-1.687-1.071c-.73733333 0-1.302.357-1.694 1.071s-.588 1.67766667-.588 2.891.196 2.17466667.588 2.884.95666667 1.064 1.694 1.064z"/><path d="m19.082 10.024c-1.12 0-1.9763333-.448-2.569-1.344s-.889-2.11866667-.889-3.668.2963333-2.772.889-3.668 1.449-1.344 2.569-1.344 1.974.44566667 2.562 1.337.882 2.11633333.882 3.675-.294 2.78366667-.882 3.675-1.442 1.337-2.562 1.337zm0-1.064c.728 0 1.2903333-.35466667 1.687-1.064s.595-1.67066667.595-2.884-.1983333-2.177-.595-2.891-.959-1.071-1.687-1.071c-.7373333 0-1.302.357-1.694 1.071s-.588 1.67766667-.588 2.891.196 2.17466667.588 2.884.9566667 1.064 1.694 1.064z"/><path d="m26.908 10.024c-.8213333 0-1.5026667-.23333333-2.044-.7s-.8633333-1.12933333-.966-1.988l1.12-.196c.196 1.21333333.826 1.82 1.89 1.82.6066667 0 1.0686667-.19833333 1.386-.595s.476-.94966667.476-1.659c0-.73733333-.1633333-1.29733333-.49-1.68s-.7793333-.574-1.358-.574c-.4386667 0-.826.10733333-1.162.322s-.6206667.49933333-.854.854l-.77-.168.518-5.348h4.718v1.05h-3.724l-.294 2.856c.448-.40133333 1.0266667-.602 1.736-.602.8866667 0 1.5843333.29633333 2.093.889s.763 1.393.763 2.401c0 .644-.1236667 1.218-.371 1.722s-.602.896-1.064 1.176-.9963333.42-1.603.42z"/></g><g transform="translate(430.172 674.088)"><path d="m3.542 4.872c.392-.49466667.65566667-.889.791-1.183s.203-.62766667.203-1.001c0-.504-.14-.903-.42-1.197s-.66266667-.441-1.148-.441c-.45733333 0-.83533333.161-1.134.483s-.48533333.749-.56 1.281l-1.078-.21c.03733333-.504.17966667-.952.427-1.344s.57633333-.7.987-.924.868-.336 1.372-.336c.82133333 0 1.48166667.24033333 1.981.721s.749 1.13633333.749 1.967c0 .42933333-.091.847-.273 1.253s-.45033333.833-.805 1.281l-2.8 3.626h4.102v1.064h-5.936v-.448z"/><path d="m10.668 10.024c-1.12 0-1.97633333-.448-2.569-1.344s-.889-2.11866667-.889-3.668.29633333-2.772.889-3.668 1.449-1.344 2.569-1.344 1.974.44566667 2.562 1.337.882 2.11633333.882 3.675-.294 2.78366667-.882 3.675-1.442 1.337-2.562 1.337zm0-1.064c.728 0 1.2903333-.35466667 1.687-1.064s.595-1.67066667.595-2.884-.1983333-2.177-.595-2.891-.959-1.071-1.687-1.071c-.73733333 0-1.302.357-1.694 1.071s-.588 1.67766667-.588 2.891.196 2.17466667.588 2.884.95666667 1.064 1.694 1.064z"/><path d="m19.082 10.024c-1.12 0-1.9763333-.448-2.569-1.344s-.889-2.11866667-.889-3.668.2963333-2.772.889-3.668 1.449-1.344 2.569-1.344 1.974.44566667 2.562 1.337.882 2.11633333.882 3.675-.294 2.78366667-.882 3.675-1.442 1.337-2.562 1.337zm0-1.064c.728 0 1.2903333-.35466667 1.687-1.064s.595-1.67066667.595-2.884-.1983333-2.177-.595-2.891-.959-1.071-1.687-1.071c-.7373333 0-1.302.357-1.694 1.071s-.588 1.67766667-.588 2.891.196 2.17466667.588 2.884.9566667 1.064 1.694 1.064z"/><path d="m27.048 10.024c-.5973333 0-1.134-.14-1.61-.42s-.847-.66266667-1.113-1.148-.399-1.02666667-.399-1.624c0-.644.1913333-1.302.574-1.974l2.744-4.746h1.246l-2.086 3.682c.0746667-.04666667.1796667-.084.315-.112s.259-.042.371-.042c.5973333 0 1.1293333.13766667 1.596.413s.8306667.65566667 1.092 1.141.392 1.03133333.392 1.638c0 .59733333-.133 1.13866667-.399 1.624s-.6346667.868-1.106 1.148-1.0103333.42-1.617.42zm0-1.064c.5693333 0 1.036-.19833333 1.4-.595s.546-.90766667.546-1.533c0-.65333333-.1796667-1.17366667-.539-1.561s-.8283333-.581-1.407-.581c-.5693333 0-1.036.19366667-1.4.581s-.546.90766667-.546 1.561c0 .62533333.1843333 1.13633333.553 1.533s.833.595 1.393.595z"/></g><g transform="translate(473.362 674.088)"><path d="m3.542 4.872c.392-.49466667.65566667-.889.791-1.183s.203-.62766667.203-1.001c0-.504-.14-.903-.42-1.197s-.66266667-.441-1.148-.441c-.45733333 0-.83533333.161-1.134.483s-.48533333.749-.56 1.281l-1.078-.21c.03733333-.504.17966667-.952.427-1.344s.57633333-.7.987-.924.868-.336 1.372-.336c.82133333 0 1.48166667.24033333 1.981.721s.749 1.13633333.749 1.967c0 .42933333-.091.847-.273 1.253s-.45033333.833-.805 1.281l-2.8 3.626h4.102v1.064h-5.936v-.448z"/><path d="m10.668 10.024c-1.12 0-1.97633333-.448-2.569-1.344s-.889-2.11866667-.889-3.668.29633333-2.772.889-3.668 1.449-1.344 2.569-1.344 1.974.44566667 2.562 1.337.882 2.11633333.882 3.675-.294 2.78366667-.882 3.675-1.442 1.337-2.562 1.337zm0-1.064c.728 0 1.2903333-.35466667 1.687-1.064s.595-1.67066667.595-2.884-.1983333-2.177-.595-2.891-.959-1.071-1.687-1.071c-.73733333 0-1.302.357-1.694 1.071s-.588 1.67766667-.588 2.891.196 2.17466667.588 2.884.95666667 1.064 1.694 1.064z"/><path d="m19.082 10.024c-1.12 0-1.9763333-.448-2.569-1.344s-.889-2.11866667-.889-3.668.2963333-2.772.889-3.668 1.449-1.344 2.569-1.344 1.974.44566667 2.562 1.337.882 2.11633333.882 3.675-.294 2.78366667-.882 3.675-1.442 1.337-2.562 1.337zm0-1.064c.728 0 1.2903333-.35466667 1.687-1.064s.595-1.67066667.595-2.884-.1983333-2.177-.595-2.891-.959-1.071-1.687-1.071c-.7373333 0-1.302.357-1.694 1.071s-.588 1.67766667-.588 2.891.196 2.17466667.588 2.884.9566667 1.064 1.694 1.064z"/><path d="m27.818 1.162h-4.214v-1.05h5.6v.42l-3.822 9.38h-1.176z"/></g><g transform="translate(516.326 674.088)"><path d="m3.542 4.872c.392-.49466667.65566667-.889.791-1.183s.203-.62766667.203-1.001c0-.504-.14-.903-.42-1.197s-.66266667-.441-1.148-.441c-.45733333 0-.83533333.161-1.134.483s-.48533333.749-.56 1.281l-1.078-.21c.03733333-.504.17966667-.952.427-1.344s.57633333-.7.987-.924.868-.336 1.372-.336c.82133333 0 1.48166667.24033333 1.981.721s.749 1.13633333.749 1.967c0 .42933333-.091.847-.273 1.253s-.45033333.833-.805 1.281l-2.8 3.626h4.102v1.064h-5.936v-.448z"/><path d="m10.668 10.024c-1.12 0-1.97633333-.448-2.569-1.344s-.889-2.11866667-.889-3.668.29633333-2.772.889-3.668 1.449-1.344 2.569-1.344 1.974.44566667 2.562 1.337.882 2.11633333.882 3.675-.294 2.78366667-.882 3.675-1.442 1.337-2.562 1.337zm0-1.064c.728 0 1.2903333-.35466667 1.687-1.064s.595-1.67066667.595-2.884-.1983333-2.177-.595-2.891-.959-1.071-1.687-1.071c-.73733333 0-1.302.357-1.694 1.071s-.588 1.67766667-.588 2.891.196 2.17466667.588 2.884.95666667 1.064 1.694 1.064z"/><path d="m19.082 10.024c-1.12 0-1.9763333-.448-2.569-1.344s-.889-2.11866667-.889-3.668.2963333-2.772.889-3.668 1.449-1.344 2.569-1.344 1.974.44566667 2.562 1.337.882 2.11633333.882 3.675-.294 2.78366667-.882 3.675-1.442 1.337-2.562 1.337zm0-1.064c.728 0 1.2903333-.35466667 1.687-1.064s.595-1.67066667.595-2.884-.1983333-2.177-.595-2.891-.959-1.071-1.687-1.071c-.7373333 0-1.302.357-1.694 1.071s-.588 1.67766667-.588 2.891.196 2.17466667.588 2.884.9566667 1.064 1.694 1.064z"/><path d="m26.978 10.024c-.5506667 0-1.0546667-.11433333-1.512-.343s-.8236667-.56233333-1.099-1.001-.413-.96133333-.413-1.568c0-.57866667.1376667-1.08966667.413-1.533s.6323333-.75833333 1.071-.945c-.3453333-.20533333-.6206667-.483-.826-.833s-.308-.75366667-.308-1.211c0-.49466667.112-.938.336-1.33s.539-.7.945-.924.8703333-.336 1.393-.336.987.112 1.393.336.721.532.945.924.336.83533333.336 1.33c0 .448-.105.847-.315 1.197s-.483.63233333-.819.847c.4386667.18666667.7956667.50166667 1.071.945s.413.95433333.413 1.533c0 .60666667-.1376667 1.12933333-.413 1.568s-.6416667.77233333-1.099 1.001-.9613333.343-1.512.343zm0-5.824c.4666667 0 .8423333-.14466667 1.127-.434s.427-.67666667.427-1.162-.1423333-.87266667-.427-1.162-.6603333-.434-1.127-.434-.8423333.14466667-1.127.434-.427.67666667-.427 1.162.1423333.87266667.427 1.162.6603333.434 1.127.434zm0 4.76c.56 0 1.008-.16333333 1.344-.49s.504-.77933333.504-1.358-.1703333-1.03366667-.511-1.365-.7863333-.497-1.337-.497-.9963333.16566667-1.337.497-.511.78633333-.511 1.365.1703333 1.03133333.511 1.358.7863333.49 1.337.49z"/></g><g transform="translate(560.228 674.088)"><path d="m3.542 4.872c.392-.49466667.65566667-.889.791-1.183s.203-.62766667.203-1.001c0-.504-.14-.903-.42-1.197s-.66266667-.441-1.148-.441c-.45733333 0-.83533333.161-1.134.483s-.48533333.749-.56 1.281l-1.078-.21c.03733333-.504.17966667-.952.427-1.344s.57633333-.7.987-.924.868-.336 1.372-.336c.82133333 0 1.48166667.24033333 1.981.721s.749 1.13633333.749 1.967c0 .42933333-.091.847-.273 1.253s-.45033333.833-.805 1.281l-2.8 3.626h4.102v1.064h-5.936v-.448z"/><path d="m10.668 10.024c-1.12 0-1.97633333-.448-2.569-1.344s-.889-2.11866667-.889-3.668.29633333-2.772.889-3.668 1.449-1.344 2.569-1.344 1.974.44566667 2.562 1.337.882 2.11633333.882 3.675-.294 2.78366667-.882 3.675-1.442 1.337-2.562 1.337zm0-1.064c.728 0 1.2903333-.35466667 1.687-1.064s.595-1.67066667.595-2.884-.1983333-2.177-.595-2.891-.959-1.071-1.687-1.071c-.73733333 0-1.302.357-1.694 1.071s-.588 1.67766667-.588 2.891.196 2.17466667.588 2.884.95666667 1.064 1.694 1.064z"/><path d="m19.082 10.024c-1.12 0-1.9763333-.448-2.569-1.344s-.889-2.11866667-.889-3.668.2963333-2.772.889-3.668 1.449-1.344 2.569-1.344 1.974.44566667 2.562 1.337.882 2.11633333.882 3.675-.294 2.78366667-.882 3.675-1.442 1.337-2.562 1.337zm0-1.064c.728 0 1.2903333-.35466667 1.687-1.064s.595-1.67066667.595-2.884-.1983333-2.177-.595-2.891-.959-1.071-1.687-1.071c-.7373333 0-1.302.357-1.694 1.071s-.588 1.67766667-.588 2.891.196 2.17466667.588 2.884.9566667 1.064 1.694 1.064z"/><path d="m27.65 6.23c-.0746667.04666667-.1796667.084-.315.112s-.259.042-.371.042c-.5973333 0-1.1316667-.13766667-1.603-.413s-.8376667-.65566667-1.099-1.141-.392-1.03133333-.392-1.638c0-.59733333.133-1.13866667.399-1.624s.637-.868 1.113-1.148 1.0126667-.42 1.61-.42 1.134.14 1.61.42.847.66266667 1.113 1.148.399 1.02666667.399 1.624c0 .28933333-.0443333.588-.133.896s-.2123333.602-.371.882l-2.814 4.942h-1.246zm-.658-.91c.5786667 0 1.0476667-.19133333 1.407-.574s.539-.90066667.539-1.554c0-.62533333-.1843333-1.13866667-.553-1.54s-.833-.602-1.393-.602-1.0243333.20066667-1.393.602-.553.91466667-.553 1.54c0 .65333333.182 1.17133333.546 1.554s.8306667.574 1.4.574z"/></g><g transform="translate(602.944 674.088)"><path d="m3.542 4.872c.392-.49466667.65566667-.889.791-1.183s.203-.62766667.203-1.001c0-.504-.14-.903-.42-1.197s-.66266667-.441-1.148-.441c-.45733333 0-.83533333.161-1.134.483s-.48533333.749-.56 1.281l-1.078-.21c.03733333-.504.17966667-.952.427-1.344s.57633333-.7.987-.924.868-.336 1.372-.336c.82133333 0 1.48166667.24033333 1.981.721s.749 1.13633333.749 1.967c0 .42933333-.091.847-.273 1.253s-.45033333.833-.805 1.281l-2.8 3.626h4.102v1.064h-5.936v-.448z"/><path d="m10.668 10.024c-1.12 0-1.97633333-.448-2.569-1.344s-.889-2.11866667-.889-3.668.29633333-2.772.889-3.668 1.449-1.344 2.569-1.344 1.974.44566667 2.562 1.337.882 2.11633333.882 3.675-.294 2.78366667-.882 3.675-1.442 1.337-2.562 1.337zm0-1.064c.728 0 1.2903333-.35466667 1.687-1.064s.595-1.67066667.595-2.884-.1983333-2.177-.595-2.891-.959-1.071-1.687-1.071c-.73733333 0-1.302.357-1.694 1.071s-.588 1.67766667-.588 2.891.196 2.17466667.588 2.884.95666667 1.064 1.694 1.064z"/><path d="m17.276 1.848-1.708 1.05v-1.26l2.464-1.526h.406v9.8h-1.162z"/><path d="m23.856 10.024c-1.12 0-1.9763333-.448-2.569-1.344s-.889-2.11866667-.889-3.668.2963333-2.772.889-3.668 1.449-1.344 2.569-1.344 1.974.44566667 2.562 1.337.882 2.11633333.882 3.675-.294 2.78366667-.882 3.675-1.442 1.337-2.562 1.337zm0-1.064c.728 0 1.2903333-.35466667 1.687-1.064s.595-1.67066667.595-2.884-.1983333-2.177-.595-2.891-.959-1.071-1.687-1.071c-.7373333 0-1.302.357-1.694 1.071s-.588 1.67766667-.588 2.891.196 2.17466667.588 2.884.9566667 1.064 1.694 1.064z"/></g><g transform="translate(647.584 674.088)"><path d="m3.542 4.872c.392-.49466667.65566667-.889.791-1.183s.203-.62766667.203-1.001c0-.504-.14-.903-.42-1.197s-.66266667-.441-1.148-.441c-.45733333 0-.83533333.161-1.134.483s-.48533333.749-.56 1.281l-1.078-.21c.03733333-.504.17966667-.952.427-1.344s.57633333-.7.987-.924.868-.336 1.372-.336c.82133333 0 1.48166667.24033333 1.981.721s.749 1.13633333.749 1.967c0 .42933333-.091.847-.273 1.253s-.45033333.833-.805 1.281l-2.8 3.626h4.102v1.064h-5.936v-.448z"/><path d="m10.668 10.024c-1.12 0-1.97633333-.448-2.569-1.344s-.889-2.11866667-.889-3.668.29633333-2.772.889-3.668 1.449-1.344 2.569-1.344 1.974.44566667 2.562 1.337.882 2.11633333.882 3.675-.294 2.78366667-.882 3.675-1.442 1.337-2.562 1.337zm0-1.064c.728 0 1.2903333-.35466667 1.687-1.064s.595-1.67066667.595-2.884-.1983333-2.177-.595-2.891-.959-1.071-1.687-1.071c-.73733333 0-1.302.357-1.694 1.071s-.588 1.67766667-.588 2.891.196 2.17466667.588 2.884.95666667 1.064 1.694 1.064z"/><path d="m17.276 1.848-1.708 1.05v-1.26l2.464-1.526h.406v9.8h-1.162z"/><path d="m22.05 1.848-1.708 1.05v-1.26l2.464-1.526h.406v9.8h-1.162z"/></g><g transform="translate(689.372 674.088)"><path d="m3.542 4.872c.392-.49466667.65566667-.889.791-1.183s.203-.62766667.203-1.001c0-.504-.14-.903-.42-1.197s-.66266667-.441-1.148-.441c-.45733333 0-.83533333.161-1.134.483s-.48533333.749-.56 1.281l-1.078-.21c.03733333-.504.17966667-.952.427-1.344s.57633333-.7.987-.924.868-.336 1.372-.336c.82133333 0 1.48166667.24033333 1.981.721s.749 1.13633333.749 1.967c0 .42933333-.091.847-.273 1.253s-.45033333.833-.805 1.281l-2.8 3.626h4.102v1.064h-5.936v-.448z"/><path d="m10.668 10.024c-1.12 0-1.97633333-.448-2.569-1.344s-.889-2.11866667-.889-3.668.29633333-2.772.889-3.668 1.449-1.344 2.569-1.344 1.974.44566667 2.562 1.337.882 2.11633333.882 3.675-.294 2.78366667-.882 3.675-1.442 1.337-2.562 1.337zm0-1.064c.728 0 1.2903333-.35466667 1.687-1.064s.595-1.67066667.595-2.884-.1983333-2.177-.595-2.891-.959-1.071-1.687-1.071c-.73733333 0-1.302.357-1.694 1.071s-.588 1.67766667-.588 2.891.196 2.17466667.588 2.884.95666667 1.064 1.694 1.064z"/><path d="m17.276 1.848-1.708 1.05v-1.26l2.464-1.526h.406v9.8h-1.162z"/><path d="m23.604 4.872c.392-.49466667.6556667-.889.791-1.183s.203-.62766667.203-1.001c0-.504-.14-.903-.42-1.197s-.6626667-.441-1.148-.441c-.4573333 0-.8353333.161-1.134.483s-.4853333.749-.56 1.281l-1.078-.21c.0373333-.504.1796667-.952.427-1.344s.5763333-.7.987-.924.868-.336 1.372-.336c.8213333 0 1.4816667.24033333 1.981.721s.749 1.13633333.749 1.967c0 .42933333-.091.847-.273 1.253s-.4503333.833-.805 1.281l-2.8 3.626h4.102v1.064h-5.936v-.448z"/></g><g transform="translate(731.812 674.088)"><path d="m3.542 4.872c.392-.49466667.65566667-.889.791-1.183s.203-.62766667.203-1.001c0-.504-.14-.903-.42-1.197s-.66266667-.441-1.148-.441c-.45733333 0-.83533333.161-1.134.483s-.48533333.749-.56 1.281l-1.078-.21c.03733333-.504.17966667-.952.427-1.344s.57633333-.7.987-.924.868-.336 1.372-.336c.82133333 0 1.48166667.24033333 1.981.721s.749 1.13633333.749 1.967c0 .42933333-.091.847-.273 1.253s-.45033333.833-.805 1.281l-2.8 3.626h4.102v1.064h-5.936v-.448z"/><path d="m10.668 10.024c-1.12 0-1.97633333-.448-2.569-1.344s-.889-2.11866667-.889-3.668.29633333-2.772.889-3.668 1.449-1.344 2.569-1.344 1.974.44566667 2.562 1.337.882 2.11633333.882 3.675-.294 2.78366667-.882 3.675-1.442 1.337-2.562 1.337zm0-1.064c.728 0 1.2903333-.35466667 1.687-1.064s.595-1.67066667.595-2.884-.1983333-2.177-.595-2.891-.959-1.071-1.687-1.071c-.73733333 0-1.302.357-1.694 1.071s-.588 1.67766667-.588 2.891.196 2.17466667.588 2.884.95666667 1.064 1.694 1.064z"/><path d="m17.276 1.848-1.708 1.05v-1.26l2.464-1.526h.406v9.8h-1.162z"/><path d="m23.38 10.024c-.84 0-1.5423333-.252-2.107-.756s-.8936667-1.19-.987-2.058l1.134-.154c.084.588.294 1.05233333.63 1.393s.7793333.511 1.33.511c.6346667 0 1.1246667-.18666667 1.47-.56s.518-.88666667.518-1.54c0-.68133333-.175-1.20633333-.525-1.575s-.833-.553-1.449-.553c-.3173333 0-.6066667.07933333-.868.238l-.518-.686 2.31-3.122h-3.556v-1.05h5.292v.364l-2.534 3.388c.0933333-.028.2146667-.042.364-.042.4853333 0 .931.12133333 1.337.364s.728.595.966 1.057.357 1.001.357 1.617c0 .62533333-.1306667 1.176-.392 1.652s-.63.847-1.106 1.113-1.0313333.399-1.666.399z"/></g><g transform="translate(774.658 674.088)"><path d="m3.542 4.872c.392-.49466667.65566667-.889.791-1.183s.203-.62766667.203-1.001c0-.504-.14-.903-.42-1.197s-.66266667-.441-1.148-.441c-.45733333 0-.83533333.161-1.134.483s-.48533333.749-.56 1.281l-1.078-.21c.03733333-.504.17966667-.952.427-1.344s.57633333-.7.987-.924.868-.336 1.372-.336c.82133333 0 1.48166667.24033333 1.981.721s.749 1.13633333.749 1.967c0 .42933333-.091.847-.273 1.253s-.45033333.833-.805 1.281l-2.8 3.626h4.102v1.064h-5.936v-.448z"/><path d="m10.668 10.024c-1.12 0-1.97633333-.448-2.569-1.344s-.889-2.11866667-.889-3.668.29633333-2.772.889-3.668 1.449-1.344 2.569-1.344 1.974.44566667 2.562 1.337.882 2.11633333.882 3.675-.294 2.78366667-.882 3.675-1.442 1.337-2.562 1.337zm0-1.064c.728 0 1.2903333-.35466667 1.687-1.064s.595-1.67066667.595-2.884-.1983333-2.177-.595-2.891-.959-1.071-1.687-1.071c-.73733333 0-1.302.357-1.694 1.071s-.588 1.67766667-.588 2.891.196 2.17466667.588 2.884.95666667 1.064 1.694 1.064z"/><path d="m17.276 1.848-1.708 1.05v-1.26l2.464-1.526h.406v9.8h-1.162z"/><path d="m24.528 7.798h-4.284v-.448l4.13-7.238h1.316v6.636h1.232v1.05h-1.232v2.114h-1.162zm0-1.05v-4.956l-2.758 4.956z"/></g><g transform="translate(816.19 674.088)"><path d="m3.542 4.872c.392-.49466667.65566667-.889.791-1.183s.203-.62766667.203-1.001c0-.504-.14-.903-.42-1.197s-.66266667-.441-1.148-.441c-.45733333 0-.83533333.161-1.134.483s-.48533333.749-.56 1.281l-1.078-.21c.03733333-.504.17966667-.952.427-1.344s.57633333-.7.987-.924.868-.336 1.372-.336c.82133333 0 1.48166667.24033333 1.981.721s.749 1.13633333.749 1.967c0 .42933333-.091.847-.273 1.253s-.45033333.833-.805 1.281l-2.8 3.626h4.102v1.064h-5.936v-.448z"/><path d="m10.668 10.024c-1.12 0-1.97633333-.448-2.569-1.344s-.889-2.11866667-.889-3.668.29633333-2.772.889-3.668 1.449-1.344 2.569-1.344 1.974.44566667 2.562 1.337.882 2.11633333.882 3.675-.294 2.78366667-.882 3.675-1.442 1.337-2.562 1.337zm0-1.064c.728 0 1.2903333-.35466667 1.687-1.064s.595-1.67066667.595-2.884-.1983333-2.177-.595-2.891-.959-1.071-1.687-1.071c-.73733333 0-1.302.357-1.694 1.071s-.588 1.67766667-.588 2.891.196 2.17466667.588 2.884.95666667 1.064 1.694 1.064z"/><path d="m17.276 1.848-1.708 1.05v-1.26l2.464-1.526h.406v9.8h-1.162z"/><path d="m23.268 10.024c-.8213333 0-1.5026667-.23333333-2.044-.7s-.8633333-1.12933333-.966-1.988l1.12-.196c.196 1.21333333.826 1.82 1.89 1.82.6066667 0 1.0686667-.19833333 1.386-.595s.476-.94966667.476-1.659c0-.73733333-.1633333-1.29733333-.49-1.68s-.7793333-.574-1.358-.574c-.4386667 0-.826.10733333-1.162.322s-.6206667.49933333-.854.854l-.77-.168.518-5.348h4.718v1.05h-3.724l-.294 2.856c.448-.40133333 1.0266667-.602 1.736-.602.8866667 0 1.5843333.29633333 2.093.889s.763 1.393.763 2.401c0 .644-.1236667 1.218-.371 1.722s-.602.896-1.064 1.176-.9963333.42-1.603.42z"/></g><g transform="translate(861.812 674.088)"><path d="m3.542 4.872c.392-.49466667.65566667-.889.791-1.183s.203-.62766667.203-1.001c0-.504-.14-.903-.42-1.197s-.66266667-.441-1.148-.441c-.45733333 0-.83533333.161-1.134.483s-.48533333.749-.56 1.281l-1.078-.21c.03733333-.504.17966667-.952.427-1.344s.57633333-.7.987-.924.868-.336 1.372-.336c.82133333 0 1.48166667.24033333 1.981.721s.749 1.13633333.749 1.967c0 .42933333-.091.847-.273 1.253s-.45033333.833-.805 1.281l-2.8 3.626h4.102v1.064h-5.936v-.448z"/><path d="m10.668 10.024c-1.12 0-1.97633333-.448-2.569-1.344s-.889-2.11866667-.889-3.668.29633333-2.772.889-3.668 1.449-1.344 2.569-1.344 1.974.44566667 2.562 1.337.882 2.11633333.882 3.675-.294 2.78366667-.882 3.675-1.442 1.337-2.562 1.337zm0-1.064c.728 0 1.2903333-.35466667 1.687-1.064s.595-1.67066667.595-2.884-.1983333-2.177-.595-2.891-.959-1.071-1.687-1.071c-.73733333 0-1.302.357-1.694 1.071s-.588 1.67766667-.588 2.891.196 2.17466667.588 2.884.95666667 1.064 1.694 1.064z"/><path d="m17.276 1.848-1.708 1.05v-1.26l2.464-1.526h.406v9.8h-1.162z"/><path d="m23.408 10.024c-.5973333 0-1.134-.14-1.61-.42s-.847-.66266667-1.113-1.148-.399-1.02666667-.399-1.624c0-.644.1913333-1.302.574-1.974l2.744-4.746h1.246l-2.086 3.682c.0746667-.04666667.1796667-.084.315-.112s.259-.042.371-.042c.5973333 0 1.1293333.13766667 1.596.413s.8306667.65566667 1.092 1.141.392 1.03133333.392 1.638c0 .59733333-.133 1.13866667-.399 1.624s-.6346667.868-1.106 1.148-1.0103333.42-1.617.42zm0-1.064c.5693333 0 1.036-.19833333 1.4-.595s.546-.90766667.546-1.533c0-.65333333-.1796667-1.17366667-.539-1.561s-.8283333-.581-1.407-.581c-.5693333 0-1.036.19366667-1.4.581s-.546.90766667-.546 1.561c0 .62533333.1843333 1.13633333.553 1.533s.833.595 1.393.595z"/></g><g transform="translate(904.862 674.088)"><path d="m3.542 4.872c.392-.49466667.65566667-.889.791-1.183s.203-.62766667.203-1.001c0-.504-.14-.903-.42-1.197s-.66266667-.441-1.148-.441c-.45733333 0-.83533333.161-1.134.483s-.48533333.749-.56 1.281l-1.078-.21c.03733333-.504.17966667-.952.427-1.344s.57633333-.7.987-.924.868-.336 1.372-.336c.82133333 0 1.48166667.24033333 1.981.721s.749 1.13633333.749 1.967c0 .42933333-.091.847-.273 1.253s-.45033333.833-.805 1.281l-2.8 3.626h4.102v1.064h-5.936v-.448z"/><path d="m10.668 10.024c-1.12 0-1.97633333-.448-2.569-1.344s-.889-2.11866667-.889-3.668.29633333-2.772.889-3.668 1.449-1.344 2.569-1.344 1.974.44566667 2.562 1.337.882 2.11633333.882 3.675-.294 2.78366667-.882 3.675-1.442 1.337-2.562 1.337zm0-1.064c.728 0 1.2903333-.35466667 1.687-1.064s.595-1.67066667.595-2.884-.1983333-2.177-.595-2.891-.959-1.071-1.687-1.071c-.73733333 0-1.302.357-1.694 1.071s-.588 1.67766667-.588 2.891.196 2.17466667.588 2.884.95666667 1.064 1.694 1.064z"/><path d="m17.276 1.848-1.708 1.05v-1.26l2.464-1.526h.406v9.8h-1.162z"/><path d="m24.318 1.162h-4.214v-1.05h5.6v.42l-3.822 9.38h-1.176z"/></g><g transform="translate(946.966 674.088)"><path d="m3.542 4.872c.392-.49466667.65566667-.889.791-1.183s.203-.62766667.203-1.001c0-.504-.14-.903-.42-1.197s-.66266667-.441-1.148-.441c-.45733333 0-.83533333.161-1.134.483s-.48533333.749-.56 1.281l-1.078-.21c.03733333-.504.17966667-.952.427-1.344s.57633333-.7.987-.924.868-.336 1.372-.336c.82133333 0 1.48166667.24033333 1.981.721s.749 1.13633333.749 1.967c0 .42933333-.091.847-.273 1.253s-.45033333.833-.805 1.281l-2.8 3.626h4.102v1.064h-5.936v-.448z"/><path d="m10.668 10.024c-1.12 0-1.97633333-.448-2.569-1.344s-.889-2.11866667-.889-3.668.29633333-2.772.889-3.668 1.449-1.344 2.569-1.344 1.974.44566667 2.562 1.337.882 2.11633333.882 3.675-.294 2.78366667-.882 3.675-1.442 1.337-2.562 1.337zm0-1.064c.728 0 1.2903333-.35466667 1.687-1.064s.595-1.67066667.595-2.884-.1983333-2.177-.595-2.891-.959-1.071-1.687-1.071c-.73733333 0-1.302.357-1.694 1.071s-.588 1.67766667-.588 2.891.196 2.17466667.588 2.884.95666667 1.064 1.694 1.064z"/><path d="m17.276 1.848-1.708 1.05v-1.26l2.464-1.526h.406v9.8h-1.162z"/><path d="m23.338 10.024c-.5506667 0-1.0546667-.11433333-1.512-.343s-.8236667-.56233333-1.099-1.001-.413-.96133333-.413-1.568c0-.57866667.1376667-1.08966667.413-1.533s.6323333-.75833333 1.071-.945c-.3453333-.20533333-.6206667-.483-.826-.833s-.308-.75366667-.308-1.211c0-.49466667.112-.938.336-1.33s.539-.7.945-.924.8703333-.336 1.393-.336.987.112 1.393.336.721.532.945.924.336.83533333.336 1.33c0 .448-.105.847-.315 1.197s-.483.63233333-.819.847c.4386667.18666667.7956667.50166667 1.071.945s.413.95433333.413 1.533c0 .60666667-.1376667 1.12933333-.413 1.568s-.6416667.77233333-1.099 1.001-.9613333.343-1.512.343zm0-5.824c.4666667 0 .8423333-.14466667 1.127-.434s.427-.67666667.427-1.162-.1423333-.87266667-.427-1.162-.6603333-.434-1.127-.434-.8423333.14466667-1.127.434-.427.67666667-.427 1.162.1423333.87266667.427 1.162.6603333.434 1.127.434zm0 4.76c.56 0 1.008-.16333333 1.344-.49s.504-.77933333.504-1.358-.1703333-1.03366667-.511-1.365-.7863333-.497-1.337-.497-.9963333.16566667-1.337.497-.511.78633333-.511 1.365.1703333 1.03133333.511 1.358.7863333.49 1.337.49z"/></g><g transform="translate(989.812 674.088)"><path d="m3.542 4.872c.392-.49466667.65566667-.889.791-1.183s.203-.62766667.203-1.001c0-.504-.14-.903-.42-1.197s-.66266667-.441-1.148-.441c-.45733333 0-.83533333.161-1.134.483s-.48533333.749-.56 1.281l-1.078-.21c.03733333-.504.17966667-.952.427-1.344s.57633333-.7.987-.924.868-.336 1.372-.336c.82133333 0 1.48166667.24033333 1.981.721s.749 1.13633333.749 1.967c0 .42933333-.091.847-.273 1.253s-.45033333.833-.805 1.281l-2.8 3.626h4.102v1.064h-5.936v-.448z"/><path d="m10.668 10.024c-1.12 0-1.97633333-.448-2.569-1.344s-.889-2.11866667-.889-3.668.29633333-2.772.889-3.668 1.449-1.344 2.569-1.344 1.974.44566667 2.562 1.337.882 2.11633333.882 3.675-.294 2.78366667-.882 3.675-1.442 1.337-2.562 1.337zm0-1.064c.728 0 1.2903333-.35466667 1.687-1.064s.595-1.67066667.595-2.884-.1983333-2.177-.595-2.891-.959-1.071-1.687-1.071c-.73733333 0-1.302.357-1.694 1.071s-.588 1.67766667-.588 2.891.196 2.17466667.588 2.884.95666667 1.064 1.694 1.064z"/><path d="m17.276 1.848-1.708 1.05v-1.26l2.464-1.526h.406v9.8h-1.162z"/><path d="m24.066 6.23c-.0746667.04666667-.1796667.084-.315.112s-.259.042-.371.042c-.5973333 0-1.1316667-.13766667-1.603-.413s-.8376667-.65566667-1.099-1.141-.392-1.03133333-.392-1.638c0-.59733333.133-1.13866667.399-1.624s.637-.868 1.113-1.148 1.0126667-.42 1.61-.42 1.134.14 1.61.42.847.66266667 1.113 1.148.399 1.02666667.399 1.624c0 .28933333-.0443333.588-.133.896s-.2123333.602-.371.882l-2.814 4.942h-1.246zm-.658-.91c.5786667 0 1.0476667-.19133333 1.407-.574s.539-.90066667.539-1.554c0-.62533333-.1843333-1.13866667-.553-1.54s-.833-.602-1.393-.602-1.0243333.20066667-1.393.602-.553.91466667-.553 1.54c0 .65333333.182 1.17133333.546 1.554s.8306667.574 1.4.574z"/></g><g transform="translate(1031.844 674.088)"><path d="m3.542 4.872c.392-.49466667.65566667-.889.791-1.183s.203-.62766667.203-1.001c0-.504-.14-.903-.42-1.197s-.66266667-.441-1.148-.441c-.45733333 0-.83533333.161-1.134.483s-.48533333.749-.56 1.281l-1.078-.21c.03733333-.504.17966667-.952.427-1.344s.57633333-.7.987-.924.868-.336 1.372-.336c.82133333 0 1.48166667.24033333 1.981.721s.749 1.13633333.749 1.967c0 .42933333-.091.847-.273 1.253s-.45033333.833-.805 1.281l-2.8 3.626h4.102v1.064h-5.936v-.448z"/><path d="m10.668 10.024c-1.12 0-1.97633333-.448-2.569-1.344s-.889-2.11866667-.889-3.668.29633333-2.772.889-3.668 1.449-1.344 2.569-1.344 1.974.44566667 2.562 1.337.882 2.11633333.882 3.675-.294 2.78366667-.882 3.675-1.442 1.337-2.562 1.337zm0-1.064c.728 0 1.2903333-.35466667 1.687-1.064s.595-1.67066667.595-2.884-.1983333-2.177-.595-2.891-.959-1.071-1.687-1.071c-.73733333 0-1.302.357-1.694 1.071s-.588 1.67766667-.588 2.891.196 2.17466667.588 2.884.95666667 1.064 1.694 1.064z"/><path d="m18.83 4.872c.392-.49466667.6556667-.889.791-1.183s.203-.62766667.203-1.001c0-.504-.14-.903-.42-1.197s-.6626667-.441-1.148-.441c-.4573333 0-.8353333.161-1.134.483s-.4853333.749-.56 1.281l-1.078-.21c.0373333-.504.1796667-.952.427-1.344s.5763333-.7.987-.924.868-.336 1.372-.336c.8213333 0 1.4816667.24033333 1.981.721s.749 1.13633333.749 1.967c0 .42933333-.091.847-.273 1.253s-.4503333.833-.805 1.281l-2.8 3.626h4.102v1.064h-5.936v-.448z"/><path d="m25.956 10.024c-1.12 0-1.9763333-.448-2.569-1.344s-.889-2.11866667-.889-3.668.2963333-2.772.889-3.668 1.449-1.344 2.569-1.344 1.974.44566667 2.562 1.337.882 2.11633333.882 3.675-.294 2.78366667-.882 3.675-1.442 1.337-2.562 1.337zm0-1.064c.728 0 1.2903333-.35466667 1.687-1.064s.595-1.67066667.595-2.884-.1983333-2.177-.595-2.891-.959-1.071-1.687-1.071c-.7373333 0-1.302.357-1.694 1.071s-.588 1.67766667-.588 2.891.196 2.17466667.588 2.884.9566667 1.064 1.694 1.064z"/></g><g transform="translate(1079.372 674.088)"><path d="m3.542 4.872c.392-.49466667.65566667-.889.791-1.183s.203-.62766667.203-1.001c0-.504-.14-.903-.42-1.197s-.66266667-.441-1.148-.441c-.45733333 0-.83533333.161-1.134.483s-.48533333.749-.56 1.281l-1.078-.21c.03733333-.504.17966667-.952.427-1.344s.57633333-.7.987-.924.868-.336 1.372-.336c.82133333 0 1.48166667.24033333 1.981.721s.749 1.13633333.749 1.967c0 .42933333-.091.847-.273 1.253s-.45033333.833-.805 1.281l-2.8 3.626h4.102v1.064h-5.936v-.448z"/><path d="m10.668 10.024c-1.12 0-1.97633333-.448-2.569-1.344s-.889-2.11866667-.889-3.668.29633333-2.772.889-3.668 1.449-1.344 2.569-1.344 1.974.44566667 2.562 1.337.882 2.11633333.882 3.675-.294 2.78366667-.882 3.675-1.442 1.337-2.562 1.337zm0-1.064c.728 0 1.2903333-.35466667 1.687-1.064s.595-1.67066667.595-2.884-.1983333-2.177-.595-2.891-.959-1.071-1.687-1.071c-.73733333 0-1.302.357-1.694 1.071s-.588 1.67766667-.588 2.891.196 2.17466667.588 2.884.95666667 1.064 1.694 1.064z"/><path d="m18.83 4.872c.392-.49466667.6556667-.889.791-1.183s.203-.62766667.203-1.001c0-.504-.14-.903-.42-1.197s-.6626667-.441-1.148-.441c-.4573333 0-.8353333.161-1.134.483s-.4853333.749-.56 1.281l-1.078-.21c.0373333-.504.1796667-.952.427-1.344s.5763333-.7.987-.924.868-.336 1.372-.336c.8213333 0 1.4816667.24033333 1.981.721s.749 1.13633333.749 1.967c0 .42933333-.091.847-.273 1.253s-.4503333.833-.805 1.281l-2.8 3.626h4.102v1.064h-5.936v-.448z"/><path d="m24.262 1.848-1.708 1.05v-1.26l2.464-1.526h.406v9.8h-1.162z"/></g><g transform="translate(1120.16 674.088)"><path d="m3.542 4.872c.392-.49466667.65566667-.889.791-1.183s.203-.62766667.203-1.001c0-.504-.14-.903-.42-1.197s-.66266667-.441-1.148-.441c-.45733333 0-.83533333.161-1.134.483s-.48533333.749-.56 1.281l-1.078-.21c.03733333-.504.17966667-.952.427-1.344s.57633333-.7.987-.924.868-.336 1.372-.336c.82133333 0 1.48166667.24033333 1.981.721s.749 1.13633333.749 1.967c0 .42933333-.091.847-.273 1.253s-.45033333.833-.805 1.281l-2.8 3.626h4.102v1.064h-5.936v-.448z"/><path d="m10.668 10.024c-1.12 0-1.97633333-.448-2.569-1.344s-.889-2.11866667-.889-3.668.29633333-2.772.889-3.668 1.449-1.344 2.569-1.344 1.974.44566667 2.562 1.337.882 2.11633333.882 3.675-.294 2.78366667-.882 3.675-1.442 1.337-2.562 1.337zm0-1.064c.728 0 1.2903333-.35466667 1.687-1.064s.595-1.67066667.595-2.884-.1983333-2.177-.595-2.891-.959-1.071-1.687-1.071c-.73733333 0-1.302.357-1.694 1.071s-.588 1.67766667-.588 2.891.196 2.17466667.588 2.884.95666667 1.064 1.694 1.064z"/><path d="m18.83 4.872c.392-.49466667.6556667-.889.791-1.183s.203-.62766667.203-1.001c0-.504-.14-.903-.42-1.197s-.6626667-.441-1.148-.441c-.4573333 0-.8353333.161-1.134.483s-.4853333.749-.56 1.281l-1.078-.21c.0373333-.504.1796667-.952.427-1.344s.5763333-.7.987-.924.868-.336 1.372-.336c.8213333 0 1.4816667.24033333 1.981.721s.749 1.13633333.749 1.967c0 .42933333-.091.847-.273 1.253s-.4503333.833-.805 1.281l-2.8 3.626h4.102v1.064h-5.936v-.448z"/><path d="m25.816 4.872c.392-.49466667.6556667-.889.791-1.183s.203-.62766667.203-1.001c0-.504-.14-.903-.42-1.197s-.6626667-.441-1.148-.441c-.4573333 0-.8353333.161-1.134.483s-.4853333.749-.56 1.281l-1.078-.21c.0373333-.504.1796667-.952.427-1.344s.5763333-.7.987-.924.868-.336 1.372-.336c.8213333 0 1.4816667.24033333 1.981.721s.749 1.13633333.749 1.967c0 .42933333-.091.847-.273 1.253s-.4503333.833-.805 1.281l-2.8 3.626h4.102v1.064h-5.936v-.448z"/></g><g transform="translate(54.28 380.672)"><path d="m1.952 2.112-1.952 1.2v-1.44l2.816-1.744h.464v11.2h-1.328z"/><path d="m5.984 9.664h1.872l-1.776 3.2h-.976z"/><path d="m13.312 11.456c-1.28 0-2.2586667-.512-2.936-1.536-.67733333-1.024-1.016-2.42133333-1.016-4.192s.33866667-3.168 1.016-4.192c.6773333-1.024 1.656-1.536 2.936-1.536s2.256.50933333 2.928 1.528 1.008 2.41866667 1.008 4.2-.336 3.18133333-1.008 4.2c-.672 1.0186667-1.648 1.528-2.928 1.528zm0-1.216c.832 0 1.4746667-.40533333 1.928-1.216s.68-1.90933333.68-3.296-.2266667-2.488-.68-3.304-1.096-1.224-1.928-1.224c-.8426667 0-1.488.408-1.936 1.224s-.672 1.91733333-.672 3.304.224 2.48533333.672 3.296 1.0933333 1.216 1.936 1.216z"/><path d="m22.928 11.456c-1.28 0-2.2586667-.512-2.936-1.536s-1.016-2.42133333-1.016-4.192.3386667-3.168 1.016-4.192 1.656-1.536 2.936-1.536 2.256.50933333 2.928 1.528 1.008 2.41866667 1.008 4.2-.336 3.18133333-1.008 4.2c-.672 1.0186667-1.648 1.528-2.928 1.528zm0-1.216c.832 0 1.4746667-.40533333 1.928-1.216s.68-1.90933333.68-3.296-.2266667-2.488-.68-3.304-1.096-1.224-1.928-1.224c-.8426667 0-1.488.408-1.936 1.224s-.672 1.91733333-.672 3.304.224 2.48533333.672 3.296 1.0933333 1.216 1.936 1.216z"/><path d="m32.544 11.456c-1.28 0-2.2586667-.512-2.936-1.536s-1.016-2.42133333-1.016-4.192.3386667-3.168 1.016-4.192 1.656-1.536 2.936-1.536 2.256.50933333 2.928 1.528 1.008 2.41866667 1.008 4.2-.336 3.18133333-1.008 4.2c-.672 1.0186667-1.648 1.528-2.928 1.528zm0-1.216c.832 0 1.4746667-.40533333 1.928-1.216s.68-1.90933333.68-3.296-.2266667-2.488-.68-3.304-1.096-1.224-1.928-1.224c-.8426667 0-1.488.408-1.936 1.224s-.672 1.91733333-.672 3.304.224 2.48533333.672 3.296 1.0933333 1.216 1.936 1.216z"/><path d="m38.672 9.664h1.872l-1.776 3.2h-.976z"/><path d="m46 11.456c-1.28 0-2.2586667-.512-2.936-1.536s-1.016-2.42133333-1.016-4.192.3386667-3.168 1.016-4.192 1.656-1.536 2.936-1.536 2.256.50933333 2.928 1.528 1.008 2.41866667 1.008 4.2-.336 3.18133333-1.008 4.2c-.672 1.0186667-1.648 1.528-2.928 1.528zm0-1.216c.832 0 1.4746667-.40533333 1.928-1.216s.68-1.90933333.68-3.296-.2266667-2.488-.68-3.304-1.096-1.224-1.928-1.224c-.8426667 0-1.488.408-1.936 1.224s-.672 1.91733333-.672 3.304.224 2.48533333.672 3.296 1.0933333 1.216 1.936 1.216z"/><path d="m55.616 11.456c-1.28 0-2.2586667-.512-2.936-1.536s-1.016-2.42133333-1.016-4.192.3386667-3.168 1.016-4.192 1.656-1.536 2.936-1.536 2.256.50933333 2.928 1.528 1.008 2.41866667 1.008 4.2-.336 3.18133333-1.008 4.2c-.672 1.0186667-1.648 1.528-2.928 1.528zm0-1.216c.832 0 1.4746667-.40533333 1.928-1.216s.68-1.90933333.68-3.296-.2266667-2.488-.68-3.304-1.096-1.224-1.928-1.224c-.8426667 0-1.488.408-1.936 1.224s-.672 1.91733333-.672 3.304.224 2.48533333.672 3.296 1.0933333 1.216 1.936 1.216z"/><path d="m65.232 11.456c-1.28 0-2.2586667-.512-2.936-1.536s-1.016-2.42133333-1.016-4.192.3386667-3.168 1.016-4.192 1.656-1.536 2.936-1.536 2.256.50933333 2.928 1.528 1.008 2.41866667 1.008 4.2-.336 3.18133333-1.008 4.2c-.672 1.0186667-1.648 1.528-2.928 1.528zm0-1.216c.832 0 1.4746667-.40533333 1.928-1.216s.68-1.90933333.68-3.296-.2266667-2.488-.68-3.304-1.096-1.224-1.928-1.224c-.8426667 0-1.488.408-1.936 1.224s-.672 1.91733333-.672 3.304.224 2.48533333.672 3.296 1.0933333 1.216 1.936 1.216z"/><path d="m71.36 9.664h1.872l-1.776 3.2h-.976z"/><path d="m78.688 11.456c-1.28 0-2.2586667-.512-2.936-1.536s-1.016-2.42133333-1.016-4.192.3386667-3.168 1.016-4.192 1.656-1.536 2.936-1.536 2.256.50933333 2.928 1.528 1.008 2.41866667 1.008 4.2-.336 3.18133333-1.008 4.2c-.672 1.0186667-1.648 1.528-2.928 1.528zm0-1.216c.832 0 1.4746667-.40533333 1.928-1.216s.68-1.90933333.68-3.296-.2266667-2.488-.68-3.304-1.096-1.224-1.928-1.224c-.8426667 0-1.488.408-1.936 1.224s-.672 1.91733333-.672 3.304.224 2.48533333.672 3.296 1.0933333 1.216 1.936 1.216z"/><path d="m88.304 11.456c-1.28 0-2.2586667-.512-2.936-1.536s-1.016-2.42133333-1.016-4.192.3386667-3.168 1.016-4.192 1.656-1.536 2.936-1.536 2.256.50933333 2.928 1.528 1.008 2.41866667 1.008 4.2-.336 3.18133333-1.008 4.2c-.672 1.0186667-1.648 1.528-2.928 1.528zm0-1.216c.832 0 1.4746667-.40533333 1.928-1.216s.68-1.90933333.68-3.296-.2266667-2.488-.68-3.304-1.096-1.224-1.928-1.224c-.8426667 0-1.488.408-1.936 1.224s-.672 1.91733333-.672 3.304.224 2.48533333.672 3.296 1.0933333 1.216 1.936 1.216z"/><path d="m97.92 11.456c-1.28 0-2.2586667-.512-2.936-1.536s-1.016-2.42133333-1.016-4.192.3386667-3.168 1.016-4.192 1.656-1.536 2.936-1.536 2.256.50933333 2.928 1.528 1.008 2.41866667 1.008 4.2-.336 3.18133333-1.008 4.2c-.672 1.0186667-1.648 1.528-2.928 1.528zm0-1.216c.832 0 1.4746667-.40533333 1.928-1.216.453333-.81066667.68-1.90933333.68-3.296s-.226667-2.488-.68-3.304c-.4533333-.816-1.096-1.224-1.928-1.224-.8426667 0-1.488.408-1.936 1.224s-.672 1.91733333-.672 3.304.224 2.48533333.672 3.296 1.0933333 1.216 1.936 1.216z"/></g><path d="m1149 254v1h-980v-1z"/><g transform="translate(56.204 247.672)"><path d="m1.952 2.112-1.952 1.2v-1.44l2.816-1.744h.464v11.2h-1.328z"/><path d="m5.984 9.664h1.872l-1.776 3.2h-.976z"/><path d="m12.64 11.456c-.9386667 0-1.7173333-.2666667-2.336-.8-.61866667-.5333333-.98666667-1.29066667-1.104-2.272l1.28-.224c.224 1.38666667.944 2.08 2.16 2.08.6933333 0 1.2213333-.2266667 1.584-.68.3626667-.45333333.544-1.08533333.544-1.896 0-.84266667-.1866667-1.48266667-.56-1.92s-.8906667-.656-1.552-.656c-.5013333 0-.944.12266667-1.328.368s-.7093333.57066667-.976.976l-.88-.192.592-6.112h5.392v1.2h-4.256l-.336 3.264c.512-.45866667 1.1733333-.688 1.984-.688 1.0133333 0 1.8106667.33866667 2.392 1.016s.872 1.592.872 2.744c0 .736-.1413333 1.392-.424 1.968s-.688 1.024-1.216 1.344-1.1386667.48-1.832.48z"/><path d="m21.504 11.456c-1.28 0-2.2586667-.512-2.936-1.536s-1.016-2.42133333-1.016-4.192.3386667-3.168 1.016-4.192 1.656-1.536 2.936-1.536 2.256.50933333 2.928 1.528 1.008 2.41866667 1.008 4.2-.336 3.18133333-1.008 4.2c-.672 1.0186667-1.648 1.528-2.928 1.528zm0-1.216c.832 0 1.4746667-.40533333 1.928-1.216s.68-1.90933333.68-3.296-.2266667-2.488-.68-3.304-1.096-1.224-1.928-1.224c-.8426667 0-1.488.408-1.936 1.224s-.672 1.91733333-.672 3.304.224 2.48533333.672 3.296 1.0933333 1.216 1.936 1.216z"/><path d="m31.12 11.456c-1.28 0-2.2586667-.512-2.936-1.536s-1.016-2.42133333-1.016-4.192.3386667-3.168 1.016-4.192 1.656-1.536 2.936-1.536 2.256.50933333 2.928 1.528 1.008 2.41866667 1.008 4.2-.336 3.18133333-1.008 4.2c-.672 1.0186667-1.648 1.528-2.928 1.528zm0-1.216c.832 0 1.4746667-.40533333 1.928-1.216s.68-1.90933333.68-3.296-.2266667-2.488-.68-3.304-1.096-1.224-1.928-1.224c-.8426667 0-1.488.408-1.936 1.224s-.672 1.91733333-.672 3.304.224 2.48533333.672 3.296 1.0933333 1.216 1.936 1.216z"/><path d="m37.248 9.664h1.872l-1.776 3.2h-.976z"/><path d="m44.576 11.456c-1.28 0-2.2586667-.512-2.936-1.536s-1.016-2.42133333-1.016-4.192.3386667-3.168 1.016-4.192 1.656-1.536 2.936-1.536 2.256.50933333 2.928 1.528 1.008 2.41866667 1.008 4.2-.336 3.18133333-1.008 4.2c-.672 1.0186667-1.648 1.528-2.928 1.528zm0-1.216c.832 0 1.4746667-.40533333 1.928-1.216s.68-1.90933333.68-3.296-.2266667-2.488-.68-3.304-1.096-1.224-1.928-1.224c-.8426667 0-1.488.408-1.936 1.224s-.672 1.91733333-.672 3.304.224 2.48533333.672 3.296 1.0933333 1.216 1.936 1.216z"/><path d="m54.192 11.456c-1.28 0-2.2586667-.512-2.936-1.536s-1.016-2.42133333-1.016-4.192.3386667-3.168 1.016-4.192 1.656-1.536 2.936-1.536 2.256.50933333 2.928 1.528 1.008 2.41866667 1.008 4.2-.336 3.18133333-1.008 4.2c-.672 1.0186667-1.648 1.528-2.928 1.528zm0-1.216c.832 0 1.4746667-.40533333 1.928-1.216s.68-1.90933333.68-3.296-.2266667-2.488-.68-3.304-1.096-1.224-1.928-1.224c-.8426667 0-1.488.408-1.936 1.224s-.672 1.91733333-.672 3.304.224 2.48533333.672 3.296 1.0933333 1.216 1.936 1.216z"/><path d="m63.808 11.456c-1.28 0-2.2586667-.512-2.936-1.536s-1.016-2.42133333-1.016-4.192.3386667-3.168 1.016-4.192 1.656-1.536 2.936-1.536 2.256.50933333 2.928 1.528 1.008 2.41866667 1.008 4.2-.336 3.18133333-1.008 4.2c-.672 1.0186667-1.648 1.528-2.928 1.528zm0-1.216c.832 0 1.4746667-.40533333 1.928-1.216s.68-1.90933333.68-3.296-.2266667-2.488-.68-3.304-1.096-1.224-1.928-1.224c-.8426667 0-1.488.408-1.936 1.224s-.672 1.91733333-.672 3.304.224 2.48533333.672 3.296 1.0933333 1.216 1.936 1.216z"/><path d="m69.936 9.664h1.872l-1.776 3.2h-.976z"/><path d="m77.264 11.456c-1.28 0-2.2586667-.512-2.936-1.536s-1.016-2.42133333-1.016-4.192.3386667-3.168 1.016-4.192 1.656-1.536 2.936-1.536 2.256.50933333 2.928 1.528 1.008 2.41866667 1.008 4.2-.336 3.18133333-1.008 4.2c-.672 1.0186667-1.648 1.528-2.928 1.528zm0-1.216c.832 0 1.4746667-.40533333 1.928-1.216s.68-1.90933333.68-3.296-.2266667-2.488-.68-3.304-1.096-1.224-1.928-1.224c-.8426667 0-1.488.408-1.936 1.224s-.672 1.91733333-.672 3.304.224 2.48533333.672 3.296 1.0933333 1.216 1.936 1.216z"/><path d="m86.88 11.456c-1.28 0-2.2586667-.512-2.936-1.536s-1.016-2.42133333-1.016-4.192.3386667-3.168 1.016-4.192 1.656-1.536 2.936-1.536 2.256.50933333 2.928 1.528 1.008 2.41866667 1.008 4.2-.336 3.18133333-1.008 4.2c-.672 1.0186667-1.648 1.528-2.928 1.528zm0-1.216c.832 0 1.4746667-.40533333 1.928-1.216s.68-1.90933333.68-3.296-.2266667-2.488-.68-3.304-1.096-1.224-1.928-1.224c-.8426667 0-1.488.408-1.936 1.224s-.672 1.91733333-.672 3.304.224 2.48533333.672 3.296 1.0933333 1.216 1.936 1.216z"/><path d="m96.496 11.456c-1.28 0-2.2586667-.512-2.936-1.536s-1.016-2.42133333-1.016-4.192.3386667-3.168 1.016-4.192 1.656-1.536 2.936-1.536 2.256.50933333 2.928 1.528 1.008 2.41866667 1.008 4.2-.336 3.18133333-1.008 4.2c-.672 1.0186667-1.648 1.528-2.928 1.528zm0-1.216c.832 0 1.4746667-.40533333 1.928-1.216s.68-1.90933333.68-3.296-.2266667-2.488-.68-3.304-1.096-1.224-1.928-1.224c-.8426667 0-1.488.408-1.936 1.224s-.672 1.91733333-.672 3.304.224 2.48533333.672 3.296 1.0933333 1.216 1.936 1.216z"/></g><path d="m1149 121v1h-980v-1z"/><g transform="translate(51.932 114.672)"><path d="m4.048 5.568c.448-.56533333.74933333-1.016.904-1.352s.232-.71733333.232-1.144c0-.576-.16-1.032-.48-1.368s-.75733333-.504-1.312-.504c-.52266667 0-.95466667.184-1.296.552s-.55466667.856-.64 1.464l-1.232-.24c.04266667-.576.20533333-1.088.488-1.536s.65866667-.8 1.128-1.056.992-.384 1.568-.384c.93866667 0 1.69333333.27466667 2.264.824s.856 1.29866667.856 2.248c0 .49066667-.104.968-.312 1.432s-.51466667.952-.92 1.464l-3.2 4.144h4.688v1.216h-6.784v-.512z"/><path d="m8.832 9.664h1.872l-1.776 3.2h-.976z"/><path d="m16.16 11.456c-1.28 0-2.2586667-.512-2.936-1.536s-1.016-2.42133333-1.016-4.192.3386667-3.168 1.016-4.192 1.656-1.536 2.936-1.536 2.256.50933333 2.928 1.528 1.008 2.41866667 1.008 4.2-.336 3.18133333-1.008 4.2c-.672 1.0186667-1.648 1.528-2.928 1.528zm0-1.216c.832 0 1.4746667-.40533333 1.928-1.216s.68-1.90933333.68-3.296-.2266667-2.488-.68-3.304-1.096-1.224-1.928-1.224c-.8426667 0-1.488.408-1.936 1.224s-.672 1.91733333-.672 3.304.224 2.48533333.672 3.296 1.0933333 1.216 1.936 1.216z"/><path d="m25.776 11.456c-1.28 0-2.2586667-.512-2.936-1.536s-1.016-2.42133333-1.016-4.192.3386667-3.168 1.016-4.192 1.656-1.536 2.936-1.536 2.256.50933333 2.928 1.528 1.008 2.41866667 1.008 4.2-.336 3.18133333-1.008 4.2c-.672 1.0186667-1.648 1.528-2.928 1.528zm0-1.216c.832 0 1.4746667-.40533333 1.928-1.216s.68-1.90933333.68-3.296-.2266667-2.488-.68-3.304-1.096-1.224-1.928-1.224c-.8426667 0-1.488.408-1.936 1.224s-.672 1.91733333-.672 3.304.224 2.48533333.672 3.296 1.0933333 1.216 1.936 1.216z"/><path d="m35.392 11.456c-1.28 0-2.2586667-.512-2.936-1.536s-1.016-2.42133333-1.016-4.192.3386667-3.168 1.016-4.192 1.656-1.536 2.936-1.536 2.256.50933333 2.928 1.528 1.008 2.41866667 1.008 4.2-.336 3.18133333-1.008 4.2c-.672 1.0186667-1.648 1.528-2.928 1.528zm0-1.216c.832 0 1.4746667-.40533333 1.928-1.216s.68-1.90933333.68-3.296-.2266667-2.488-.68-3.304-1.096-1.224-1.928-1.224c-.8426667 0-1.488.408-1.936 1.224s-.672 1.91733333-.672 3.304.224 2.48533333.672 3.296 1.0933333 1.216 1.936 1.216z"/><path d="m41.52 9.664h1.872l-1.776 3.2h-.976z"/><path d="m48.848 11.456c-1.28 0-2.2586667-.512-2.936-1.536s-1.016-2.42133333-1.016-4.192.3386667-3.168 1.016-4.192 1.656-1.536 2.936-1.536 2.256.50933333 2.928 1.528 1.008 2.41866667 1.008 4.2-.336 3.18133333-1.008 4.2c-.672 1.0186667-1.648 1.528-2.928 1.528zm0-1.216c.832 0 1.4746667-.40533333 1.928-1.216s.68-1.90933333.68-3.296-.2266667-2.488-.68-3.304-1.096-1.224-1.928-1.224c-.8426667 0-1.488.408-1.936 1.224s-.672 1.91733333-.672 3.304.224 2.48533333.672 3.296 1.0933333 1.216 1.936 1.216z"/><path d="m58.464 11.456c-1.28 0-2.2586667-.512-2.936-1.536s-1.016-2.42133333-1.016-4.192.3386667-3.168 1.016-4.192 1.656-1.536 2.936-1.536 2.256.50933333 2.928 1.528 1.008 2.41866667 1.008 4.2-.336 3.18133333-1.008 4.2c-.672 1.0186667-1.648 1.528-2.928 1.528zm0-1.216c.832 0 1.4746667-.40533333 1.928-1.216s.68-1.90933333.68-3.296-.2266667-2.488-.68-3.304-1.096-1.224-1.928-1.224c-.8426667 0-1.488.408-1.936 1.224s-.672 1.91733333-.672 3.304.224 2.48533333.672 3.296 1.0933333 1.216 1.936 1.216z"/><path d="m68.08 11.456c-1.28 0-2.2586667-.512-2.936-1.536s-1.016-2.42133333-1.016-4.192.3386667-3.168 1.016-4.192 1.656-1.536 2.936-1.536 2.256.50933333 2.928 1.528 1.008 2.41866667 1.008 4.2-.336 3.18133333-1.008 4.2c-.672 1.0186667-1.648 1.528-2.928 1.528zm0-1.216c.832 0 1.4746667-.40533333 1.928-1.216s.68-1.90933333.68-3.296-.2266667-2.488-.68-3.304-1.096-1.224-1.928-1.224c-.8426667 0-1.488.408-1.936 1.224s-.672 1.91733333-.672 3.304.224 2.48533333.672 3.296 1.0933333 1.216 1.936 1.216z"/><path d="m74.208 9.664h1.872l-1.776 3.2h-.976z"/><path d="m81.536 11.456c-1.28 0-2.2586667-.512-2.936-1.536s-1.016-2.42133333-1.016-4.192.3386667-3.168 1.016-4.192 1.656-1.536 2.936-1.536 2.256.50933333 2.928 1.528 1.008 2.41866667 1.008 4.2-.336 3.18133333-1.008 4.2c-.672 1.0186667-1.648 1.528-2.928 1.528zm0-1.216c.832 0 1.4746667-.40533333 1.928-1.216s.68-1.90933333.68-3.296-.2266667-2.488-.68-3.304-1.096-1.224-1.928-1.224c-.8426667 0-1.488.408-1.936 1.224s-.672 1.91733333-.672 3.304.224 2.48533333.672 3.296 1.0933333 1.216 1.936 1.216z"/><path d="m91.152 11.456c-1.28 0-2.2586667-.512-2.936-1.536s-1.016-2.42133333-1.016-4.192.3386667-3.168 1.016-4.192 1.656-1.536 2.936-1.536 2.256.50933333 2.928 1.528 1.008 2.41866667 1.008 4.2-.336 3.18133333-1.008 4.2c-.672 1.0186667-1.648 1.528-2.928 1.528zm0-1.216c.832 0 1.4746667-.40533333 1.928-1.216s.68-1.90933333.68-3.296-.2266667-2.488-.68-3.304-1.096-1.224-1.928-1.224c-.8426667 0-1.488.408-1.936 1.224s-.672 1.91733333-.672 3.304.224 2.48533333.672 3.296 1.0933333 1.216 1.936 1.216z"/><path d="m100.768 11.456c-1.28 0-2.2586667-.512-2.936-1.536s-1.016-2.42133333-1.016-4.192.3386667-3.168 1.016-4.192 1.656-1.536 2.936-1.536 2.256.50933333 2.928 1.528 1.008 2.41866667 1.008 4.2-.336 3.18133333-1.008 4.2c-.672 1.0186667-1.648 1.528-2.928 1.528zm0-1.216c.832 0 1.474667-.40533333 1.928-1.216s.68-1.90933333.68-3.296-.226667-2.488-.68-3.304-1.096-1.224-1.928-1.224c-.8426667 0-1.488.408-1.936 1.224s-.672 1.91733333-.672 3.304.224 2.48533333.672 3.296 1.0933333 1.216 1.936 1.216z"/></g></g><path d="m170 643h33v19h-33z" fill="#66c4ff"/><path d="m213 640h33v22h-33z" fill="#66c4ff"/><path d="m256 637h33v25h-33z" fill="#66c4ff"/><path d="m299 633h33v29h-33z" fill="#66c4ff"/><path d="m342 630h33v32h-33z" fill="#66c4ff"/><path d="m385 626h33v36h-33z" fill="#66c4ff"/><path d="m428 618h33v44h-33z" fill="#66c4ff"/><path d="m471 606h33v56h-33z" fill="#66c4ff"/><path d="m514 591h33v71h-33z" fill="#66c4ff"/><path d="m600 591h33v71h-33z" fill="#66c4ff"/><path d="m643 544h33v118h-33z" fill="#66c4ff"/><path d="m686 451h33v211h-33z" fill="#66c4ff"/><path d="m772 415h33v247h-33z" fill="#66c4ff"/><path d="m858 351h33v311h-33z" fill="#66c4ff"/><path d="m901 188h33v474h-33z" fill="#66c4ff"/><path d="m944 228h33v434h-33z" fill="#66c4ff"/><path d="m987 208h33v454h-33z" fill="#66c4ff"/><path d="m1030 181h33v481h-33z" fill="#66c4ff"/><path d="m1073 152h33v510h-33z" fill="#66c4ff"/><path d="m1116 133h33v529h-33z" fill="#66c4ff"/><path d="m815 451h33v211h-33z" fill="#66c4ff"/><path d="m729 488h33v174h-33z" fill="#66c4ff"/><path d="m557 566h33v96h-33z" fill="#66c4ff"/></g></svg>